<?xml version="1.0" encoding="utf-8" standalone="no"?><svg xmlns="http://www.w3.org/2000/svg" xmlns:xlink="http://www.w3.org/1999/xlink" width="198" height="296" viewBox="3950 2950 198 296"><title>Photo View</title><style type="text/css">
path, polyline, polygon {stroke-linejoin:round;}
path, polyline, polygon, line {stroke-linecap:round;}
rect, circle, ellipse, polyline, polygon, line, path {shape-rendering:crispEdges;}
*[layerid="0"] {stroke:#FFFFFF; FILL:#FFFFFF;}*[layerid="1"] {stroke:#00BE00; fill:#00BE00;}*[layerid="2"] {stroke:#00BE00; fill:#00BE00;}*[layerid="3"] {stroke:#FFFFFF; fill:#FFFFFF;}*[layerid="4"] {stroke:#FFFFFF; fill:#FFFFFF;}*[layerid="5"] {stroke:#808080; fill:#808080;}*[layerid="6"] {stroke:#800000; fill:#800000;}*[layerid="7"] {stroke:#DCAA14; fill:#DCAA14;}*[layerid="8"] {stroke:#DCAA14; fill:#DCAA14;}*[layerid="9"] {display:none}*[layerid="10"] {stroke:#0B3B0B; fill:#0B3B0B;}*[layerid="11"] {stroke:#C0C0C0; fill:#C0C0C0;}*[layerid="12"] {stroke:#FFFFFF; fill:#FFFFFF;}*[layerid="13"] {stroke:#33CC99; fill:#33CC99;}*[layerid="14"] {stroke:#5555FF; fill:#5555FF;}*[layerid="15"] {stroke:#F022F0; fill:#F022F0;}*[layerid="16"] {stroke:#FFFFFF; FILL:#FFFFFF;}*[layerid="17"] {stroke:#FFFFFF; FILL:#FFFFFF;}*[layerid="18"] {stroke:#FFFFFF; FILL:#FFFFFF;}*[layerid="19"] {stroke:#FFFFFF; FILL:#FFFFFF;}*[layerid="20"] {stroke:#FFFFFF; FILL:#FFFFFF;}*[layerid="21"] {stroke:#800000; fill:#800000;}*[layerid="22"] {stroke:#008000; fill:#008000;}*[layerid="23"] {stroke:#00FF00; fill:#00FF00;}*[layerid="24"] {stroke:#000080; fill:#000080;}*[fill="none"] {fill: none;}
*[stroke="none"] {stroke: none;}
g[c_partid="part_pad"] > * + circle {fill: #111111;}
g[c_partid="part_via"] > * + circle {fill: #111111;}
g[c_partid="part_pad"] > polyline:nth-child(2) {stroke: #111111;}</style>
<rect x="3950" y="2950" width="198" height="296" fill="#111111" stroke="none"/><g style="pointer-events: none;" transform="matrix(-1, 0, 0, 1, 8098.419921875, 0)"><path d="M4000,3196.86 4000,3000 4098.42,3000 4098.42,3196.86z" layerid="10"/><polyline points="4062 3161.5 4062 3148" stroke-width="1" c_shapetype="line" stroke-linecap="round" fill="none" layerid="2"/><polyline points="4070.5 3116.55 4070.5 3134.5 4066 3139 4048 3139 4046 3141 4046 3148" stroke-width="1" c_shapetype="line" stroke-linecap="round" fill="none" layerid="2"/><polyline points="4068 3121.47 4068 3134 4065 3137 4042 3137 4038 3141 4038 3148" stroke-width="1" c_shapetype="line" stroke-linecap="round" fill="none" layerid="2"/><polyline points="4065.5 3126.5 4065.5 3133.5 4064 3135 4036 3135 4030 3141 4030 3148" stroke-width="1" c_shapetype="line" stroke-linecap="round" fill="none" layerid="2"/><polyline points="4078 3063 4055.33 3063 4048.23 3055.9" stroke-width="1" c_shapetype="line" stroke-linecap="round" fill="none" layerid="2"/><polyline points="4022.63 3038.1 4048.23 3038.1" stroke-width="1" c_shapetype="line" stroke-linecap="round" fill="none" layerid="2"/><polyline points="4022.63 3038.1 4022.63 3040.93 4028.7 3047" stroke-width="1" c_shapetype="line" stroke-linecap="round" fill="none" layerid="2"/><polyline points="4022.63 3055.9 4048.23 3055.9" stroke-width="1" c_shapetype="line" stroke-linecap="round" fill="none" layerid="2"/><polyline points="4069 3054 4072.3 3054 4073.3 3053" stroke-width="1" c_shapetype="line" stroke-linecap="round" fill="none" layerid="2"/><polyline points="4011.81 3057 4011.81 3055.19 4017 3050 4017 3036 4020 3033 4063.3 3033 4073.3 3043" stroke-width="1" c_shapetype="line" stroke-linecap="round" fill="none" layerid="2"/><polyline points="4028.7 3047 4024 3047 4017 3054 4017 3060 4014 3063 4011 3063 4008 3066 4008 3077 4015 3084 4025 3084" stroke-width="1" c_shapetype="line" stroke-linecap="round" fill="none" layerid="2"/><polyline points="4028 3081 4024 3081 4022 3079 4022 3072" stroke-width="1" c_shapetype="line" stroke-linecap="round" fill="none" layerid="2"/><polyline points="4048.5 3132.5 4030.5 3132.5 4022 3141 4022 3148" stroke-width="1" c_shapetype="line" stroke-linecap="round" fill="none" layerid="2"/><polyline points="4047 3047 4056.7 3047 4060.7 3043" stroke-width="1" c_shapetype="line" stroke-linecap="round" fill="none" layerid="2"/><polyline points="4022 3087 4026 3087 4033 3080 4075.31 3080 4078 3082.69" stroke-width="1" c_shapetype="line" stroke-linecap="round" fill="none" layerid="2"/><polyline points="4060.5 3083 4068.47 3083 4078 3092.53" stroke-width="1" c_shapetype="line" stroke-linecap="round" fill="none" layerid="2"/><polyline points="4045.6 3084.9 4045.6 3114.6 4062 3131" stroke-width="1" c_shapetype="line" stroke-linecap="round" fill="none" layerid="2"/><polyline points="4036.1 3082.5 4040.5 3082.5 4043 3085 4043 3116 4058 3131" stroke-width="1" c_shapetype="line" stroke-linecap="round" fill="none" layerid="2"/><polyline points="4039.3 3084.9 4039.3 3116.3 4054 3131" stroke-width="1" c_shapetype="line" stroke-linecap="round" fill="none" layerid="2"/><polyline points="4013.01 3179.03 4013.01 3172.45 4022 3163.46" stroke-width="10" c_shapetype="line" stroke-linecap="round" fill="none" layerid="2"/><polyline points="4050 3160 4025.46 3160 4022 3163.46" stroke-width="9.68502" c_shapetype="line" stroke-linecap="round" fill="none" layerid="2"/><polyline points="4078 3082.69 4079.11 3082.69 4087.5 3074.3" stroke-width="1" c_shapetype="line" stroke-linecap="round" fill="none" layerid="2"/><polyline points="4087.5 3061.7 4087.5 3064 4082.5 3069 4082.5 3075.5 4080 3078 4076 3078 4070 3072" stroke-width="1" c_shapetype="line" stroke-linecap="round" fill="none" layerid="2"/><polyline points="4070 3072 4070 3071 4078 3063" stroke-width="1" c_shapetype="line" stroke-linecap="round" fill="none" layerid="2"/><polyline points="4087.51 3097.29 4082.76 3097.29 4078 3092.53" stroke-width="1" c_shapetype="line" stroke-linecap="round" fill="none" layerid="2"/><polyline points="4087.5 3061.7 4087.5 3063.5 4093 3069 4093 3079.2 4087.51 3084.69" stroke-width="1" c_shapetype="line" stroke-linecap="round" fill="none" layerid="2"/><polyline points="4039 3028 4045.3 3028" stroke-width="1" c_shapetype="line" stroke-linecap="round" fill="none" layerid="2"/><polyline points="4032.7 3028 4020.81 3028 4011.81 3037" stroke-width="1" c_shapetype="line" stroke-linecap="round" fill="none" layerid="2"/><polygon points="4051 3155.5 4008 3155.5 4008 3179 4017 3182" stroke-width="0.2" c_shapetype="line" stroke-linecap="round" type="solid" layerid="2"/><path d="M4001.96,3194.88 4001.96,3001.96 4096.46,3001.96 4096.46,3194.88zM4043,3021.68 4044.28,3021.6 4045.48,3021.18 4046.52,3020.44 4047.34,3019.44 4047.84,3018.26 4048.02,3017 4047.84,3015.74 4047.34,3014.56 4046.52,3013.56 4045.48,3012.82 4044.28,3012.4 4043,3012.32 4041.74,3012.58 4040.6,3013.16 4039.68,3014.04 4039,3015.12 4038.66,3016.36 4038.66,3017.64 4039,3018.88 4039.68,3019.96 4040.6,3020.84 4041.74,3021.42zM4061.88,3167.5 4062.12,3167.5 4062.2,3167.48 4063.42,3167.24 4063.5,3167.22 4063.56,3167.2 4063.64,3167.16 4063.72,3167.14 4063.78,3167.08 4064.82,3166.38 4064.94,3166.3 4065,3166.24 4065.08,3166.12 4065.78,3165.08 4065.84,3165.02 4065.86,3164.94 4065.9,3164.86 4065.92,3164.8 4065.94,3164.72 4066.18,3163.5 4066.18,3163.46 4066.2,3163.42 4066.2,3159.58 4066.18,3159.54 4066.18,3159.5 4065.94,3158.28 4065.92,3158.2 4065.9,3158.14 4065.86,3158.06 4065.84,3157.98 4065.78,3157.92 4065.08,3156.88 4065,3156.76 4064.94,3156.7 4064.82,3156.62 4063.78,3155.92 4063.72,3155.86 4063.64,3155.84 4063.56,3155.8 4063.5,3155.78 4063.5,3155.4 4065,3155.4 4065.3,3155.36 4065.58,3155.2 4065.8,3154.98 4065.96,3154.7 4066,3154.4 4066,3141.6 4065.96,3141.3 4065.8,3141.02 4065.58,3140.8 4065.3,3140.64 4065,3140.6 4059,3140.6 4058.7,3140.64 4058.42,3140.8 4058.2,3141.02 4058.04,3141.3 4058,3141.6 4058,3154.4 4058.04,3154.7 4058.2,3154.98 4058.42,3155.2 4058.7,3155.36 4059,3155.4 4060.5,3155.4 4060.5,3155.78 4060.44,3155.8 4060.36,3155.84 4060.28,3155.86 4060.22,3155.92 4059.18,3156.62 4059.06,3156.7 4059,3156.76 4058.92,3156.88 4058.22,3157.92 4058.16,3157.98 4058.14,3158.06 4058.1,3158.14 4058.08,3158.2 4058.06,3158.28 4057.82,3159.5 4057.82,3159.54 4057.8,3159.58 4057.8,3163.42 4057.82,3163.46 4057.82,3163.5 4058.06,3164.72 4058.08,3164.8 4058.1,3164.86 4058.14,3164.94 4058.16,3165.02 4058.22,3165.08 4058.92,3166.12 4059,3166.24 4059.06,3166.3 4059.18,3166.38 4060.22,3167.08 4060.28,3167.14 4060.36,3167.16 4060.44,3167.2 4060.5,3167.22 4060.58,3167.24 4061.8,3167.48zM4081.96,3186.98 4083.4,3186.98 4084.78,3186.64 4086.04,3185.98 4087.12,3185.02 4087.92,3183.86 4088.42,3182.52 4088.6,3181.1 4088.42,3179.68 4087.92,3178.34 4087.12,3177.18 4086.04,3176.22 4084.78,3175.56 4083.4,3175.22 4081.96,3175.22 4080.58,3175.56 4079.32,3176.22 4078.24,3177.18 4077.44,3178.34 4076.94,3179.68 4076.76,3181.1 4076.94,3182.52 4077.44,3183.86 4078.24,3185.02 4079.32,3185.98 4080.58,3186.64zM4070.74,3057.16 4075.86,3057.16 4076.16,3057.12 4076.44,3056.96 4076.66,3056.74 4076.82,3056.46 4076.86,3056.16 4076.86,3049.86 4076.82,3049.56 4076.66,3049.28 4076.44,3049.06 4076.16,3048.9 4075.86,3048.86 4070.74,3048.86 4070.44,3048.9 4070.16,3049.06 4069.94,3049.28 4069.78,3049.56 4069.74,3049.86 4069.74,3051.94 4069.68,3051.9 4068.78,3051.82 4067.9,3052.1 4067.22,3052.7 4066.84,3053.54 4066.84,3054.46 4067.22,3055.3 4067.9,3055.9 4068.78,3056.18 4069.68,3056.1 4069.74,3056.06 4069.74,3056.16 4069.78,3056.46 4069.94,3056.74 4070.16,3056.96 4070.44,3057.12zM4046.78,3049.18 4047.68,3049.1 4048.48,3048.64 4048.58,3048.5 4056.7,3048.5 4056.94,3048.48 4057.16,3048.42 4057.38,3048.34 4057.58,3048.22 4057.76,3048.06 4058.66,3047.16 4063.26,3047.16 4063.56,3047.12 4063.84,3046.96 4064.06,3046.74 4064.22,3046.46 4064.26,3046.16 4064.26,3039.86 4064.22,3039.56 4064.06,3039.28 4063.84,3039.06 4063.56,3038.9 4063.26,3038.86 4058.14,3038.86 4057.84,3038.9 4057.56,3039.06 4057.34,3039.28 4057.18,3039.56 4057.14,3039.86 4057.14,3044.44 4056.08,3045.5 4048.58,3045.5 4048.48,3045.36 4047.68,3044.9 4046.78,3044.82 4045.9,3045.1 4045.22,3045.7 4044.84,3046.54 4044.84,3047.46 4045.22,3048.3 4045.9,3048.9zM4062.68,3021.66 4063.96,3021.58 4065.16,3021.16 4066.2,3020.42 4067.02,3019.42 4067.52,3018.24 4067.7,3016.98 4067.52,3015.72 4067.02,3014.54 4066.2,3013.54 4065.16,3012.8 4063.96,3012.38 4062.68,3012.3 4061.42,3012.56 4060.28,3013.14 4059.36,3014.02 4058.68,3015.1 4058.34,3016.34 4058.34,3017.62 4058.68,3018.86 4059.36,3019.94 4060.28,3020.82 4061.42,3021.4zM4015.04,3021.64 4016.48,3021.64 4017.86,3021.3 4019.12,3020.64 4020.2,3019.68 4021,3018.52 4021.5,3017.18 4021.68,3015.76 4021.5,3014.34 4021,3013 4020.2,3011.84 4019.12,3010.88 4017.86,3010.22 4016.48,3009.88 4015.04,3009.88 4013.66,3010.22 4012.4,3010.88 4011.32,3011.84 4010.52,3013 4010.02,3014.34 4009.84,3015.76 4010.02,3017.18 4010.52,3018.52 4011.32,3019.68 4012.4,3020.64 4013.66,3021.3zM4081.3,3020.98 4082.46,3020.72 4083.5,3020.12 4084.3,3019.26 4084.82,3018.18 4085,3017 4084.82,3015.82 4084.3,3014.74 4083.5,3013.88 4082.46,3013.28 4081.3,3013.02 4080.1,3013.1 4079,3013.54 4078.06,3014.28 4077.4,3015.26 4077.04,3016.4 4077.04,3017.6 4077.4,3018.74 4078.06,3019.72 4079,3020.46 4080.1,3020.9zM4013.02,3185.04 4014.58,3184.84 4016.02,3184.24 4017.26,3183.28 4017.68,3182.72 4039.36,3165.84 4050,3165.84 4051.52,3165.64 4052.92,3165.06 4054.12,3164.12 4055.06,3162.92 4055.64,3161.52 4055.84,3160 4055.64,3158.48 4055.06,3157.08 4054.12,3155.88 4052.92,3154.94 4051.52,3154.36 4050,3154.16 4050,3141.6 4049.96,3141.3 4049.8,3141.02 4049.58,3140.8 4049.3,3140.64 4049,3140.6 4048.52,3140.6 4048.62,3140.5 4066,3140.5 4066.24,3140.48 4066.46,3140.42 4066.68,3140.34 4066.88,3140.22 4067.06,3140.06 4071.56,3135.56 4071.72,3135.38 4071.84,3135.18 4071.92,3134.96 4071.98,3134.74 4072,3134.5 4072,3118.18 4072.5,3117.46 4072.7,3116.56 4072.5,3115.66 4071.98,3114.92 4071.18,3114.46 4070.28,3114.38 4069.4,3114.66 4068.72,3115.26 4068.34,3116.1 4068.34,3117.02 4068.72,3117.86 4069,3118.1 4069,3119.56 4068.68,3119.38 4067.78,3119.3 4066.9,3119.58 4066.22,3120.18 4065.84,3121.02 4065.84,3121.94 4066.22,3122.78 4066.5,3123.02 4066.5,3124.58 4066.18,3124.4 4065.28,3124.32 4064.4,3124.6 4063.72,3125.2 4063.34,3126.04 4063.34,3126.96 4063.72,3127.8 4064,3128.04 4064,3130.1 4063.48,3129.36 4062.68,3128.9 4061.96,3128.84 4047.1,3113.98 4047.1,3086.52 4047.6,3085.8 4047.8,3084.9 4047.6,3084 4047.08,3083.26 4046.28,3082.8 4045.38,3082.72 4044.5,3083 4043.82,3083.6 4043.78,3083.66 4041.62,3081.5 4058.94,3081.5 4058.72,3081.7 4058.34,3082.54 4058.34,3083.46 4058.72,3084.3 4059.4,3084.9 4060.28,3085.18 4061.18,3085.1 4061.98,3084.64 4062.08,3084.5 4067.86,3084.5 4074.34,3091 4074.04,3091.94 4074.04,3093.14 4074.4,3094.28 4075.06,3095.26 4076,3096 4077.1,3096.44 4078.3,3096.52 4079.46,3096.26 4079.54,3096.2 4081.7,3098.36 4081.88,3098.52 4082.08,3098.64 4082.3,3098.72 4082.52,3098.78 4082.76,3098.8 4083.36,3098.8 4083.36,3099.84 4083.4,3100.14 4083.56,3100.42 4083.78,3100.64 4084.06,3100.8 4084.36,3100.84 4090.66,3100.84 4090.96,3100.8 4091.24,3100.64 4091.46,3100.42 4091.62,3100.14 4091.66,3099.84 4091.66,3094.74 4091.62,3094.44 4091.46,3094.16 4091.24,3093.94 4090.96,3093.78 4090.66,3093.74 4084.36,3093.74 4084.06,3093.78 4083.78,3093.94 4083.56,3094.16 4083.4,3094.44 4083.36,3094.74 4083.36,3095.78 4081.66,3094.08 4081.82,3093.72 4082,3092.54 4081.82,3091.36 4081.3,3090.28 4080.5,3089.42 4079.46,3088.82 4078.3,3088.56 4077.1,3088.64 4076.48,3088.88 4069.54,3081.94 4069.36,3081.78 4069.16,3081.66 4068.94,3081.58 4068.72,3081.52 4068.48,3081.5 4074.22,3081.5 4074.04,3082.1 4074.04,3083.3 4074.4,3084.44 4075.06,3085.42 4076,3086.16 4077.1,3086.6 4078.3,3086.68 4079.46,3086.42 4080.5,3085.82 4081.3,3084.96 4081.82,3083.88 4082,3082.7 4081.9,3082.04 4086.06,3077.86 4090.66,3077.86 4090.96,3077.82 4091.24,3077.66 4091.46,3077.44 4091.5,3077.38 4091.5,3078.58 4088.96,3081.14 4084.36,3081.14 4084.06,3081.18 4083.78,3081.34 4083.56,3081.56 4083.4,3081.84 4083.36,3082.14 4083.36,3087.26 4083.4,3087.56 4083.56,3087.84 4083.78,3088.06 4084.06,3088.22 4084.36,3088.26 4090.66,3088.26 4090.96,3088.22 4091.24,3088.06 4091.46,3087.84 4091.62,3087.56 4091.66,3087.26 4091.66,3082.66 4094.06,3080.26 4094.22,3080.08 4094.34,3079.88 4094.42,3079.66 4094.48,3079.44 4094.5,3079.2 4094.5,3069 4094.48,3068.76 4094.42,3068.54 4094.34,3068.32 4094.22,3068.12 4094.06,3067.94 4091.2,3065.08 4091.24,3065.06 4091.46,3064.84 4091.62,3064.56 4091.66,3064.26 4091.66,3059.14 4091.62,3058.84 4091.46,3058.56 4091.24,3058.34 4090.96,3058.18 4090.66,3058.14 4084.36,3058.14 4084.06,3058.18 4083.78,3058.34 4083.56,3058.56 4083.4,3058.84 4083.36,3059.14 4083.36,3064.26 4083.4,3064.56 4083.56,3064.84 4083.78,3065.06 4084.06,3065.22 4084.14,3065.24 4081.44,3067.94 4081.28,3068.12 4081.16,3068.32 4081.08,3068.54 4081.02,3068.76 4081,3069 4081,3074.88 4079.38,3076.5 4076.62,3076.5 4074,3073.88 4074,3069.12 4076.12,3067 4081,3067 4081.3,3066.96 4081.58,3066.8 4081.8,3066.58 4081.96,3066.3 4082,3066 4082,3060 4081.96,3059.7 4081.8,3059.42 4081.58,3059.2 4081.3,3059.04 4081,3059 4075,3059 4074.7,3059.04 4074.42,3059.2 4074.2,3059.42 4074.04,3059.7 4074,3060 4074,3061.5 4055.96,3061.5 4052.42,3057.96 4052.76,3057.16 4052.94,3055.9 4052.76,3054.64 4052.26,3053.46 4051.44,3052.46 4050.4,3051.72 4049.2,3051.3 4047.92,3051.22 4046.66,3051.48 4045.52,3052.06 4044.6,3052.94 4043.92,3054.02 4043.82,3054.4 4027.06,3054.4 4026.66,3053.46 4025.84,3052.46 4024.8,3051.72 4023.6,3051.3 4022.32,3051.22 4021.8,3051.32 4024.62,3048.5 4025.14,3048.5 4025.14,3050.16 4025.18,3050.46 4025.34,3050.74 4025.56,3050.96 4025.84,3051.12 4026.14,3051.16 4031.26,3051.16 4031.56,3051.12 4031.84,3050.96 4032.06,3050.74 4032.22,3050.46 4032.26,3050.16 4032.26,3043.86 4032.22,3043.56 4032.06,3043.28 4031.84,3043.06 4031.56,3042.9 4031.26,3042.86 4026.68,3042.86 4025.56,3041.74 4025.84,3041.54 4026.66,3040.54 4027.06,3039.6 4043.82,3039.6 4043.92,3039.98 4044.6,3041.06 4045.52,3041.94 4046.66,3042.52 4047.92,3042.78 4049.2,3042.7 4050.4,3042.28 4051.44,3041.54 4052.26,3040.54 4052.76,3039.36 4052.94,3038.1 4052.76,3036.84 4052.26,3035.66 4051.44,3034.66 4051.22,3034.5 4062.68,3034.5 4069.74,3041.56 4069.74,3046.16 4069.78,3046.46 4069.94,3046.74 4070.16,3046.96 4070.44,3047.12 4070.74,3047.16 4075.86,3047.16 4076.16,3047.12 4076.44,3046.96 4076.66,3046.74 4076.82,3046.46 4076.86,3046.16 4076.86,3039.86 4076.82,3039.56 4076.66,3039.28 4076.44,3039.06 4076.16,3038.9 4075.86,3038.86 4071.28,3038.86 4064.36,3031.94 4064.18,3031.78 4063.98,3031.66 4063.76,3031.58 4063.54,3031.52 4063.3,3031.5 4048.8,3031.5 4048.82,3031.46 4048.86,3031.16 4048.86,3024.86 4048.82,3024.56 4048.66,3024.28 4048.44,3024.06 4048.16,3023.9 4047.86,3023.86 4042.74,3023.86 4042.44,3023.9 4042.16,3024.06 4041.94,3024.28 4041.78,3024.56 4041.74,3024.86 4041.74,3026.5 4040.58,3026.5 4040.48,3026.36 4039.68,3025.9 4038.78,3025.82 4037.9,3026.1 4037.22,3026.7 4036.84,3027.54 4036.84,3028.46 4037.22,3029.3 4037.9,3029.9 4038.78,3030.18 4039.68,3030.1 4040.48,3029.64 4040.58,3029.5 4041.74,3029.5 4041.74,3031.16 4041.78,3031.46 4041.8,3031.5 4036.2,3031.5 4036.22,3031.46 4036.26,3031.16 4036.26,3024.86 4036.22,3024.56 4036.06,3024.28 4035.84,3024.06 4035.56,3023.9 4035.26,3023.86 4030.14,3023.86 4029.84,3023.9 4029.56,3024.06 4029.34,3024.28 4029.18,3024.56 4029.14,3024.86 4029.14,3026.5 4020.82,3026.5 4020.58,3026.52 4020.36,3026.58 4020.14,3026.66 4019.94,3026.78 4019.76,3026.94 4013.52,3033.18 4013.36,3033.1 4012.14,3032.82 4010.88,3032.9 4009.72,3033.36 4008.74,3034.14 4008.04,3035.18 4007.66,3036.38 4007.66,3037.62 4008.04,3038.82 4008.74,3039.86 4009.72,3040.64 4010.88,3041.1 4012.14,3041.18 4013.36,3040.9 4014.44,3040.28 4015.3,3039.36 4015.5,3038.94 4015.5,3049.38 4012.08,3052.82 4010.88,3052.9 4009.72,3053.36 4008.74,3054.14 4008.04,3055.18 4007.66,3056.38 4007.66,3057.62 4008.04,3058.82 4008.74,3059.86 4009.72,3060.64 4010.88,3061.1 4012.14,3061.18 4013.36,3060.9 4014.44,3060.28 4015.3,3059.36 4015.5,3058.94 4015.5,3059.38 4013.38,3061.5 4011,3061.5 4010.76,3061.52 4010.54,3061.58 4010.32,3061.66 4010.12,3061.78 4009.94,3061.94 4006.94,3064.94 4006.78,3065.12 4006.66,3065.32 4006.58,3065.54 4006.52,3065.76 4006.5,3066 4006.5,3077 4006.52,3077.24 4006.58,3077.46 4006.66,3077.68 4006.78,3077.88 4006.94,3078.06 4013.94,3085.06 4014.12,3085.22 4014.32,3085.34 4014.54,3085.42 4014.76,3085.48 4015,3085.5 4020.44,3085.5 4020.22,3085.7 4019.84,3086.54 4019.84,3087.46 4020.22,3088.3 4020.9,3088.9 4021.78,3089.18 4022.68,3089.1 4023.48,3088.64 4023.58,3088.5 4026,3088.5 4026.24,3088.48 4026.46,3088.42 4026.68,3088.34 4026.88,3088.22 4027.06,3088.06 4033.62,3081.5 4034.18,3081.5 4033.94,3082.04 4033.94,3082.96 4034.32,3083.8 4035,3084.4 4035.88,3084.68 4036.78,3084.6 4037.16,3084.38 4037.14,3084.44 4037.14,3085.36 4037.52,3086.2 4037.8,3086.44 4037.8,3116.3 4037.82,3116.54 4037.88,3116.76 4037.96,3116.98 4038.08,3117.18 4038.24,3117.36 4051.84,3130.96 4051.84,3131.46 4052.22,3132.3 4052.9,3132.9 4053.78,3133.18 4054.68,3133.1 4055.48,3132.64 4056,3131.9 4056.02,3131.84 4056.22,3132.3 4056.9,3132.9 4057.78,3133.18 4058.68,3133.1 4059.48,3132.64 4060,3131.9 4060.02,3131.84 4060.22,3132.3 4060.9,3132.9 4061.78,3133.18 4062.68,3133.1 4063.48,3132.64 4064,3131.9 4064,3132.88 4063.38,3133.5 4050.42,3133.5 4050.5,3133.4 4050.7,3132.5 4050.5,3131.6 4049.98,3130.86 4049.18,3130.4 4048.28,3130.32 4047.4,3130.6 4046.94,3131 4030.5,3131 4030.26,3131.02 4030.04,3131.08 4029.82,3131.16 4029.62,3131.28 4029.44,3131.44 4020.94,3139.94 4020.78,3140.12 4020.66,3140.32 4020.58,3140.54 4020.56,3140.6 4019,3140.6 4018.7,3140.64 4018.42,3140.8 4018.2,3141.02 4018.04,3141.3 4018,3141.6 4017.96,3141.3 4017.8,3141.02 4017.58,3140.8 4017.3,3140.64 4017,3140.6 4011,3140.6 4010.7,3140.64 4010.42,3140.8 4010.2,3141.02 4010.04,3141.3 4010,3141.6 4010,3154.4 4010.02,3154.5 4008,3154.5 4007.7,3154.54 4007.42,3154.7 4007.2,3154.92 4007.04,3155.2 4007,3155.5 4007,3179 4007.04,3179.24 4007.22,3180.6 4007.82,3182.04 4008.78,3183.28 4010.02,3184.24 4011.46,3184.84z" stroke-width="0" layerid="2"/><g c_partid="part_via" c_etype="pinpart" c_shapetype="group" c_origin="4070.5,3116.55" layerid="2"><circle cx="4070.5" cy="3116.55" r="1.22" stroke-width="0"/><circle cx="4070.5" cy="3116.55" r="0.6" stroke-width="0"/></g><g c_partid="part_via" c_etype="pinpart" c_shapetype="group" c_origin="4068,3121.47" layerid="2"><circle cx="4068" cy="3121.47" r="1.22" stroke-width="0"/><circle cx="4068" cy="3121.47" r="0.6" stroke-width="0"/></g><g c_partid="part_via" c_etype="pinpart" c_shapetype="group" c_origin="4065.5,3126.5" layerid="2"><circle cx="4065.5" cy="3126.5" r="1.22" stroke-width="0"/><circle cx="4065.5" cy="3126.5" r="0.6" stroke-width="0"/></g><g c_partid="part_via" c_etype="pinpart" c_shapetype="group" c_origin="4069,3054" layerid="2"><circle cx="4069" cy="3054" r="1.22" stroke-width="0"/><circle cx="4069" cy="3054" r="0.6" stroke-width="0"/></g><g c_partid="part_via" c_etype="pinpart" c_shapetype="group" c_origin="4047,3047" layerid="2"><circle cx="4047" cy="3047" r="1.22" stroke-width="0"/><circle cx="4047" cy="3047" r="0.6" stroke-width="0"/></g><g c_partid="part_via" c_etype="pinpart" c_shapetype="group" c_origin="4025,3084" layerid="2"><circle cx="4025" cy="3084" r="1.22" stroke-width="0"/><circle cx="4025" cy="3084" r="0.6" stroke-width="0"/></g><g c_partid="part_via" c_etype="pinpart" c_shapetype="group" c_origin="4022,3087" layerid="2"><circle cx="4022" cy="3087" r="1.22" stroke-width="0"/><circle cx="4022" cy="3087" r="0.6" stroke-width="0"/></g><g c_partid="part_via" c_etype="pinpart" c_shapetype="group" c_origin="4028,3081" layerid="2"><circle cx="4028" cy="3081" r="1.22" stroke-width="0"/><circle cx="4028" cy="3081" r="0.6" stroke-width="0"/></g><g c_partid="part_via" c_etype="pinpart" c_shapetype="group" c_origin="4039.3,3084.9" layerid="2"><circle cx="4039.3" cy="3084.9" r="1.22" stroke-width="0"/><circle cx="4039.3" cy="3084.9" r="0.6" stroke-width="0"/></g><g c_partid="part_via" c_etype="pinpart" c_shapetype="group" c_origin="4036.1,3082.5" layerid="2"><circle cx="4036.1" cy="3082.5" r="1.22" stroke-width="0"/><circle cx="4036.1" cy="3082.5" r="0.6" stroke-width="0"/></g><g c_partid="part_via" c_etype="pinpart" c_shapetype="group" c_origin="4048.5,3132.5" layerid="2"><circle cx="4048.5" cy="3132.5" r="1.22" stroke-width="0"/><circle cx="4048.5" cy="3132.5" r="0.6" stroke-width="0"/></g><g c_partid="part_via" c_etype="pinpart" c_shapetype="group" c_origin="4039,3028" layerid="2"><circle cx="4039" cy="3028" r="1.22" stroke-width="0"/><circle cx="4039" cy="3028" r="0.6" stroke-width="0"/></g><g c_partid="part_via" c_etype="pinpart" c_shapetype="group" c_origin="4060.5,3083" layerid="2"><circle cx="4060.5" cy="3083" r="1.22" stroke-width="0"/><circle cx="4060.5" cy="3083" r="0.6" stroke-width="0"/></g><g c_partid="part_via" c_etype="pinpart" c_shapetype="group" c_origin="4062,3131" layerid="2"><circle cx="4062" cy="3131" r="1.22" stroke-width="0"/><circle cx="4062" cy="3131" r="0.6" stroke-width="0"/></g><g c_partid="part_via" c_etype="pinpart" c_shapetype="group" c_origin="4058,3131" layerid="2"><circle cx="4058" cy="3131" r="1.22" stroke-width="0"/><circle cx="4058" cy="3131" r="0.6" stroke-width="0"/></g><g c_partid="part_via" c_etype="pinpart" c_shapetype="group" c_origin="4054,3131" layerid="2"><circle cx="4054" cy="3131" r="1.22" stroke-width="0"/><circle cx="4054" cy="3131" r="0.6" stroke-width="0"/></g><g c_partid="part_via" c_etype="pinpart" c_shapetype="group" c_origin="4045.6,3084.9" layerid="2"><circle cx="4045.6" cy="3084.9" r="1.22" stroke-width="0"/><circle cx="4045.6" cy="3084.9" r="0.6" stroke-width="0"/></g><g c_partid="part_via" c_etype="pinpart" c_shapetype="group" c_origin="4074.8,3033.87" layerid="2"><circle cx="4074.8" cy="3033.87" r="2" stroke-width="0"/><circle cx="4074.8" cy="3033.87" r="1.5" stroke-width="0"/></g><g c_partid="part_via" c_etype="pinpart" c_shapetype="group" c_origin="4015.75,3015.75" layerid="2"><circle cx="4015.75" cy="3015.75" r="4.92125" stroke-width="0"/><circle cx="4015.75" cy="3015.75" r="4.92125" stroke-width="0"/></g><g c_partid="part_via" c_etype="pinpart" c_shapetype="group" c_origin="4082.68,3181.1" layerid="2"><circle cx="4082.68" cy="3181.1" r="4.92125" stroke-width="0"/><circle cx="4082.68" cy="3181.1" r="4.92125" stroke-width="0"/></g><g c_partid="part_pad" c_etype="pinpart" c_origin="4081,3017" layerid="8" plated="Y" c_rotation="270" c_width="6" c_height="6" c_shape="ELLIPSE"><ellipse cx="4081" cy="3017" rx="3" ry="3" stroke-width="0"/><circle cx="4081" cy="3017" r="1.8" stroke-width="0"/></g><g c_partid="part_pad" c_etype="pinpart" c_origin="4050,3160" layerid="8" plated="Y" c_rotation="270" c_width="6" c_height="6" c_shape="ELLIPSE"><ellipse cx="4050" cy="3160" rx="3" ry="3" stroke-width="0"/><circle cx="4050" cy="3160" r="1.8" stroke-width="0"/></g><g c_partid="part_pad" c_etype="pinpart" c_origin="4087.5,3074.299" layerid="8" plated="Y" c_rotation="270" c_width="5.1181" c_height="6.2992" c_shape="RECT"><polygon points="4090.65 3076.858 4090.65 3071.74 4084.35 3071.74 4084.35 3076.858" stroke-width="0"/><circle cx="4087.5" cy="3074.299" r="0.001" stroke-width="0"/></g><g c_partid="part_pad" c_etype="pinpart" c_origin="4087.5,3061.701" layerid="8" plated="Y" c_rotation="270" c_width="5.1181" c_height="6.2992" c_shape="RECT"><polygon points="4090.65 3064.26 4090.65 3059.142 4084.35 3059.142 4084.35 3064.26" stroke-width="0"/><circle cx="4087.5" cy="3061.701" r="0.001" stroke-width="0"/></g><g c_partid="part_pad" c_etype="pinpart" c_origin="4087.51,3097.289" layerid="8" plated="Y" c_rotation="270" c_width="5.1181" c_height="6.2992" c_shape="RECT"><polygon points="4090.66 3099.848 4090.66 3094.73 4084.36 3094.73 4084.36 3099.848" stroke-width="0"/><circle cx="4087.51" cy="3097.289" r="0.001" stroke-width="0"/></g><g c_partid="part_pad" c_etype="pinpart" c_origin="4087.51,3084.691" layerid="8" plated="Y" c_rotation="270" c_width="5.1181" c_height="6.2992" c_shape="RECT"><polygon points="4090.66 3087.25 4090.66 3082.132 4084.36 3082.132 4084.36 3087.25" stroke-width="0"/><circle cx="4087.51" cy="3084.691" r="0.001" stroke-width="0"/></g><g c_partid="part_pad" c_etype="pinpart" c_origin="4028.701,3047" layerid="8" plated="Y" c_rotation="180" c_width="5.1181" c_height="6.2992" c_shape="RECT"><polygon points="4026.142 3050.15 4031.26 3050.15 4031.26 3043.85 4026.142 3043.85" stroke-width="0"/><circle cx="4028.701" cy="3047" r="0.001" stroke-width="0"/></g><g c_partid="part_pad" c_etype="pinpart" c_origin="4041.299,3047" layerid="8" plated="Y" c_rotation="180" c_width="5.1181" c_height="6.2992" c_shape="RECT"><polygon points="4038.74 3050.15 4043.858 3050.15 4043.858 3043.85 4038.74 3043.85" stroke-width="0"/><circle cx="4041.299" cy="3047" r="0.001" stroke-width="0"/></g><g c_partid="part_pad" c_etype="pinpart" c_origin="4073.299,3053" layerid="8" plated="Y" c_rotation="0" c_width="5.1181" c_height="6.2992" c_shape="RECT"><polygon points="4075.858 3049.85 4070.74 3049.85 4070.74 3056.15 4075.858 3056.15" stroke-width="0"/><circle cx="4073.299" cy="3053" r="0.001" stroke-width="0"/></g><g c_partid="part_pad" c_etype="pinpart" c_origin="4060.701,3053" layerid="8" plated="Y" c_rotation="0" c_width="5.1181" c_height="6.2992" c_shape="RECT"><polygon points="4063.26 3049.85 4058.142 3049.85 4058.142 3056.15 4063.26 3056.15" stroke-width="0"/><circle cx="4060.701" cy="3053" r="0.001" stroke-width="0"/></g><g c_partid="part_pad" c_etype="pinpart" c_origin="4045.299,3028" layerid="8" plated="Y" c_rotation="0" c_width="5.1181" c_height="6.2992" c_shape="RECT"><polygon points="4047.858 3024.85 4042.74 3024.85 4042.74 3031.15 4047.858 3031.15" stroke-width="0"/><circle cx="4045.299" cy="3028" r="0.001" stroke-width="0"/></g><g c_partid="part_pad" c_etype="pinpart" c_origin="4032.701,3028" layerid="8" plated="Y" c_rotation="0" c_width="5.1181" c_height="6.2992" c_shape="RECT"><polygon points="4035.26 3024.85 4030.142 3024.85 4030.142 3031.15 4035.26 3031.15" stroke-width="0"/><circle cx="4032.701" cy="3028" r="0.001" stroke-width="0"/></g><g c_partid="part_pad" c_etype="pinpart" c_origin="4060.701,3043" layerid="8" plated="Y" c_rotation="180" c_width="5.1181" c_height="6.2992" c_shape="RECT"><polygon points="4058.142 3046.15 4063.26 3046.15 4063.26 3039.85 4058.142 3039.85" stroke-width="0"/><circle cx="4060.701" cy="3043" r="0.001" stroke-width="0"/></g><g c_partid="part_pad" c_etype="pinpart" c_origin="4073.299,3043" layerid="8" plated="Y" c_rotation="180" c_width="5.1181" c_height="6.2992" c_shape="RECT"><polygon points="4070.74 3046.15 4075.858 3046.15 4075.858 3039.85 4070.74 3039.85" stroke-width="0"/><circle cx="4073.299" cy="3043" r="0.001" stroke-width="0"/></g><g c_partid="part_pad" c_etype="pinpart" c_origin="4014,3072" layerid="8" plated="Y" c_rotation="90" c_width="12.8" c_height="6" c_shape="RECT"><polygon points="4011 3065.6 4011 3078.4 4017 3078.4 4017 3065.6" stroke-width="0"/><circle cx="4014" cy="3072" r="0.001" stroke-width="0"/></g><g c_partid="part_pad" c_etype="pinpart" c_origin="4022,3072" layerid="8" plated="Y" c_rotation="90" c_width="12.8" c_height="6" c_shape="RECT"><polygon points="4019 3065.6 4019 3078.4 4025 3078.4 4025 3065.6" stroke-width="0"/><circle cx="4022" cy="3072" r="0.001" stroke-width="0"/></g><g c_partid="part_pad" c_etype="pinpart" c_origin="4030,3072" layerid="8" plated="Y" c_rotation="90" c_width="12.8" c_height="6" c_shape="RECT"><polygon points="4027 3065.6 4027 3078.4 4033 3078.4 4033 3065.6" stroke-width="0"/><circle cx="4030" cy="3072" r="0.001" stroke-width="0"/></g><g c_partid="part_pad" c_etype="pinpart" c_origin="4038,3072" layerid="8" plated="Y" c_rotation="90" c_width="12.8" c_height="6" c_shape="RECT"><polygon points="4035 3065.6 4035 3078.4 4041 3078.4 4041 3065.6" stroke-width="0"/><circle cx="4038" cy="3072" r="0.001" stroke-width="0"/></g><g c_partid="part_pad" c_etype="pinpart" c_origin="4046,3072" layerid="8" plated="Y" c_rotation="90" c_width="12.8" c_height="6" c_shape="RECT"><polygon points="4043 3065.6 4043 3078.4 4049 3078.4 4049 3065.6" stroke-width="0"/><circle cx="4046" cy="3072" r="0.001" stroke-width="0"/></g><g c_partid="part_pad" c_etype="pinpart" c_origin="4054,3072" layerid="8" plated="Y" c_rotation="90" c_width="12.8" c_height="6" c_shape="RECT"><polygon points="4051 3065.6 4051 3078.4 4057 3078.4 4057 3065.6" stroke-width="0"/><circle cx="4054" cy="3072" r="0.001" stroke-width="0"/></g><g c_partid="part_pad" c_etype="pinpart" c_origin="4062,3072" layerid="8" plated="Y" c_rotation="90" c_width="12.8" c_height="6" c_shape="RECT"><polygon points="4059 3065.6 4059 3078.4 4065 3078.4 4065 3065.6" stroke-width="0"/><circle cx="4062" cy="3072" r="0.001" stroke-width="0"/></g><g c_partid="part_pad" c_etype="pinpart" c_origin="4070,3072" layerid="8" plated="Y" c_rotation="90" c_width="12.8" c_height="6" c_shape="RECT"><polygon points="4067 3065.6 4067 3078.4 4073 3078.4 4073 3065.6" stroke-width="0"/><circle cx="4070" cy="3072" r="0.001" stroke-width="0"/></g><g c_partid="part_pad" c_etype="pinpart" c_origin="4070,3148" layerid="8" plated="Y" c_rotation="270" c_width="12.8" c_height="6" c_shape="RECT"><polygon points="4073 3154.4 4073 3141.6 4067 3141.6 4067 3154.4" stroke-width="0"/><circle cx="4070" cy="3148" r="0.001" stroke-width="0"/></g><g c_partid="part_pad" c_etype="pinpart" c_origin="4062,3148" layerid="8" plated="Y" c_rotation="270" c_width="12.8" c_height="6" c_shape="RECT"><polygon points="4065 3154.4 4065 3141.6 4059 3141.6 4059 3154.4" stroke-width="0"/><circle cx="4062" cy="3148" r="0.001" stroke-width="0"/></g><g c_partid="part_pad" c_etype="pinpart" c_origin="4054,3148" layerid="8" plated="Y" c_rotation="270" c_width="12.8" c_height="6" c_shape="RECT"><polygon points="4057 3154.4 4057 3141.6 4051 3141.6 4051 3154.4" stroke-width="0"/><circle cx="4054" cy="3148" r="0.001" stroke-width="0"/></g><g c_partid="part_pad" c_etype="pinpart" c_origin="4046,3148" layerid="8" plated="Y" c_rotation="270" c_width="12.8" c_height="6" c_shape="RECT"><polygon points="4049 3154.4 4049 3141.6 4043 3141.6 4043 3154.4" stroke-width="0"/><circle cx="4046" cy="3148" r="0.001" stroke-width="0"/></g><g c_partid="part_pad" c_etype="pinpart" c_origin="4038,3148" layerid="8" plated="Y" c_rotation="270" c_width="12.8" c_height="6" c_shape="RECT"><polygon points="4041 3154.4 4041 3141.6 4035 3141.6 4035 3154.4" stroke-width="0"/><circle cx="4038" cy="3148" r="0.001" stroke-width="0"/></g><g c_partid="part_pad" c_etype="pinpart" c_origin="4030,3148" layerid="8" plated="Y" c_rotation="270" c_width="12.8" c_height="6" c_shape="RECT"><polygon points="4033 3154.4 4033 3141.6 4027 3141.6 4027 3154.4" stroke-width="0"/><circle cx="4030" cy="3148" r="0.001" stroke-width="0"/></g><g c_partid="part_pad" c_etype="pinpart" c_origin="4022,3148" layerid="8" plated="Y" c_rotation="270" c_width="12.8" c_height="6" c_shape="RECT"><polygon points="4025 3154.4 4025 3141.6 4019 3141.6 4019 3154.4" stroke-width="0"/><circle cx="4022" cy="3148" r="0.001" stroke-width="0"/></g><g c_partid="part_pad" c_etype="pinpart" c_origin="4014,3148" layerid="8" plated="Y" c_rotation="270" c_width="12.8" c_height="6" c_shape="RECT"><polygon points="4017 3154.4 4017 3141.6 4011 3141.6 4011 3154.4" stroke-width="0"/><circle cx="4014" cy="3148" r="0.001" stroke-width="0"/></g><g c_partid="part_pad" c_etype="pinpart" c_origin="4013.01,3179.03" layerid="8" plated="Y" c_rotation="0" c_width="7.4" c_height="7.4" c_shape="ELLIPSE"><ellipse cx="4013.01" cy="3179.03" rx="3.7" ry="3.7" stroke-width="0"/><circle cx="4013.01" cy="3179.03" r="2" stroke-width="0"/></g><g c_partid="part_pad" c_etype="pinpart" c_origin="4032.69,3179" layerid="8" plated="Y" c_rotation="0" c_width="7.4" c_height="7.4" c_shape="ELLIPSE"><ellipse cx="4032.69" cy="3179" rx="3.7" ry="3.7" stroke-width="0"/><circle cx="4032.69" cy="3179" r="2" stroke-width="0"/></g><g c_partid="part_pad" c_etype="pinpart" c_origin="4062.99,3016.97" layerid="8" plated="Y" c_rotation="180" c_width="7.4" c_height="7.4" c_shape="ELLIPSE"><ellipse cx="4062.99" cy="3016.97" rx="3.7" ry="3.7" stroke-width="0"/><circle cx="4062.99" cy="3016.97" r="2" stroke-width="0"/></g><g c_partid="part_pad" c_etype="pinpart" c_origin="4043.31,3017" layerid="8" plated="Y" c_rotation="180" c_width="7.4" c_height="7.4" c_shape="ELLIPSE"><ellipse cx="4043.31" cy="3017" rx="3.7" ry="3.7" stroke-width="0"/><circle cx="4043.31" cy="3017" r="2" stroke-width="0"/></g><g c_partid="part_pad" c_etype="pinpart" c_origin="4062,3161.5" layerid="8" plated="Y" c_rotation="0" c_width="6.4" c_height="10" c_shape="OVAL"><polyline points="4062 3159.7 4062 3163.3" stroke-width="6.4"/><circle cx="4062" cy="3161.5" r="2" stroke-width="0"/></g><g c_partid="part_pad" c_etype="pinpart" c_origin="4022.63,3038.1" layerid="8" plated="Y" c_rotation="0" c_width="7.4" c_height="7.4" c_shape="ELLIPSE"><ellipse cx="4022.63" cy="3038.1" rx="3.7" ry="3.7" stroke-width="0"/><circle cx="4022.63" cy="3038.1" r="2" stroke-width="0"/></g><g c_partid="part_pad" c_etype="pinpart" c_origin="4048.23,3038.1" layerid="8" plated="Y" c_rotation="0" c_width="7.4" c_height="7.4" c_shape="ELLIPSE"><ellipse cx="4048.23" cy="3038.1" rx="3.7" ry="3.7" stroke-width="0"/><circle cx="4048.23" cy="3038.1" r="2" stroke-width="0"/></g><g c_partid="part_pad" c_etype="pinpart" c_origin="4022.63,3055.9" layerid="8" plated="Y" c_rotation="0" c_width="7.4" c_height="7.4" c_shape="ELLIPSE"><ellipse cx="4022.63" cy="3055.9" rx="3.7" ry="3.7" stroke-width="0"/><circle cx="4022.63" cy="3055.9" r="2" stroke-width="0"/></g><g c_partid="part_pad" c_etype="pinpart" c_origin="4048.23,3055.9" layerid="8" plated="Y" c_rotation="0" c_width="7.4" c_height="7.4" c_shape="ELLIPSE"><ellipse cx="4048.23" cy="3055.9" rx="3.7" ry="3.7" stroke-width="0"/><circle cx="4048.23" cy="3055.9" r="2" stroke-width="0"/></g><g c_partid="part_pad" c_etype="pinpart" c_origin="4011.81,3047" layerid="8" plated="Y" c_rotation="0" c_width="6.4" c_height="6.4" c_shape="ELLIPSE"><ellipse cx="4011.81" cy="3047" rx="3.2" ry="3.2" stroke-width="0"/><circle cx="4011.81" cy="3047" r="1.8" stroke-width="0"/></g><g c_partid="part_pad" c_etype="pinpart" c_origin="4011.81,3037" layerid="8" plated="Y" c_rotation="0" c_width="6.4" c_height="6.4" c_shape="ELLIPSE"><ellipse cx="4011.81" cy="3037" rx="3.2" ry="3.2" stroke-width="0"/><circle cx="4011.81" cy="3037" r="1.8" stroke-width="0"/></g><g c_partid="part_pad" c_etype="pinpart" c_origin="4011.81,3057" layerid="8" plated="Y" c_rotation="0" c_width="6.4" c_height="6.4" c_shape="ELLIPSE"><ellipse cx="4011.81" cy="3057" rx="3.2" ry="3.2" stroke-width="0"/><circle cx="4011.81" cy="3057" r="1.8" stroke-width="0"/></g><g c_partid="part_pad" c_etype="pinpart" c_origin="4078,3063" layerid="8" plated="Y" c_rotation="270" c_width="6" c_height="6" c_shape="RECT"><polygon points="4081 3060 4081 3066 4075 3066 4075 3060" stroke-width="0"/><circle cx="4078" cy="3063" r="1.8" stroke-width="0"/></g><g c_partid="part_pad" c_etype="pinpart" c_origin="4078,3072.84" layerid="8" plated="Y" c_rotation="270" c_width="6" c_height="6" c_shape="ELLIPSE"><ellipse cx="4078" cy="3072.84" rx="3" ry="3" stroke-width="0"/><circle cx="4078" cy="3072.84" r="1.8" stroke-width="0"/></g><g c_partid="part_pad" c_etype="pinpart" c_origin="4078,3082.69" layerid="8" plated="Y" c_rotation="270" c_width="6" c_height="6" c_shape="ELLIPSE"><ellipse cx="4078" cy="3082.69" rx="3" ry="3" stroke-width="0"/><circle cx="4078" cy="3082.69" r="1.8" stroke-width="0"/></g><g c_partid="part_pad" c_etype="pinpart" c_origin="4078,3092.53" layerid="8" plated="Y" c_rotation="270" c_width="6" c_height="6" c_shape="ELLIPSE"><ellipse cx="4078" cy="3092.53" rx="3" ry="3" stroke-width="0"/><circle cx="4078" cy="3092.53" r="1.8" stroke-width="0"/></g><g c_partid="part_pad" c_etype="pinpart" c_origin="4022,3163.46" layerid="8" plated="Y" c_rotation="90" c_width="5.9055" c_height="19.685" c_shape="OVAL"><polyline points="4015.11 3163.46 4028.89 3163.46" stroke-width="5.9055"/><polyline points="4026.921 3163.46 4017.079 3163.46" stroke-width="3.937"/></g><g c_partid="part_pad" c_etype="pinpart" c_origin="4022,3186.67" layerid="8" plated="Y" c_rotation="90" c_width="5.9055" c_height="13.779" c_shape="OVAL"><polyline points="4018.063 3186.67 4025.937 3186.67" stroke-width="5.9055"/><polyline points="4025.937 3186.67 4018.063 3186.67" stroke-width="3.937"/></g><g c_partid="part_pad" c_etype="pinpart" c_origin="4040.5,3174.5" layerid="8" plated="Y" c_rotation="180" c_width="5.9055" c_height="11.811" c_shape="OVAL"><polyline points="4040.5 3177.453 4040.5 3171.547" stroke-width="5.9055"/><polyline points="4040.5 3172.531 4040.5 3176.468" stroke-width="3.937"/></g><polyline points="4091.6 3070.8 4091.6 3077.8 4083.4 3077.8 4083.4 3070.8" stroke-width="1" c_shapetype="line" stroke-linecap="round" fill="none" layerid="4"/><polyline points="4083.4 3065.2 4083.4 3058.2 4091.6 3058.2 4091.6 3065.2" stroke-width="1" c_shapetype="line" stroke-linecap="round" fill="none" layerid="4"/><polyline points="4091.61 3093.79 4091.61 3100.79 4083.41 3100.79 4083.41 3093.79" stroke-width="1" c_shapetype="line" stroke-linecap="round" fill="none" layerid="4"/><polyline points="4083.41 3088.19 4083.41 3081.19 4091.61 3081.19 4091.61 3088.19" stroke-width="1" c_shapetype="line" stroke-linecap="round" fill="none" layerid="4"/><polyline points="4032.2 3051.1 4025.2 3051.1 4025.2 3042.9 4032.2 3042.9" stroke-width="1" c_shapetype="line" stroke-linecap="round" fill="none" layerid="4"/><polyline points="4037.8 3042.9 4044.8 3042.9 4044.8 3051.1 4037.8 3051.1" stroke-width="1" c_shapetype="line" stroke-linecap="round" fill="none" layerid="4"/><polyline points="4069.8 3048.9 4076.8 3048.9 4076.8 3057.1 4069.8 3057.1" stroke-width="1" c_shapetype="line" stroke-linecap="round" fill="none" layerid="4"/><polyline points="4064.2 3057.1 4057.2 3057.1 4057.2 3048.9 4064.2 3048.9" stroke-width="1" c_shapetype="line" stroke-linecap="round" fill="none" layerid="4"/><polyline points="4041.8 3023.9 4048.8 3023.9 4048.8 3032.1 4041.8 3032.1" stroke-width="1" c_shapetype="line" stroke-linecap="round" fill="none" layerid="4"/><polyline points="4036.2 3032.1 4029.2 3032.1 4029.2 3023.9 4036.2 3023.9" stroke-width="1" c_shapetype="line" stroke-linecap="round" fill="none" layerid="4"/><polyline points="4064.2 3047.1 4057.2 3047.1 4057.2 3038.9 4064.2 3038.9" stroke-width="1" c_shapetype="line" stroke-linecap="round" fill="none" layerid="4"/><polyline points="4069.8 3038.9 4076.8 3038.9 4076.8 3047.1 4069.8 3047.1" stroke-width="1" c_shapetype="line" stroke-linecap="round" fill="none" layerid="4"/><polyline points="4010 3080.5 4010 3139.5" stroke-width="1.524" c_shapetype="line" stroke-linecap="round" fill="none" layerid="4"/><polyline points="4074 3139.5 4074 3108.26 4074 3080.5" stroke-width="1.524" c_shapetype="line" stroke-linecap="round" fill="none" layerid="4"/><polyline points="4064.5 3087.5 4049.5 3087.5 4049.5 3102.5 4064.5 3102.5 4064.5 3087.5 4064.5 3087.5" stroke-width="1" c_shapetype="line" stroke-linecap="round" fill="none" layerid="4"/><g c_partid="part_pcbtext" c_origin="4086.79,3114" c_rotation="90" c_mirror="1" layerid="4" c_shapetype="group"><path c_fontSize="5.1181" c_fontFamily="" c_text="thdev.org" d="M 4084 3114.6979 L 4087.9549 3114.6979 L 4088.6528 3114.9305 L 4088.8855 3115.3958 L 4088.8855 3115.8611 M 4085.6285 3114 L 4085.6285 3115.6285 M 4084 3117.3965 L 4088.8855 3117.3965 M 4086.5591 3117.3965 L 4085.8611 3118.0945 L 4085.6285 3118.5597 L 4085.6285 3119.2577 L 4085.8611 3119.723 L 4086.5591 3119.9556 L 4088.8855 3119.9556 M 4084 3124.2827 L 4088.8855 3124.2827 M 4086.3264 3124.2827 L 4085.8611 3123.8174 L 4085.6285 3123.3521 L 4085.6285 3122.6542 L 4085.8611 3122.1889 L 4086.3264 3121.7237 L 4087.0243 3121.491 L 4087.4896 3121.491 L 4088.1875 3121.7237 L 4088.6528 3122.1889 L 4088.8855 3122.6542 L 4088.8855 3123.3521 L 4088.6528 3123.8174 L 4088.1875 3124.2827 M 4087.0243 3125.8181 L 4087.0243 3128.6098 L 4086.5591 3128.6098 L 4086.0938 3128.3772 L 4085.8611 3128.1446 L 4085.6285 3127.6793 L 4085.6285 3126.9813 L 4085.8611 3126.5161 L 4086.3264 3126.0508 L 4087.0243 3125.8181 L 4087.4896 3125.8181 L 4088.1875 3126.0508 L 4088.6528 3126.5161 L 4088.8855 3126.9813 L 4088.8855 3127.6793 L 4088.6528 3128.1446 L 4088.1875 3128.6098 M 4085.6285 3130.1453 L 4088.8855 3131.5411 M 4085.6285 3132.937 L 4088.8855 3131.5411 M 4087.7223 3134.705 L 4087.9549 3134.4724 L 4088.1875 3134.705 L 4087.9549 3134.9377 L 4087.7223 3134.705 M 4085.6285 3137.6363 L 4085.8611 3137.171 L 4086.3264 3136.7057 L 4087.0243 3136.4731 L 4087.4896 3136.4731 L 4088.1875 3136.7057 L 4088.6528 3137.171 L 4088.8855 3137.6363 L 4088.8855 3138.3342 L 4088.6528 3138.7995 L 4088.1875 3139.2648 L 4087.4896 3139.4974 L 4087.0243 3139.4974 L 4086.3264 3139.2648 L 4085.8611 3138.7995 L 4085.6285 3138.3342 L 4085.6285 3137.6363 M 4085.6285 3141.0329 L 4088.8855 3141.0329 M 4087.0243 3141.0329 L 4086.3264 3141.2655 L 4085.8611 3141.7308 L 4085.6285 3142.1961 L 4085.6285 3142.894 M 4085.6285 3147.2211 L 4089.3507 3147.2211 L 4090.0487 3146.9885 L 4090.2813 3146.7558 L 4090.514 3146.2905 L 4090.514 3145.5926 L 4090.2813 3145.1273 M 4086.3264 3147.2211 L 4085.8611 3146.7558 L 4085.6285 3146.2905 L 4085.6285 3145.5926 L 4085.8611 3145.1273 L 4086.3264 3144.6621 L 4087.0243 3144.4294 L 4087.4896 3144.4294 L 4088.1875 3144.6621 L 4088.6528 3145.1273 L 4088.8855 3145.5926 L 4088.8855 3146.2905 L 4088.6528 3146.7558 L 4088.1875 3147.2211" fill="none" stroke-width="0.8"/></g><g c_partid="part_pcbtext" c_origin="4062.45,3168.99" c_rotation="90" c_mirror="1" layerid="4" c_shapetype="group"><path c_fontSize="4.5" c_fontFamily="" c_text="ANT" d="M 4060.0002 3170.6399 L 4064.2902 3168.9999 M 4060.0002 3170.6399 L 4064.2902 3172.2699 M 4062.8602 3169.6099 L 4062.8602 3171.6599 M 4060.0002 3173.6199 L 4064.2902 3173.6199 M 4060.0002 3173.6199 L 4064.2902 3176.4899 M 4060.0002 3176.4899 L 4064.2902 3176.4899 M 4060.0002 3179.2699 L 4064.2902 3179.2699 M 4060.0002 3177.8399 L 4060.0002 3180.6999" fill="none" stroke-width="0.7" c_note="note_pre"/></g><g c_partid="part_pcbtext" c_origin="4090.44,3050.01" c_rotation="90" c_mirror="" layerid="4" c_shapetype="group"><path c_fontSize="4.5" c_fontFamily="" c_text="R6" d="M 4087.9998 3049.9999 L 4092.2898 3049.9999 M 4087.9998 3049.9999 L 4087.9998 3051.8399 L 4088.1998 3052.4499 L 4088.3998 3052.6599 L 4088.8098 3052.8599 L 4089.2198 3052.8599 L 4089.6298 3052.6599 L 4089.8398 3052.4499 L 4090.0398 3051.8399 L 4090.0398 3049.9999 M 4090.0398 3051.4299 L 4092.2898 3052.8599 M 4088.6098 3056.6699 L 4088.1998 3056.4599 L 4087.9998 3055.8499 L 4087.9998 3055.4399 L 4088.1998 3054.8299 L 4088.8098 3054.4199 L 4089.8398 3054.2099 L 4090.8598 3054.2099 L 4091.6798 3054.4199 L 4092.0898 3054.8299 L 4092.2898 3055.4399 L 4092.2898 3055.6499 L 4092.0898 3056.2599 L 4091.6798 3056.6699 L 4091.0598 3056.8699 L 4090.8598 3056.8699 L 4090.2498 3056.6699 L 4089.8398 3056.2599 L 4089.6298 3055.6499 L 4089.6298 3055.4399 L 4089.8398 3054.8299 L 4090.2498 3054.4199 L 4090.8598 3054.2099" fill="none" stroke-width="0.7" c_note="note_pre"/></g><g c_partid="part_pcbtext" c_origin="4088.08,3102.45" c_rotation="90" c_mirror="" layerid="4" c_shapetype="group"><path c_fontSize="4.5" c_fontFamily="" c_text="R7" d="M 4085.6301 3102.45 L 4089.9201 3102.45 M 4085.6301 3102.45 L 4085.6301 3104.29 L 4085.8301 3104.9 L 4086.0301 3105.11 L 4086.4401 3105.31 L 4086.8501 3105.31 L 4087.2601 3105.11 L 4087.4701 3104.9 L 4087.6701 3104.29 L 4087.6701 3102.45 M 4087.6701 3103.88 L 4089.9201 3105.31 M 4085.6301 3109.53 L 4089.9201 3107.48 M 4085.6301 3106.66 L 4085.6301 3109.53" fill="none" stroke-width="0.7" c_note="note_pre"/></g><g c_partid="part_pcbtext" c_origin="4054.1,3047.46" c_rotation="0" c_mirror="" layerid="4" c_shapetype="group"><path c_fontSize="4.5" c_fontFamily="" c_text="R3" d="M 4054.0801 3045 L 4054.0801 3049.29 M 4054.0801 3045 L 4052.2401 3045 L 4051.6301 3045.2 L 4051.4201 3045.4 L 4051.2201 3045.81 L 4051.2201 3046.22 L 4051.4201 3046.63 L 4051.6301 3046.84 L 4052.2401 3047.04 L 4054.0801 3047.04 M 4052.6501 3047.04 L 4051.2201 3049.29 M 4049.4601 3045 L 4047.2101 3045 L 4048.4301 3046.63 L 4047.8201 3046.63 L 4047.4101 3046.84 L 4047.2101 3047.04 L 4047.0001 3047.65 L 4047.0001 3048.06 L 4047.2101 3048.68 L 4047.6201 3049.09 L 4048.2301 3049.29 L 4048.8401 3049.29 L 4049.4601 3049.09 L 4049.6601 3048.88 L 4049.8701 3048.47" fill="none" stroke-width="0.7" c_note="note_pre"/></g><g c_partid="part_pcbtext" c_origin="4085.58,3052.95" c_rotation="0" c_mirror="" layerid="4" c_shapetype="group"><path c_fontSize="4.5" c_fontFamily="" c_text="R2" d="M 4085.58 3050.5001 L 4085.58 3054.7901 M 4085.58 3050.5001 L 4083.74 3050.5001 L 4083.13 3050.7001 L 4082.92 3050.9001 L 4082.72 3051.3101 L 4082.72 3051.7201 L 4082.92 3052.1301 L 4083.13 3052.3401 L 4083.74 3052.5401 L 4085.58 3052.5401 M 4084.15 3052.5401 L 4082.72 3054.7901 M 4081.16 3051.5201 L 4081.16 3051.3101 L 4080.96 3050.9001 L 4080.75 3050.7001 L 4080.34 3050.5001 L 4079.53 3050.5001 L 4079.12 3050.7001 L 4078.91 3050.9001 L 4078.71 3051.3101 L 4078.71 3051.7201 L 4078.91 3052.1301 L 4079.32 3052.7501 L 4081.37 3054.7901 L 4078.5 3054.7901" fill="none" stroke-width="0.7" c_note="note_pre"/></g><g c_partid="part_pcbtext" c_origin="4057.79,3027.95" c_rotation="0" c_mirror="" layerid="4" c_shapetype="group"><path c_fontSize="4.5" c_fontFamily="" c_text="R4" d="M 4057.78 3025.5 L 4057.78 3029.79 M 4057.78 3025.5 L 4055.94 3025.5 L 4055.33 3025.7 L 4055.12 3025.9 L 4054.92 3026.31 L 4054.92 3026.72 L 4055.12 3027.13 L 4055.33 3027.34 L 4055.94 3027.54 L 4057.78 3027.54 M 4056.35 3027.54 L 4054.92 3029.79 M 4051.52 3025.5 L 4053.57 3028.36 L 4050.5 3028.36 M 4051.52 3025.5 L 4051.52 3029.79" fill="none" stroke-width="0.7" c_note="note_pre"/></g><g c_partid="part_pcbtext" c_origin="4086.08,3043.46" c_rotation="0" c_mirror="" layerid="4" c_shapetype="group"><path c_fontSize="4.5" c_fontFamily="" c_text="R5" d="M 4086.0801 3041 L 4086.0801 3045.29 M 4086.0801 3041 L 4084.2401 3041 L 4083.6301 3041.2 L 4083.4201 3041.4 L 4083.2201 3041.81 L 4083.2201 3042.22 L 4083.4201 3042.63 L 4083.6301 3042.84 L 4084.2401 3043.04 L 4086.0801 3043.04 M 4084.6501 3043.04 L 4083.2201 3045.29 M 4079.4101 3041 L 4081.4601 3041 L 4081.6601 3042.84 L 4081.4601 3042.63 L 4080.8401 3042.43 L 4080.2301 3042.43 L 4079.6201 3042.63 L 4079.2101 3043.04 L 4079.0001 3043.65 L 4079.0001 3044.06 L 4079.2101 3044.68 L 4079.6201 3045.09 L 4080.2301 3045.29 L 4080.8401 3045.29 L 4081.4601 3045.09 L 4081.6601 3044.88 L 4081.8701 3044.47" fill="none" stroke-width="0.7" c_note="note_pre"/></g><g c_partid="part_pcbtext" c_origin="4005.45,3106" c_rotation="90" c_mirror="" layerid="4" c_shapetype="group"><path c_fontSize="4.5" c_fontFamily="" c_text="U2" d="M 4003 3106 L 4006.06 3106 L 4006.68 3106.2 L 4007.09 3106.61 L 4007.29 3107.23 L 4007.29 3107.64 L 4007.09 3108.25 L 4006.68 3108.66 L 4006.06 3108.86 L 4003 3108.86 M 4004.02 3110.42 L 4003.81 3110.42 L 4003.4 3110.62 L 4003.2 3110.83 L 4003 3111.24 L 4003 3112.05 L 4003.2 3112.46 L 4003.4 3112.67 L 4003.81 3112.87 L 4004.22 3112.87 L 4004.63 3112.67 L 4005.25 3112.26 L 4007.29 3110.21 L 4007.29 3113.08" fill="none" stroke-width="0.7" c_note="note_pre"/></g><g c_partid="part_pcbtext" c_origin="4004.77,3075" c_rotation="90" c_mirror="" layerid="4" c_shapetype="group"><path c_fontSize="15" c_fontFamily="" c_text="." d="M 4007.5 3075.68 L 4008.18 3075 L 4008.86 3075.68 L 4008.18 3076.36 L 4007.5 3075.68" fill="none" stroke-width="0.8"/></g><g layerid="4" c_partid="part_svg" c_shapetype="group" layer_front="0" layer_show="1"><path d="M 4085.304 3024.629 C 4085.174 3024.649 4085.034 3024.719 4084.994 3024.789 C 4084.964 3024.859 4084.874 3025.279 4084.794 3025.729 L 4084.654 3026.529 L 4084.344 3026.619 C 4084.174 3026.669 4083.874 3026.799 4083.674 3026.899 C 4083.474 3026.999 4083.274 3027.059 4083.224 3027.029 C 4083.174 3026.999 4082.834 3026.759 4082.464 3026.499 C 4081.914 3026.109 4081.764 3026.029 4081.654 3026.099 C 4081.404 3026.229 4080.524 3027.159 4080.524 3027.289 C 4080.524 3027.359 4080.744 3027.729 4081.004 3028.119 L 4081.494 3028.829 L 4081.274 3029.249 C 4081.144 3029.479 4081.014 3029.809 4080.964 3029.989 L 4080.884 3030.299 L 4080.034 3030.439 C 4079.564 3030.509 4079.144 3030.599 4079.094 3030.629 C 4078.974 3030.699 4078.944 3032.269 4079.054 3032.379 C 4079.094 3032.419 4079.494 3032.519 4079.944 3032.599 C 4080.404 3032.679 4080.794 3032.769 4080.824 3032.809 C 4080.854 3032.839 4080.954 3033.089 4081.044 3033.359 C 4081.144 3033.629 4081.284 3033.959 4081.364 3034.089 L 4081.504 3034.329 L 4080.974 3035.059 C 4080.684 3035.469 4080.444 3035.829 4080.444 3035.859 C 4080.444 3035.969 4081.574 3037.069 4081.674 3037.059 C 4081.724 3037.059 4082.084 3036.839 4082.484 3036.569 L 4083.184 3036.089 L 4083.464 3036.209 C 4083.884 3036.389 4084.154 3036.479 4084.184 3036.449 C 4084.194 3036.429 4084.454 3035.729 4084.754 3034.879 C 4085.164 3033.699 4085.274 3033.319 4085.194 3033.269 C 4084.474 3032.859 4084.074 3032.249 4084.084 3031.549 C 4084.084 3030.829 4084.464 3030.189 4085.104 3029.849 C 4085.524 3029.629 4086.344 3029.629 4086.774 3029.859 C 4087.134 3030.049 4087.534 3030.479 4087.684 3030.829 C 4087.844 3031.229 4087.814 3031.899 4087.604 3032.339 C 4087.444 3032.689 4087.344 3032.799 4086.814 3033.199 L 4086.634 3033.329 L 4087.144 3034.649 C 4087.424 3035.369 4087.694 3036.079 4087.754 3036.209 L 4087.854 3036.459 L 4088.144 3036.329 C 4088.304 3036.259 4088.524 3036.139 4088.634 3036.059 L 4088.844 3035.919 L 4089.534 3036.429 C 4090.374 3037.039 4090.404 3037.039 4091.094 3036.249 C 4091.644 3035.619 4091.654 3035.749 4090.954 3034.739 L 4090.494 3034.089 L 4090.684 3033.669 C 4090.794 3033.439 4090.914 3033.099 4090.954 3032.929 C 4091.054 3032.579 4091.024 3032.589 4092.034 3032.449 C 4092.404 3032.389 4092.744 3032.319 4092.794 3032.289 C 4092.914 3032.219 4092.914 3030.799 4092.784 3030.569 C 4092.724 3030.459 4092.544 3030.399 4091.974 3030.299 C 4090.954 3030.119 4090.884 3030.099 4090.884 3029.999 C 4090.884 3029.959 4090.764 3029.659 4090.614 3029.339 L 4090.344 3028.759 L 4090.844 3028.079 C 4091.114 3027.699 4091.344 3027.339 4091.344 3027.279 C 4091.344 3027.129 4090.224 3026.019 4090.074 3026.019 C 4090.014 3026.019 4089.634 3026.239 4089.234 3026.519 C 4088.534 3026.989 4088.494 3027.009 4088.274 3026.929 C 4088.154 3026.869 4087.864 3026.759 4087.634 3026.679 C 4087.404 3026.589 4087.204 3026.509 4087.194 3026.509 C 4087.184 3026.499 4087.114 3026.109 4087.044 3025.649 C 4086.964 3025.179 4086.874 3024.769 4086.834 3024.739 C 4086.754 3024.659 4085.664 3024.589 4085.304 3024.629" stroke="none"/></g><g layerid="4" c_partid="part_svg" c_shapetype="group" layer_front="0" layer_show="1"><path d="M 4072.502 3161.934 C 4072.872 3162.844 4073.582 3164.664 4074.092 3165.974 C 4074.602 3167.284 4075.082 3168.494 4075.162 3168.684 L 4075.302 3169.014 L 4075.472 3168.644 C 4075.562 3168.434 4075.822 3167.894 4076.032 3167.434 C 4076.512 3166.424 4078.402 3162.344 4078.952 3161.144 C 4079.322 3160.334 4079.342 3160.264 4079.242 3159.994 C 4079.192 3159.834 4078.412 3158.134 4077.512 3156.194 C 4076.622 3154.264 4075.762 3152.404 4075.602 3152.064 C 4075.452 3151.724 4075.302 3151.464 4075.292 3151.484 C 4075.232 3151.534 4071.952 3159.874 4071.862 3160.184 C 4071.852 3160.224 4072.142 3161.014 4072.502 3161.934 M 4082.802 3170.204 L 4088.782 3170.184 L 4089.432 3168.974 C 4089.792 3168.314 4090.582 3166.824 4091.192 3165.684 C 4092.752 3162.764 4092.882 3162.504 4093.252 3161.834 C 4093.432 3161.514 4093.572 3161.204 4093.572 3161.154 C 4093.572 3161.084 4091.892 3161.054 4087.282 3161.054 L 4080.982 3161.054 L 4080.482 3162.124 C 4080.202 3162.704 4079.832 3163.504 4079.652 3163.894 C 4079.482 3164.284 4078.772 3165.814 4078.082 3167.304 C 4077.392 3168.794 4076.822 3170.064 4076.822 3170.114 C 4076.822 3170.204 4077.982 3170.224 4082.802 3170.204 M 4078.332 3153.684 C 4079.162 3155.474 4080.092 3157.474 4080.402 3158.144 L 4080.962 3159.344 L 4087.202 3159.374 C 4090.982 3159.384 4093.472 3159.364 4093.522 3159.314 C 4093.562 3159.264 4093.482 3159.034 4093.302 3158.714 C 4093.142 3158.424 4092.842 3157.864 4092.642 3157.474 C 4091.962 3156.184 4091.302 3154.954 4090.302 3153.094 C 4089.762 3152.094 4089.202 3151.034 4089.052 3150.744 L 4088.792 3150.224 L 4082.812 3150.224 C 4078.072 3150.224 4076.822 3150.244 4076.832 3150.324 C 4076.832 3150.384 4077.502 3151.894 4078.332 3153.684" stroke="none"/></g></g></svg>