<?xml version="1.0" encoding="utf-8" standalone="no"?><svg xmlns="http://www.w3.org/2000/svg" xmlns:xlink="http://www.w3.org/1999/xlink" width="198" height="296" viewBox="3950 2950 198 296"><title>Photo View</title><style type="text/css">
path, polyline, polygon {stroke-linejoin:round;}
path, polyline, polygon, line {stroke-linecap:round;}
rect, circle, ellipse, polyline, polygon, line, path {shape-rendering:crispEdges;}
*[layerid="0"] {stroke:#FFFFFF; FILL:#FFFFFF;}*[layerid="1"] {stroke:#00BE00; fill:#00BE00;}*[layerid="2"] {stroke:#00BE00; fill:#00BE00;}*[layerid="3"] {stroke:#FFFFFF; fill:#FFFFFF;}*[layerid="4"] {stroke:#FFFFFF; fill:#FFFFFF;}*[layerid="5"] {stroke:#808080; fill:#808080;}*[layerid="6"] {stroke:#800000; fill:#800000;}*[layerid="7"] {stroke:#DCAA14; fill:#DCAA14;}*[layerid="8"] {stroke:#DCAA14; fill:#DCAA14;}*[layerid="9"] {display:none}*[layerid="10"] {stroke:#0B3B0B; fill:#0B3B0B;}*[layerid="11"] {stroke:#C0C0C0; fill:#C0C0C0;}*[layerid="12"] {stroke:#FFFFFF; fill:#FFFFFF;}*[layerid="13"] {stroke:#33CC99; fill:#33CC99;}*[layerid="14"] {stroke:#5555FF; fill:#5555FF;}*[layerid="15"] {stroke:#F022F0; fill:#F022F0;}*[layerid="16"] {stroke:#FFFFFF; FILL:#FFFFFF;}*[layerid="17"] {stroke:#FFFFFF; FILL:#FFFFFF;}*[layerid="18"] {stroke:#FFFFFF; FILL:#FFFFFF;}*[layerid="19"] {stroke:#FFFFFF; FILL:#FFFFFF;}*[layerid="20"] {stroke:#FFFFFF; FILL:#FFFFFF;}*[layerid="21"] {stroke:#800000; fill:#800000;}*[layerid="22"] {stroke:#008000; fill:#008000;}*[layerid="23"] {stroke:#00FF00; fill:#00FF00;}*[layerid="24"] {stroke:#000080; fill:#000080;}*[fill="none"] {fill: none;}
*[stroke="none"] {stroke: none;}
g[c_partid="part_pad"] > * + circle {fill: #111111;}
g[c_partid="part_via"] > * + circle {fill: #111111;}
g[c_partid="part_pad"] > polyline:nth-child(2) {stroke: #111111;}</style>
<rect x="3950" y="2950" width="198" height="296" fill="#111111" stroke="none"/><g style="pointer-events: none;"><path d="M4000,3196.86 4000,3000 4098.42,3000 4098.42,3196.86z" layerid="10"/><polygon points="4066.1 3047.3 4066.1 3038.5 4072.5 3038.5 4072 3047.3" stroke-width="0.2" c_shapetype="line" stroke-linecap="round" type="solid" layerid="1"/><polyline points="4045.6 3084.9 4042.55 3084.9 4042.45 3085" stroke-width="1" c_shapetype="line" stroke-linecap="round" fill="none" layerid="1"/><polyline points="4060.5 3083 4060.5 3095.38 4060.46 3095.42" stroke-width="1" c_shapetype="line" stroke-linecap="round" fill="none" layerid="1"/><polyline points="4009 3078 4010.7 3078 4021.7 3067" stroke-width="1" c_shapetype="line" stroke-linecap="round" fill="none" layerid="1"/><polyline points="4009 3078 4009 3086 4005 3090 4005 3132 4019.978 3146.978 4020.1 3152.6" stroke-width="1" c_shapetype="line" stroke-linecap="round" fill="none" layerid="1"/><polyline points="4078 3063 4078 3053 4088 3043" stroke-width="1" c_shapetype="line" stroke-linecap="round" fill="none" layerid="1"/><polyline points="4029.1 3152.6 4029.1 3156.36 4022 3163.46" stroke-width="1" c_shapetype="line" stroke-linecap="round" fill="none" layerid="1"/><polyline points="4078 3063 4070.5 3070.5 4070.5 3109 4065 3114.5 4060.65 3114.5 4060.46 3114.31" stroke-width="1" c_shapetype="line" stroke-linecap="round" fill="none" layerid="1"/><polyline points="4077 3146.08 4079.92 3146.08 4083 3143 4083 3113 4079 3109 4070.5 3109" stroke-width="1" c_shapetype="line" stroke-linecap="round" fill="none" layerid="1"/><polyline points="4062.99 3016.97 4081 3017 4081 3017" stroke-width="10" c_shapetype="line" stroke-linecap="round" fill="none" layerid="1"/><polyline points="4060 3047 4060 3034 4043.31 3017" stroke-width="10" c_shapetype="line" stroke-linecap="round" fill="none" layerid="1"/><polyline points="4077 3146.08 4062.12 3146.08 4060.2 3148" stroke-width="1" c_shapetype="line" stroke-linecap="round" fill="none" layerid="1"/><polyline points="4013.01 3179.03 4013.01 3172.45 4022 3163.46" stroke-width="1" c_shapetype="line" stroke-linecap="round" fill="none" layerid="1"/><polyline points="4020.1 3149.6 4028.5 3141 4053.2 3141 4060.2 3148" stroke-width="1" c_shapetype="line" stroke-linecap="round" fill="none" layerid="1"/><polyline points="4077 3116.55 4070.5 3116.55" stroke-width="1" c_shapetype="line" stroke-linecap="round" fill="none" layerid="1"/><polyline points="4077 3121.47 4068 3121.47" stroke-width="1" c_shapetype="line" stroke-linecap="round" fill="none" layerid="1"/><polyline points="4069 3054 4069 3051.5 4068 3050.5" stroke-width="1" c_shapetype="line" stroke-linecap="round" fill="none" layerid="1"/><polyline points="4022 3087 4022 3096.5 4024 3098.5 4027.51 3098.5 4027.58 3098.57" stroke-width="1" c_shapetype="line" stroke-linecap="round" fill="none" layerid="1"/><polyline points="4025 3084 4025 3092.84 4027.58 3095.42" stroke-width="1" c_shapetype="line" stroke-linecap="round" fill="none" layerid="1"/><polyline points="4033 3090 4033 3086 4028 3081" stroke-width="1" c_shapetype="line" stroke-linecap="round" fill="none" layerid="1"/><polyline points="4060.46 3117.46 4069.59 3117.46 4070.5 3116.55" stroke-width="1" c_shapetype="line" stroke-linecap="round" fill="none" layerid="1"/><polyline points="4055.04 3122.88 4066.59 3122.88 4068 3121.47" stroke-width="1" c_shapetype="line" stroke-linecap="round" fill="none" layerid="1"/><polyline points="4051.89 3122.88 4051.89 3126.89 4053 3128 4063.89 3128 4065.5 3126.5" stroke-width="1" c_shapetype="line" stroke-linecap="round" fill="none" layerid="1"/><polyline points="4065.5 3126.5 4076.89 3126.5 4077 3126.39" stroke-width="1" c_shapetype="line" stroke-linecap="round" fill="none" layerid="1"/><polyline points="4048.74 3122.88 4048.74 3132.26 4048.5 3132.5" stroke-width="1" c_shapetype="line" stroke-linecap="round" fill="none" layerid="1"/><polyline points="4047 3047 4040 3047 4028 3059 4028 3073 4009 3092 4009 3130 4016 3137 4033.5 3137 4042.5 3128 4042.45 3122.88" stroke-width="1" c_shapetype="line" stroke-linecap="round" fill="none" layerid="1"/><polyline points="4039.3 3122.88 4039.3 3128 4032 3128 4030 3126 4030 3122 4029 3121 4019 3121 4011 3113 4011 3093 4030 3074 4030 3061 4041 3050 4048 3050 4051 3047 4048 3044 4043 3044 4039 3040 4039 3028" stroke-width="1" c_shapetype="line" stroke-linecap="round" fill="none" layerid="1"/><polyline points="4045.59 3122.88 4045.59 3128.41 4035 3139 4015 3139 4007 3131 4007 3091 4026 3072 4026 3064 4024 3062 4020 3062 4017 3059 4017 3036 4029 3024 4041 3024 4053.3 3036.3 4053.3 3050.24 4057 3054 4069 3054" stroke-width="1" c_shapetype="line" stroke-linecap="round" fill="none" layerid="1"/><polyline points="4060.46 3108.01 4064.99 3108.01 4068 3105 4068 3069 4066 3067" stroke-width="1" c_shapetype="line" stroke-linecap="round" fill="none" layerid="1"/><polyline points="4060.46 3114.31 4042.31 3114.31 4039 3111 4027.74 3111 4027.58 3111.16" stroke-width="1" c_shapetype="line" stroke-linecap="round" fill="none" layerid="1"/><polyline points="4039 3111 4033 3105 4027.71 3105 4027.58 3104.87" stroke-width="1" c_shapetype="line" stroke-linecap="round" fill="none" layerid="1"/><polyline points="4077 3131.31 4062.31 3131.31 4062 3131" stroke-width="1" c_shapetype="line" stroke-linecap="round" fill="none" layerid="1"/><polyline points="4077 3136.24 4063.24 3136.24 4058 3131" stroke-width="1" c_shapetype="line" stroke-linecap="round" fill="none" layerid="1"/><polyline points="4077 3141.16 4064.16 3141.16 4054 3131" stroke-width="1" c_shapetype="line" stroke-linecap="round" fill="none" layerid="1"/><polyline points="4039.3 3084.9 4039.3 3090" stroke-width="1" c_shapetype="line" stroke-linecap="round" fill="none" layerid="1"/><polyline points="4036.15 3090 4036.15 3082.55 4036.1 3082.5" stroke-width="1" c_shapetype="line" stroke-linecap="round" fill="none" layerid="1"/><polyline points="4042.45 3090 4042.45 3075.15 4034.3 3067" stroke-width="1" c_shapetype="line" stroke-linecap="round" fill="none" layerid="1"/><path d="M4001.96,3194.88 4001.96,3001.96 4096.46,3001.96 4096.46,3194.88zM4015.04,3021.64 4016.48,3021.64 4017.86,3021.3 4019.12,3020.64 4020.2,3019.68 4021,3018.52 4021.5,3017.18 4021.68,3015.76 4021.5,3014.34 4021,3013 4020.2,3011.84 4019.12,3010.88 4017.86,3010.22 4016.48,3009.88 4015.04,3009.88 4013.66,3010.22 4012.4,3010.88 4011.32,3011.84 4010.52,3013 4010.02,3014.34 4009.84,3015.76 4010.02,3017.18 4010.52,3018.52 4011.32,3019.68 4012.4,3020.64 4013.66,3021.3zM4012.7,3183.72 4013.98,3183.64 4015.18,3183.22 4016.22,3182.48 4017.04,3181.48 4017.54,3180.3 4017.72,3179.04 4017.54,3177.78 4017.04,3176.6 4016.22,3175.6 4015.18,3174.86 4014.52,3174.62 4014.52,3173.08 4020.18,3167.4 4029.02,3167.4 4029.06,3167.38 4029.1,3167.38 4030.22,3167.16 4030.28,3167.14 4030.36,3167.12 4030.44,3167.08 4030.5,3167.06 4030.58,3167.02 4031.54,3166.38 4031.6,3166.32 4031.66,3166.28 4031.72,3166.22 4031.76,3166.16 4031.82,3166.1 4032.46,3165.14 4032.5,3165.06 4032.52,3165 4032.56,3164.92 4032.58,3164.84 4032.6,3164.78 4032.82,3163.66 4032.84,3163.58 4032.84,3163.34 4032.82,3163.26 4032.6,3162.14 4032.58,3162.08 4032.56,3162 4032.52,3161.92 4032.5,3161.86 4032.46,3161.78 4031.82,3160.82 4031.76,3160.76 4031.72,3160.7 4031.66,3160.64 4031.6,3160.6 4031.54,3160.54 4030.58,3159.9 4030.5,3159.86 4030.44,3159.84 4030.36,3159.8 4030.28,3159.78 4030.22,3159.76 4029.1,3159.54 4029.06,3159.54 4029.02,3159.52 4028.06,3159.52 4029.72,3157.86 4031.26,3157.86 4031.56,3157.82 4031.84,3157.66 4032.06,3157.44 4032.22,3157.16 4032.26,3156.86 4032.26,3148.36 4032.22,3148.06 4032.06,3147.78 4031.84,3147.56 4031.56,3147.4 4031.26,3147.36 4026.96,3147.36 4026.66,3147.4 4026.38,3147.56 4026.16,3147.78 4026,3148.06 4025.96,3148.36 4025.96,3156.86 4026,3157.16 4026.06,3157.28 4023.82,3159.52 4015,3159.52 4014.96,3159.54 4014.92,3159.54 4013.8,3159.76 4013.74,3159.78 4013.66,3159.8 4013.58,3159.84 4013.52,3159.86 4013.44,3159.9 4012.48,3160.54 4012.42,3160.6 4012.36,3160.64 4012.3,3160.7 4012.26,3160.76 4012.2,3160.82 4011.56,3161.78 4011.52,3161.86 4011.5,3161.92 4011.46,3162 4011.44,3162.08 4011.42,3162.14 4011.2,3163.26 4011.18,3163.34 4011.18,3163.58 4011.2,3163.66 4011.42,3164.78 4011.44,3164.84 4011.46,3164.92 4011.5,3165 4011.52,3165.06 4011.56,3165.14 4012.2,3166.1 4012.26,3166.16 4012.3,3166.22 4012.36,3166.28 4012.42,3166.32 4012.48,3166.38 4013.44,3167.02 4013.52,3167.06 4013.58,3167.08 4013.66,3167.12 4013.74,3167.14 4013.8,3167.16 4014.92,3167.38 4014.96,3167.38 4015,3167.4 4015.96,3167.4 4011.96,3171.4 4011.8,3171.58 4011.68,3171.78 4011.6,3172 4011.54,3172.22 4011.52,3172.46 4011.52,3174.6 4011.44,3174.62 4010.3,3175.2 4009.38,3176.08 4008.7,3177.16 4008.36,3178.4 4008.36,3179.68 4008.7,3180.92 4009.38,3182 4010.3,3182.88 4011.44,3183.46zM4061.88,3167.5 4062.12,3167.5 4062.2,3167.48 4063.42,3167.24 4063.5,3167.22 4063.56,3167.2 4063.64,3167.16 4063.72,3167.14 4063.78,3167.08 4064.82,3166.38 4064.94,3166.3 4065,3166.24 4065.08,3166.12 4065.78,3165.08 4065.84,3165.02 4065.86,3164.94 4065.9,3164.86 4065.92,3164.8 4065.94,3164.72 4066.18,3163.5 4066.18,3163.46 4066.2,3163.42 4066.2,3159.58 4066.18,3159.54 4066.18,3159.5 4065.94,3158.28 4065.92,3158.2 4065.9,3158.14 4065.86,3158.06 4065.84,3157.98 4065.78,3157.92 4065.08,3156.88 4065,3156.76 4064.94,3156.7 4064.82,3156.62 4063.78,3155.92 4063.72,3155.86 4063.64,3155.84 4063.56,3155.8 4063.5,3155.78 4063.42,3155.76 4062.2,3155.52 4062.12,3155.5 4061.88,3155.5 4061.8,3155.52 4060.58,3155.76 4060.5,3155.78 4060.44,3155.8 4060.36,3155.84 4060.28,3155.86 4060.22,3155.92 4059.18,3156.62 4059.06,3156.7 4059,3156.76 4058.92,3156.88 4058.22,3157.92 4058.16,3157.98 4058.14,3158.06 4058.1,3158.14 4058.08,3158.2 4058.06,3158.28 4057.82,3159.5 4057.82,3159.54 4057.8,3159.58 4057.8,3163.42 4057.82,3163.46 4057.82,3163.5 4058.06,3164.72 4058.08,3164.8 4058.1,3164.86 4058.14,3164.94 4058.16,3165.02 4058.22,3165.08 4058.92,3166.12 4059,3166.24 4059.06,3166.3 4059.18,3166.38 4060.22,3167.08 4060.28,3167.14 4060.36,3167.16 4060.44,3167.2 4060.5,3167.22 4060.58,3167.24 4061.8,3167.48zM4081,3023 4082.54,3022.8 4084,3022.2 4085.24,3021.24 4086.2,3020 4086.8,3018.56 4087,3017 4086.8,3015.46 4086.2,3014 4085.24,3012.76 4084,3011.8 4082.56,3011.2 4081,3011 4063,3010.98 4061.46,3011.18 4060,3011.78 4058.76,3012.74 4057.8,3013.98 4057.2,3015.42 4057,3016.98 4057.2,3018.52 4057.8,3019.98 4058.76,3021.22 4060,3022.18 4061.44,3022.78 4063,3022.98zM4084.08,3164.8 4095.12,3164.8 4095.42,3164.76 4095.7,3164.6 4095.92,3164.38 4096.08,3164.1 4096.12,3163.8 4096.12,3155.8 4096.08,3155.5 4095.92,3155.22 4095.7,3155 4095.42,3154.84 4095.12,3154.8 4084.08,3154.8 4083.78,3154.84 4083.5,3155 4083.28,3155.22 4083.12,3155.5 4083.08,3155.8 4083.08,3163.8 4083.12,3164.1 4083.28,3164.38 4083.5,3164.6 4083.78,3164.76zM4050.3,3163.98 4051.46,3163.72 4052.5,3163.12 4053.3,3162.26 4053.82,3161.18 4054,3160 4053.82,3158.82 4053.3,3157.74 4052.5,3156.88 4051.46,3156.28 4050.3,3156.02 4049.1,3156.1 4048,3156.54 4047.06,3157.28 4046.4,3158.26 4046.04,3159.4 4046.04,3160.6 4046.4,3161.74 4047.06,3162.72 4048,3163.46 4049.1,3163.9zM4078.3,3086.68 4079.46,3086.42 4080.5,3085.82 4081.3,3084.96 4081.82,3083.88 4082,3082.7 4081.82,3081.52 4081.3,3080.44 4080.5,3079.58 4079.46,3078.98 4078.3,3078.72 4077.1,3078.8 4076,3079.24 4075.06,3079.98 4074.4,3080.96 4074.04,3082.1 4074.04,3083.3 4074.4,3084.44 4075.06,3085.42 4076,3086.16 4077.1,3086.6zM4017.96,3157.86 4022.26,3157.86 4022.56,3157.82 4022.84,3157.66 4023.06,3157.44 4023.22,3157.16 4023.26,3156.86 4023.26,3148.52 4029.14,3142.5 4052.58,3142.5 4054.5,3144.42 4054.5,3152.7 4054.54,3153 4054.7,3153.28 4054.92,3153.5 4055.2,3153.66 4055.5,3153.7 4064.9,3153.7 4065.2,3153.66 4065.48,3153.5 4065.7,3153.28 4065.86,3153 4065.9,3152.7 4065.9,3147.58 4072.52,3147.58 4072.66,3147.84 4072.88,3148.06 4073.16,3148.22 4073.46,3148.26 4080.54,3148.26 4080.84,3148.22 4081.12,3148.06 4081.34,3147.84 4081.5,3147.56 4081.54,3147.26 4081.54,3146.58 4084.06,3144.06 4084.22,3143.88 4084.34,3143.68 4084.42,3143.46 4084.48,3143.24 4084.5,3143 4084.5,3113 4084.48,3112.76 4084.48,3112.74 4095.12,3112.74 4095.42,3112.7 4095.7,3112.54 4095.92,3112.32 4096.08,3112.04 4096.12,3111.74 4096.12,3103.74 4096.08,3103.44 4095.92,3103.16 4095.7,3102.94 4095.42,3102.78 4095.12,3102.74 4084.08,3102.74 4083.78,3102.78 4083.5,3102.94 4083.28,3103.16 4083.12,3103.44 4083.08,3103.74 4083.08,3110.96 4080.06,3107.94 4079.88,3107.78 4079.68,3107.66 4079.46,3107.58 4079.24,3107.52 4079,3107.5 4072,3107.5 4072,3071.12 4076.12,3067 4081,3067 4081.3,3066.96 4081.58,3066.8 4081.8,3066.58 4081.96,3066.3 4082,3066 4082,3060 4081.96,3059.7 4081.8,3059.42 4081.58,3059.2 4081.3,3059.04 4081,3059 4079.5,3059 4079.5,3053.62 4085.96,3047.16 4091.16,3047.16 4091.46,3047.12 4091.74,3046.96 4091.96,3046.74 4092.12,3046.46 4092.16,3046.16 4092.16,3039.86 4092.12,3039.56 4091.96,3039.28 4091.74,3039.06 4091.46,3038.9 4091.16,3038.86 4084.86,3038.86 4084.56,3038.9 4084.28,3039.06 4084.06,3039.28 4083.9,3039.56 4083.86,3039.86 4083.86,3045.02 4076.94,3051.94 4076.78,3052.12 4076.66,3052.32 4076.58,3052.54 4076.52,3052.76 4076.5,3053 4076.5,3059 4075,3059 4074.7,3059.04 4074.42,3059.2 4074.2,3059.42 4074.04,3059.7 4074,3060 4074,3064.88 4070.16,3068.72 4070.16,3063.86 4070.12,3063.56 4069.96,3063.28 4069.74,3063.06 4069.46,3062.9 4069.16,3062.86 4062.86,3062.86 4062.56,3062.9 4062.28,3063.06 4062.06,3063.28 4061.9,3063.56 4061.86,3063.86 4061.86,3070.16 4061.9,3070.46 4062.06,3070.74 4062.28,3070.96 4062.56,3071.12 4062.86,3071.16 4066.5,3071.16 4066.5,3104.38 4064.38,3106.52 4063.98,3106.52 4063.86,3106.46 4063.76,3106.38 4063.64,3106.34 4063.12,3106.18 4063.06,3106.16 4063,3106.16 4062.94,3106.14 4057.98,3106.14 4057.92,3106.16 4057.86,3106.16 4057.8,3106.18 4057.28,3106.34 4057.16,3106.38 4057.06,3106.46 4056.94,3106.52 4056.78,3106.72 4056.46,3107.16 4056.38,3107.26 4056.26,3107.62 4056.26,3108.42 4056.38,3108.78 4056.46,3108.88 4056.78,3109.32 4056.94,3109.52 4057.06,3109.58 4057.08,3109.6 4057.06,3109.6 4056.94,3109.66 4056.78,3109.86 4056.46,3110.3 4056.38,3110.4 4056.26,3110.76 4056.26,3111.56 4056.38,3111.92 4056.46,3112.02 4056.78,3112.46 4056.94,3112.66 4057.06,3112.72 4057.08,3112.74 4057.06,3112.76 4056.94,3112.82 4042.94,3112.82 4034.06,3103.94 4033.88,3103.78 4033.68,3103.66 4033.46,3103.58 4033.24,3103.52 4033,3103.5 4031.2,3103.5 4031.1,3103.38 4030.98,3103.32 4030.88,3103.24 4030.76,3103.2 4030.24,3103.04 4030.18,3103.02 4030.12,3103.02 4030.06,3103 4025.1,3103 4025.04,3103.02 4024.98,3103.02 4024.92,3103.04 4024.4,3103.2 4024.28,3103.24 4024.18,3103.32 4024.06,3103.38 4023.9,3103.58 4023.58,3104.02 4023.5,3104.12 4023.38,3104.48 4023.38,3105.28 4023.5,3105.64 4023.58,3105.74 4023.9,3106.18 4024.06,3106.38 4024.18,3106.44 4024.28,3106.52 4024.4,3106.56 4024.92,3106.72 4024.98,3106.74 4025.04,3106.74 4025.1,3106.76 4030.06,3106.76 4030.12,3106.74 4030.18,3106.74 4030.24,3106.72 4030.76,3106.56 4030.88,3106.52 4030.9,3106.5 4032.38,3106.5 4035.38,3109.5 4030.82,3109.5 4030.76,3109.48 4030.24,3109.32 4030.18,3109.3 4030.12,3109.3 4030.06,3109.28 4025.1,3109.28 4025.04,3109.3 4024.98,3109.3 4024.92,3109.32 4024.4,3109.48 4024.28,3109.52 4024.18,3109.6 4024.06,3109.66 4023.9,3109.86 4023.58,3110.3 4023.5,3110.4 4023.38,3110.76 4023.38,3111.56 4023.5,3111.92 4023.58,3112.02 4023.9,3112.46 4024.06,3112.66 4024.18,3112.72 4024.2,3112.74 4024.18,3112.76 4024.06,3112.82 4023.9,3113.02 4023.58,3113.46 4023.5,3113.56 4023.38,3113.92 4023.38,3114.72 4023.5,3115.08 4023.58,3115.18 4023.9,3115.62 4024.06,3115.82 4024.18,3115.88 4024.2,3115.9 4024.18,3115.9 4024.06,3115.96 4023.9,3116.16 4023.58,3116.6 4023.5,3116.7 4023.38,3117.06 4023.38,3117.86 4023.5,3118.22 4023.58,3118.32 4023.9,3118.76 4024.06,3118.96 4024.18,3119.02 4024.28,3119.1 4024.4,3119.14 4024.92,3119.3 4024.98,3119.32 4025.04,3119.32 4025.1,3119.34 4030.06,3119.34 4030.12,3119.32 4030.18,3119.32 4030.24,3119.3 4030.76,3119.14 4030.88,3119.1 4030.98,3119.02 4031.1,3118.96 4031.26,3118.76 4031.58,3118.32 4031.66,3118.22 4031.78,3117.86 4031.78,3117.06 4031.66,3116.7 4031.58,3116.6 4031.26,3116.16 4031.1,3115.96 4030.98,3115.9 4030.96,3115.9 4030.98,3115.88 4031.1,3115.82 4031.26,3115.62 4031.58,3115.18 4031.66,3115.08 4031.78,3114.72 4031.78,3113.92 4031.66,3113.56 4031.58,3113.46 4031.26,3113.02 4031.1,3112.82 4030.98,3112.76 4030.96,3112.74 4030.98,3112.72 4031.1,3112.66 4031.22,3112.5 4038.38,3112.5 4041.26,3115.38 4041.44,3115.54 4041.64,3115.66 4041.86,3115.74 4042.08,3115.8 4042.32,3115.82 4056.94,3115.82 4057.06,3115.88 4057.08,3115.9 4057.06,3115.9 4056.94,3115.96 4056.78,3116.16 4056.46,3116.6 4056.38,3116.7 4056.26,3117.06 4056.26,3117.86 4056.38,3118.22 4056.46,3118.32 4056.78,3118.76 4056.94,3118.96 4057.06,3119.02 4057.16,3119.1 4057.28,3119.14 4057.8,3119.3 4057.86,3119.32 4057.92,3119.32 4057.98,3119.34 4062.94,3119.34 4063,3119.32 4063.06,3119.32 4063.12,3119.3 4063.64,3119.14 4063.76,3119.1 4063.86,3119.02 4063.98,3118.96 4069.6,3118.96 4069.84,3118.94 4070.06,3118.88 4070.28,3118.8 4070.4,3118.72 4071.18,3118.66 4071.98,3118.2 4072.08,3118.06 4072.52,3118.06 4072.66,3118.32 4072.88,3118.54 4073.16,3118.7 4073.46,3118.74 4080.54,3118.74 4080.84,3118.7 4081.12,3118.54 4081.34,3118.32 4081.5,3118.04 4081.5,3119.98 4081.34,3119.7 4081.12,3119.48 4080.84,3119.32 4080.54,3119.28 4073.46,3119.28 4073.16,3119.32 4072.88,3119.48 4072.66,3119.7 4072.5,3119.98 4069.58,3119.98 4069.48,3119.84 4068.68,3119.38 4067.78,3119.3 4066.9,3119.58 4066.22,3120.18 4065.84,3121.02 4065.84,3121.38 4056.92,3121.38 4056.92,3120.4 4056.9,3120.34 4056.9,3120.28 4056.88,3120.22 4056.72,3119.7 4056.68,3119.58 4056.6,3119.48 4056.54,3119.36 4056.34,3119.2 4055.9,3118.88 4055.8,3118.8 4055.44,3118.68 4054.64,3118.68 4054.28,3118.8 4054.18,3118.88 4053.74,3119.2 4053.54,3119.36 4053.48,3119.48 4053.48,3119.5 4053.46,3119.48 4053.4,3119.36 4053.2,3119.2 4052.76,3118.88 4052.66,3118.8 4052.3,3118.68 4051.5,3118.68 4051.14,3118.8 4051.04,3118.88 4050.6,3119.2 4050.4,3119.36 4050.34,3119.48 4050.32,3119.5 4050.3,3119.48 4050.24,3119.36 4050.04,3119.2 4049.6,3118.88 4049.5,3118.8 4049.14,3118.68 4048.34,3118.68 4047.98,3118.8 4047.88,3118.88 4047.44,3119.2 4047.24,3119.36 4047.18,3119.48 4047.18,3119.5 4047.16,3119.48 4047.1,3119.36 4046.9,3119.2 4046.46,3118.88 4046.36,3118.8 4046,3118.68 4045.2,3118.68 4044.84,3118.8 4044.74,3118.88 4044.3,3119.2 4044.1,3119.36 4044.04,3119.48 4044.04,3119.5 4044.02,3119.48 4043.96,3119.36 4043.76,3119.2 4043.32,3118.88 4043.22,3118.8 4042.86,3118.68 4042.06,3118.68 4041.7,3118.8 4041.6,3118.88 4041.16,3119.2 4040.96,3119.36 4040.9,3119.48 4040.88,3119.5 4040.86,3119.48 4040.8,3119.36 4040.6,3119.2 4040.16,3118.88 4040.06,3118.8 4039.7,3118.68 4038.9,3118.68 4038.54,3118.8 4038.44,3118.88 4038,3119.2 4037.8,3119.36 4037.74,3119.48 4037.74,3119.5 4037.72,3119.48 4037.66,3119.36 4037.46,3119.2 4037.02,3118.88 4036.92,3118.8 4036.56,3118.68 4035.76,3118.68 4035.4,3118.8 4035.3,3118.88 4034.86,3119.2 4034.66,3119.36 4034.6,3119.48 4034.58,3119.5 4034.56,3119.48 4034.5,3119.36 4034.3,3119.2 4033.86,3118.88 4033.76,3118.8 4033.4,3118.68 4032.6,3118.68 4032.24,3118.8 4032.14,3118.88 4031.7,3119.2 4031.5,3119.36 4031.44,3119.48 4031.36,3119.58 4031.32,3119.7 4031.16,3120.22 4031.14,3120.28 4031.14,3120.34 4031.12,3120.4 4031.12,3121 4030.06,3119.94 4029.88,3119.78 4029.68,3119.66 4029.46,3119.58 4029.24,3119.52 4029,3119.5 4019.62,3119.5 4012.5,3112.38 4012.5,3093.62 4020.06,3086.06 4019.84,3086.54 4019.84,3087.46 4020.22,3088.3 4020.5,3088.54 4020.5,3096.5 4020.52,3096.74 4020.58,3096.96 4020.66,3097.18 4020.78,3097.38 4020.94,3097.56 4022.94,3099.56 4023.12,3099.72 4023.32,3099.84 4023.54,3099.92 4023.76,3099.98 4024,3100 4024.06,3100.08 4024.18,3100.14 4024.28,3100.22 4024.4,3100.26 4024.92,3100.42 4024.98,3100.44 4025.04,3100.44 4025.1,3100.46 4030.06,3100.46 4030.12,3100.44 4030.18,3100.44 4030.24,3100.42 4030.76,3100.26 4030.88,3100.22 4030.98,3100.14 4031.1,3100.08 4031.26,3099.88 4031.58,3099.44 4031.66,3099.34 4031.78,3098.98 4031.78,3098.18 4031.66,3097.82 4031.58,3097.72 4031.26,3097.28 4031.1,3097.08 4030.98,3097.02 4030.96,3097 4030.98,3096.98 4031.1,3096.92 4031.26,3096.72 4031.58,3096.28 4031.66,3096.18 4031.78,3095.82 4031.78,3095.02 4031.66,3094.66 4031.58,3094.56 4031.26,3094.12 4031.1,3093.92 4030.98,3093.86 4030.88,3093.78 4030.76,3093.74 4030.24,3093.58 4030.18,3093.56 4030.12,3093.56 4030.06,3093.54 4027.82,3093.54 4026.5,3092.22 4026.5,3085.62 4027,3084.9 4027.2,3084 4027,3083.1 4026.8,3082.8 4026.9,3082.9 4027.78,3083.18 4028.04,3083.16 4031.46,3086.58 4031.44,3086.6 4031.36,3086.7 4031.32,3086.82 4031.16,3087.34 4031.14,3087.4 4031.14,3087.46 4031.12,3087.52 4031.12,3092.48 4031.14,3092.54 4031.14,3092.6 4031.16,3092.66 4031.32,3093.18 4031.36,3093.3 4031.44,3093.4 4031.5,3093.52 4031.7,3093.68 4032.14,3094 4032.24,3094.08 4032.6,3094.2 4033.4,3094.2 4033.76,3094.08 4033.86,3094 4034.3,3093.68 4034.5,3093.52 4034.56,3093.4 4034.58,3093.38 4034.6,3093.4 4034.66,3093.52 4034.86,3093.68 4035.3,3094 4035.4,3094.08 4035.76,3094.2 4036.56,3094.2 4036.92,3094.08 4037.02,3094 4037.46,3093.68 4037.66,3093.52 4037.72,3093.4 4037.74,3093.38 4037.74,3093.4 4037.8,3093.52 4038,3093.68 4038.44,3094 4038.54,3094.08 4038.9,3094.2 4039.7,3094.2 4040.06,3094.08 4040.16,3094 4040.6,3093.68 4040.8,3093.52 4040.86,3093.4 4040.88,3093.38 4040.9,3093.4 4040.96,3093.52 4041.16,3093.68 4041.6,3094 4041.7,3094.08 4042.06,3094.2 4042.86,3094.2 4043.22,3094.08 4043.32,3094 4043.76,3093.68 4043.96,3093.52 4044.02,3093.4 4044.04,3093.38 4044.04,3093.4 4044.1,3093.52 4044.3,3093.68 4044.74,3094 4044.84,3094.08 4045.2,3094.2 4046,3094.2 4046.36,3094.08 4046.46,3094 4046.9,3093.68 4047.1,3093.52 4047.16,3093.4 4047.18,3093.38 4047.18,3093.4 4047.24,3093.52 4047.44,3093.68 4047.88,3094 4047.98,3094.08 4048.34,3094.2 4049.14,3094.2 4049.5,3094.08 4049.6,3094 4050.04,3093.68 4050.24,3093.52 4050.3,3093.4 4050.32,3093.38 4050.34,3093.4 4050.4,3093.52 4050.6,3093.68 4051.04,3094 4051.14,3094.08 4051.5,3094.2 4052.3,3094.2 4052.66,3094.08 4052.76,3094 4053.2,3093.68 4053.4,3093.52 4053.46,3093.4 4053.48,3093.38 4053.48,3093.4 4053.54,3093.52 4053.74,3093.68 4054.18,3094 4054.28,3094.08 4054.64,3094.2 4055.44,3094.2 4055.8,3094.08 4055.9,3094 4056.34,3093.68 4056.54,3093.52 4056.6,3093.4 4056.68,3093.3 4056.72,3093.18 4056.88,3092.66 4056.9,3092.6 4056.9,3092.54 4056.92,3092.48 4056.92,3087.52 4056.9,3087.46 4056.9,3087.4 4056.88,3087.34 4056.72,3086.82 4056.68,3086.7 4056.6,3086.6 4056.54,3086.48 4056.34,3086.32 4055.9,3086 4055.8,3085.92 4055.44,3085.8 4054.64,3085.8 4054.28,3085.92 4054.18,3086 4053.74,3086.32 4053.54,3086.48 4053.48,3086.6 4053.48,3086.62 4053.46,3086.6 4053.4,3086.48 4053.2,3086.32 4052.76,3086 4052.66,3085.92 4052.3,3085.8 4051.5,3085.8 4051.14,3085.92 4051.04,3086 4050.6,3086.32 4050.4,3086.48 4050.34,3086.6 4050.32,3086.62 4050.3,3086.6 4050.24,3086.48 4050.04,3086.32 4049.6,3086 4049.5,3085.92 4049.14,3085.8 4048.34,3085.8 4047.98,3085.92 4047.88,3086 4047.44,3086.32 4047.24,3086.48 4047.18,3086.6 4047.18,3086.62 4047.16,3086.6 4047.1,3086.5 4047.6,3085.8 4047.8,3084.9 4047.6,3084 4047.08,3083.26 4046.28,3082.8 4045.38,3082.72 4044.5,3083 4044.04,3083.4 4043.96,3083.4 4043.96,3075.16 4043.94,3074.92 4043.88,3074.7 4043.8,3074.48 4043.68,3074.28 4043.52,3074.1 4037.86,3068.44 4037.86,3063.86 4037.82,3063.56 4037.66,3063.28 4037.44,3063.06 4037.16,3062.9 4036.86,3062.86 4031.74,3062.86 4031.5,3062.9 4031.5,3061.62 4041.62,3051.5 4046.62,3051.5 4045.52,3052.06 4044.6,3052.94 4043.92,3054.02 4043.58,3055.26 4043.58,3056.54 4043.92,3057.78 4044.6,3058.86 4045.52,3059.74 4046.66,3060.32 4047.92,3060.58 4049.2,3060.5 4050.4,3060.08 4051.44,3059.34 4052.26,3058.34 4052.76,3057.16 4052.94,3055.9 4052.76,3054.64 4052.26,3053.46 4051.44,3052.46 4050.4,3051.72 4049.2,3051.3 4048.78,3051.28 4048.88,3051.22 4049.06,3051.06 4051.8,3048.32 4051.8,3050.24 4051.82,3050.48 4051.88,3050.7 4051.96,3050.92 4052.08,3051.12 4052.24,3051.3 4055.94,3055.06 4056.12,3055.2 4056.32,3055.34 4056.54,3055.42 4056.76,3055.48 4057,3055.5 4067.44,3055.5 4067.9,3055.9 4068.78,3056.18 4069.68,3056.1 4070.48,3055.64 4071,3054.9 4071.2,3054 4071,3053.14 4071.06,3053.08 4071.22,3052.8 4071.26,3052.5 4071.26,3048.5 4071.22,3048.2 4071.06,3047.92 4070.84,3047.7 4070.56,3047.54 4070.26,3047.5 4065.94,3047.5 4066,3047 4066,3034 4065.92,3033.08 4065.72,3032.16 4065.36,3031.3 4064.88,3030.52 4064.28,3029.8 4047.6,3012.8 4046.36,3011.84 4044.92,3011.22 4043.38,3011 4041.82,3011.18 4040.36,3011.78 4039.12,3012.72 4038.16,3013.96 4037.54,3015.4 4037.32,3016.94 4037.5,3018.5 4038.1,3019.96 4039.04,3021.2 4040.32,3022.5 4029,3022.5 4028.76,3022.52 4028.54,3022.58 4028.32,3022.66 4028.12,3022.78 4027.94,3022.94 4015.94,3034.94 4015.78,3035.12 4015.66,3035.32 4015.64,3035.36 4015.3,3034.64 4014.44,3033.72 4013.36,3033.1 4012.14,3032.82 4010.88,3032.9 4009.72,3033.36 4008.74,3034.14 4008.04,3035.18 4007.66,3036.38 4007.66,3037.62 4008.04,3038.82 4008.74,3039.86 4009.72,3040.64 4010.88,3041.1 4012.14,3041.18 4013.36,3040.9 4014.44,3040.28 4015.3,3039.36 4015.5,3038.94 4015.5,3055.06 4015.3,3054.64 4014.44,3053.72 4013.36,3053.1 4012.14,3052.82 4010.88,3052.9 4009.72,3053.36 4008.74,3054.14 4008.04,3055.18 4007.66,3056.38 4007.66,3057.62 4008.04,3058.82 4008.74,3059.86 4009.72,3060.64 4010.88,3061.1 4012.14,3061.18 4013.36,3060.9 4014.44,3060.28 4015.3,3059.36 4015.5,3058.94 4015.5,3059 4015.52,3059.24 4015.58,3059.46 4015.66,3059.68 4015.78,3059.88 4015.94,3060.06 4018.8,3062.92 4018.56,3063.06 4018.34,3063.28 4018.18,3063.56 4018.14,3063.86 4018.14,3068.44 4012.6,3073.98 4012.46,3073.9 4012.16,3073.86 4005.86,3073.86 4005.56,3073.9 4005.28,3074.06 4005.06,3074.28 4004.9,3074.56 4004.86,3074.86 4004.86,3081.16 4004.9,3081.46 4005.06,3081.74 4005.28,3081.96 4005.56,3082.12 4005.86,3082.16 4007.5,3082.16 4007.5,3085.38 4003.94,3088.94 4003.78,3089.12 4003.66,3089.32 4003.58,3089.54 4003.52,3089.76 4003.5,3090 4003.5,3132 4003.52,3132.24 4003.58,3132.46 4003.66,3132.68 4003.78,3132.88 4003.94,3133.06 4018.24,3147.36 4017.96,3147.36 4017.66,3147.4 4017.38,3147.56 4017.16,3147.78 4017,3148.06 4016.96,3148.36 4016.96,3156.86 4017,3157.16 4017.16,3157.44 4017.38,3157.66 4017.66,3157.82zM4078.3,3096.52 4079.46,3096.26 4080.5,3095.66 4081.3,3094.8 4081.82,3093.72 4082,3092.54 4081.82,3091.36 4081.3,3090.28 4080.5,3089.42 4079.46,3088.82 4078.3,3088.56 4077.1,3088.64 4076,3089.08 4075.06,3089.82 4074.4,3090.8 4074.04,3091.94 4074.04,3093.14 4074.4,3094.28 4075.06,3095.26 4076,3096 4077.1,3096.44zM4057.98,3103.6 4062.94,3103.6 4063,3103.58 4063.06,3103.58 4063.12,3103.56 4063.64,3103.4 4063.76,3103.36 4063.86,3103.28 4063.98,3103.22 4064.14,3103.02 4064.46,3102.58 4064.54,3102.48 4064.66,3102.12 4064.66,3101.32 4064.54,3100.96 4064.46,3100.86 4064.14,3100.42 4063.98,3100.22 4063.86,3100.16 4063.84,3100.16 4063.86,3100.14 4063.98,3100.08 4064.14,3099.88 4064.46,3099.44 4064.54,3099.34 4064.66,3098.98 4064.66,3098.18 4064.54,3097.82 4064.46,3097.72 4064.14,3097.28 4063.98,3097.08 4063.86,3097.02 4063.84,3097 4063.86,3096.98 4063.98,3096.92 4064.14,3096.72 4064.46,3096.28 4064.54,3096.18 4064.66,3095.82 4064.66,3095.02 4064.54,3094.66 4064.46,3094.56 4064.14,3094.12 4063.98,3093.92 4063.86,3093.86 4063.76,3093.78 4063.64,3093.74 4063.12,3093.58 4063.06,3093.56 4063,3093.56 4062.94,3093.54 4062,3093.54 4062,3084.6 4062.5,3083.9 4062.7,3083 4062.5,3082.1 4061.98,3081.36 4061.18,3080.9 4060.28,3080.82 4059.4,3081.1 4058.72,3081.7 4058.34,3082.54 4058.34,3083.46 4058.72,3084.3 4059,3084.54 4059,3093.54 4057.98,3093.54 4057.92,3093.56 4057.86,3093.56 4057.8,3093.58 4057.28,3093.74 4057.16,3093.78 4057.06,3093.86 4056.94,3093.92 4056.78,3094.12 4056.46,3094.56 4056.38,3094.66 4056.26,3095.02 4056.26,3095.82 4056.38,3096.18 4056.46,3096.28 4056.78,3096.72 4056.94,3096.92 4057.06,3096.98 4057.08,3097 4057.06,3097.02 4056.94,3097.08 4056.78,3097.28 4056.46,3097.72 4056.38,3097.82 4056.26,3098.18 4056.26,3098.98 4056.38,3099.34 4056.46,3099.44 4056.78,3099.88 4056.94,3100.08 4057.06,3100.14 4057.08,3100.16 4057.06,3100.16 4056.94,3100.22 4056.78,3100.42 4056.46,3100.86 4056.38,3100.96 4056.26,3101.32 4056.26,3102.12 4056.38,3102.48 4056.46,3102.58 4056.78,3103.02 4056.94,3103.22 4057.06,3103.28 4057.16,3103.36 4057.28,3103.4 4057.8,3103.56 4057.86,3103.58 4057.92,3103.58zM4081.96,3186.98 4083.4,3186.98 4084.78,3186.64 4086.04,3185.98 4087.12,3185.02 4087.92,3183.86 4088.42,3182.52 4088.6,3181.1 4088.42,3179.68 4087.92,3178.34 4087.12,3177.18 4086.04,3176.22 4084.78,3175.56 4083.4,3175.22 4081.96,3175.22 4080.58,3175.56 4079.32,3176.22 4078.24,3177.18 4077.44,3178.34 4076.94,3179.68 4076.76,3181.1 4076.94,3182.52 4077.44,3183.86 4078.24,3185.02 4079.32,3185.98 4080.58,3186.64z" stroke-width="0" layerid="1"/><g c_partid="part_via" c_etype="pinpart" c_shapetype="group" c_origin="4070.5,3116.55" layerid="1"><circle cx="4070.5" cy="3116.55" r="1.22" stroke-width="0"/><circle cx="4070.5" cy="3116.55" r="0.6" stroke-width="0"/></g><g c_partid="part_via" c_etype="pinpart" c_shapetype="group" c_origin="4068,3121.47" layerid="1"><circle cx="4068" cy="3121.47" r="1.22" stroke-width="0"/><circle cx="4068" cy="3121.47" r="0.6" stroke-width="0"/></g><g c_partid="part_via" c_etype="pinpart" c_shapetype="group" c_origin="4065.5,3126.5" layerid="1"><circle cx="4065.5" cy="3126.5" r="1.22" stroke-width="0"/><circle cx="4065.5" cy="3126.5" r="0.6" stroke-width="0"/></g><g c_partid="part_via" c_etype="pinpart" c_shapetype="group" c_origin="4069,3054" layerid="1"><circle cx="4069" cy="3054" r="1.22" stroke-width="0"/><circle cx="4069" cy="3054" r="0.6" stroke-width="0"/></g><g c_partid="part_via" c_etype="pinpart" c_shapetype="group" c_origin="4047,3047" layerid="1"><circle cx="4047" cy="3047" r="1.22" stroke-width="0"/><circle cx="4047" cy="3047" r="0.6" stroke-width="0"/></g><g c_partid="part_via" c_etype="pinpart" c_shapetype="group" c_origin="4025,3084" layerid="1"><circle cx="4025" cy="3084" r="1.22" stroke-width="0"/><circle cx="4025" cy="3084" r="0.6" stroke-width="0"/></g><g c_partid="part_via" c_etype="pinpart" c_shapetype="group" c_origin="4022,3087" layerid="1"><circle cx="4022" cy="3087" r="1.22" stroke-width="0"/><circle cx="4022" cy="3087" r="0.6" stroke-width="0"/></g><g c_partid="part_via" c_etype="pinpart" c_shapetype="group" c_origin="4028,3081" layerid="1"><circle cx="4028" cy="3081" r="1.22" stroke-width="0"/><circle cx="4028" cy="3081" r="0.6" stroke-width="0"/></g><g c_partid="part_via" c_etype="pinpart" c_shapetype="group" c_origin="4039.3,3084.9" layerid="1"><circle cx="4039.3" cy="3084.9" r="1.22" stroke-width="0"/><circle cx="4039.3" cy="3084.9" r="0.6" stroke-width="0"/></g><g c_partid="part_via" c_etype="pinpart" c_shapetype="group" c_origin="4036.1,3082.5" layerid="1"><circle cx="4036.1" cy="3082.5" r="1.22" stroke-width="0"/><circle cx="4036.1" cy="3082.5" r="0.6" stroke-width="0"/></g><g c_partid="part_via" c_etype="pinpart" c_shapetype="group" c_origin="4048.5,3132.5" layerid="1"><circle cx="4048.5" cy="3132.5" r="1.22" stroke-width="0"/><circle cx="4048.5" cy="3132.5" r="0.6" stroke-width="0"/></g><g c_partid="part_via" c_etype="pinpart" c_shapetype="group" c_origin="4039,3028" layerid="1"><circle cx="4039" cy="3028" r="1.22" stroke-width="0"/><circle cx="4039" cy="3028" r="0.6" stroke-width="0"/></g><g c_partid="part_via" c_etype="pinpart" c_shapetype="group" c_origin="4060.5,3083" layerid="1"><circle cx="4060.5" cy="3083" r="1.22" stroke-width="0"/><circle cx="4060.5" cy="3083" r="0.6" stroke-width="0"/></g><g c_partid="part_via" c_etype="pinpart" c_shapetype="group" c_origin="4062,3131" layerid="1"><circle cx="4062" cy="3131" r="1.22" stroke-width="0"/><circle cx="4062" cy="3131" r="0.6" stroke-width="0"/></g><g c_partid="part_via" c_etype="pinpart" c_shapetype="group" c_origin="4058,3131" layerid="1"><circle cx="4058" cy="3131" r="1.22" stroke-width="0"/><circle cx="4058" cy="3131" r="0.6" stroke-width="0"/></g><g c_partid="part_via" c_etype="pinpart" c_shapetype="group" c_origin="4054,3131" layerid="1"><circle cx="4054" cy="3131" r="1.22" stroke-width="0"/><circle cx="4054" cy="3131" r="0.6" stroke-width="0"/></g><g c_partid="part_via" c_etype="pinpart" c_shapetype="group" c_origin="4045.6,3084.9" layerid="1"><circle cx="4045.6" cy="3084.9" r="1.22" stroke-width="0"/><circle cx="4045.6" cy="3084.9" r="0.6" stroke-width="0"/></g><g c_partid="part_via" c_etype="pinpart" c_shapetype="group" c_origin="4074.8,3033.87" layerid="1"><circle cx="4074.8" cy="3033.87" r="2" stroke-width="0"/><circle cx="4074.8" cy="3033.87" r="1.5" stroke-width="0"/></g><g c_partid="part_via" c_etype="pinpart" c_shapetype="group" c_origin="4015.75,3015.75" layerid="1"><circle cx="4015.75" cy="3015.75" r="4.92125" stroke-width="0"/><circle cx="4015.75" cy="3015.75" r="4.92125" stroke-width="0"/></g><g c_partid="part_via" c_etype="pinpart" c_shapetype="group" c_origin="4082.68,3181.1" layerid="1"><circle cx="4082.68" cy="3181.1" r="4.92125" stroke-width="0"/><circle cx="4082.68" cy="3181.1" r="4.92125" stroke-width="0"/></g><g c_partid="part_pad" c_etype="pinpart" c_origin="4081,3017" layerid="7" plated="Y" c_rotation="270" c_width="6" c_height="6" c_shape="ELLIPSE"><ellipse cx="4081" cy="3017" rx="3" ry="3" stroke-width="0"/><circle cx="4081" cy="3017" r="1.8" stroke-width="0"/></g><g c_partid="part_pad" c_etype="pinpart" c_origin="4050,3160" layerid="7" plated="Y" c_rotation="270" c_width="6" c_height="6" c_shape="ELLIPSE"><ellipse cx="4050" cy="3160" rx="3" ry="3" stroke-width="0"/><circle cx="4050" cy="3160" r="1.8" stroke-width="0"/></g><g c_partid="part_pad" c_etype="pinpart" c_origin="4013.01,3179.03" layerid="7" plated="Y" c_rotation="0" c_width="7.4" c_height="7.4" c_shape="ELLIPSE"><ellipse cx="4013.01" cy="3179.03" rx="3.7" ry="3.7" stroke-width="0"/><circle cx="4013.01" cy="3179.03" r="2" stroke-width="0"/></g><g c_partid="part_pad" c_etype="pinpart" c_origin="4032.69,3179" layerid="7" plated="Y" c_rotation="0" c_width="7.4" c_height="7.4" c_shape="ELLIPSE"><ellipse cx="4032.69" cy="3179" rx="3.7" ry="3.7" stroke-width="0"/><circle cx="4032.69" cy="3179" r="2" stroke-width="0"/></g><g c_partid="part_pad" c_etype="pinpart" c_origin="4062.99,3016.97" layerid="7" plated="Y" c_rotation="180" c_width="7.4" c_height="7.4" c_shape="ELLIPSE"><ellipse cx="4062.99" cy="3016.97" rx="3.7" ry="3.7" stroke-width="0"/><circle cx="4062.99" cy="3016.97" r="2" stroke-width="0"/></g><g c_partid="part_pad" c_etype="pinpart" c_origin="4043.31,3017" layerid="7" plated="Y" c_rotation="180" c_width="7.4" c_height="7.4" c_shape="ELLIPSE"><ellipse cx="4043.31" cy="3017" rx="3.7" ry="3.7" stroke-width="0"/><circle cx="4043.31" cy="3017" r="2" stroke-width="0"/></g><g c_partid="part_pad" c_etype="pinpart" c_origin="4033,3090" layerid="7" plated="Y" c_rotation="0" c_width="1.77165" c_height="6.49606" c_shape="OVAL"><polyline points="4033 3087.638 4033 3092.362" stroke-width="1.77165"/><circle cx="4033" cy="3090" r="0.001" stroke-width="0"/></g><g c_partid="part_pad" c_etype="pinpart" c_origin="4036.15,3090" layerid="7" plated="Y" c_rotation="0" c_width="1.77165" c_height="6.49606" c_shape="OVAL"><polyline points="4036.15 3087.638 4036.15 3092.362" stroke-width="1.77165"/><circle cx="4036.15" cy="3090" r="0.001" stroke-width="0"/></g><g c_partid="part_pad" c_etype="pinpart" c_origin="4039.3,3090" layerid="7" plated="Y" c_rotation="0" c_width="1.77165" c_height="6.49606" c_shape="OVAL"><polyline points="4039.3 3087.638 4039.3 3092.362" stroke-width="1.77165"/><circle cx="4039.3" cy="3090" r="0.001" stroke-width="0"/></g><g c_partid="part_pad" c_etype="pinpart" c_origin="4042.45,3090" layerid="7" plated="Y" c_rotation="0" c_width="1.77165" c_height="6.49606" c_shape="OVAL"><polyline points="4042.45 3087.638 4042.45 3092.362" stroke-width="1.77165"/><circle cx="4042.45" cy="3090" r="0.001" stroke-width="0"/></g><g c_partid="part_pad" c_etype="pinpart" c_origin="4045.59,3090" layerid="7" plated="Y" c_rotation="0" c_width="1.77165" c_height="6.49606" c_shape="OVAL"><polyline points="4045.59 3087.638 4045.59 3092.362" stroke-width="1.77165"/><circle cx="4045.59" cy="3090" r="0.001" stroke-width="0"/></g><g c_partid="part_pad" c_etype="pinpart" c_origin="4048.74,3090" layerid="7" plated="Y" c_rotation="0" c_width="1.77165" c_height="6.49606" c_shape="OVAL"><polyline points="4048.74 3087.638 4048.74 3092.362" stroke-width="1.77165"/><circle cx="4048.74" cy="3090" r="0.001" stroke-width="0"/></g><g c_partid="part_pad" c_etype="pinpart" c_origin="4051.89,3090" layerid="7" plated="Y" c_rotation="0" c_width="1.77165" c_height="6.49606" c_shape="OVAL"><polyline points="4051.89 3087.638 4051.89 3092.362" stroke-width="1.77165"/><circle cx="4051.89" cy="3090" r="0.001" stroke-width="0"/></g><g c_partid="part_pad" c_etype="pinpart" c_origin="4055.04,3090" layerid="7" plated="Y" c_rotation="0" c_width="1.77165" c_height="6.49606" c_shape="OVAL"><polyline points="4055.04 3087.638 4055.04 3092.362" stroke-width="1.77165"/><circle cx="4055.04" cy="3090" r="0.001" stroke-width="0"/></g><g c_partid="part_pad" c_etype="pinpart" c_origin="4060.46,3095.42" layerid="7" plated="Y" c_rotation="90" c_width="1.77165" c_height="6.49606" c_shape="OVAL"><polyline points="4058.098 3095.42 4062.822 3095.42" stroke-width="1.77165"/><circle cx="4060.46" cy="3095.42" r="0.001" stroke-width="0"/></g><g c_partid="part_pad" c_etype="pinpart" c_origin="4060.46,3098.57" layerid="7" plated="Y" c_rotation="90" c_width="1.77165" c_height="6.49606" c_shape="OVAL"><polyline points="4058.098 3098.57 4062.822 3098.57" stroke-width="1.77165"/><circle cx="4060.46" cy="3098.57" r="0.001" stroke-width="0"/></g><g c_partid="part_pad" c_etype="pinpart" c_origin="4060.46,3101.72" layerid="7" plated="Y" c_rotation="90" c_width="1.77165" c_height="6.49606" c_shape="OVAL"><polyline points="4058.098 3101.72 4062.822 3101.72" stroke-width="1.77165"/><circle cx="4060.46" cy="3101.72" r="0.001" stroke-width="0"/></g><g c_partid="part_pad" c_etype="pinpart" c_origin="4060.46,3104.87" layerid="7" plated="Y" c_rotation="90" c_width="1.77165" c_height="6.49606" c_shape="OVAL"><polyline points="4058.098 3104.87 4062.822 3104.87" stroke-width="1.77165"/><circle cx="4060.46" cy="3104.87" r="0.001" stroke-width="0"/></g><g c_partid="part_pad" c_etype="pinpart" c_origin="4060.46,3108.01" layerid="7" plated="Y" c_rotation="90" c_width="1.77165" c_height="6.49606" c_shape="OVAL"><polyline points="4058.098 3108.01 4062.822 3108.01" stroke-width="1.77165"/><circle cx="4060.46" cy="3108.01" r="0.001" stroke-width="0"/></g><g c_partid="part_pad" c_etype="pinpart" c_origin="4060.46,3111.16" layerid="7" plated="Y" c_rotation="90" c_width="1.77165" c_height="6.49606" c_shape="OVAL"><polyline points="4058.098 3111.16 4062.822 3111.16" stroke-width="1.77165"/><circle cx="4060.46" cy="3111.16" r="0.001" stroke-width="0"/></g><g c_partid="part_pad" c_etype="pinpart" c_origin="4060.46,3114.31" layerid="7" plated="Y" c_rotation="90" c_width="1.77165" c_height="6.49606" c_shape="OVAL"><polyline points="4058.098 3114.31 4062.822 3114.31" stroke-width="1.77165"/><circle cx="4060.46" cy="3114.31" r="0.001" stroke-width="0"/></g><g c_partid="part_pad" c_etype="pinpart" c_origin="4060.46,3117.46" layerid="7" plated="Y" c_rotation="90" c_width="1.77165" c_height="6.49606" c_shape="OVAL"><polyline points="4058.098 3117.46 4062.822 3117.46" stroke-width="1.77165"/><circle cx="4060.46" cy="3117.46" r="0.001" stroke-width="0"/></g><g c_partid="part_pad" c_etype="pinpart" c_origin="4055.04,3122.88" layerid="7" plated="Y" c_rotation="0" c_width="1.77165" c_height="6.49606" c_shape="OVAL"><polyline points="4055.04 3120.518 4055.04 3125.242" stroke-width="1.77165"/><circle cx="4055.04" cy="3122.88" r="0.001" stroke-width="0"/></g><g c_partid="part_pad" c_etype="pinpart" c_origin="4051.89,3122.88" layerid="7" plated="Y" c_rotation="0" c_width="1.77165" c_height="6.49606" c_shape="OVAL"><polyline points="4051.89 3120.518 4051.89 3125.242" stroke-width="1.77165"/><circle cx="4051.89" cy="3122.88" r="0.001" stroke-width="0"/></g><g c_partid="part_pad" c_etype="pinpart" c_origin="4048.74,3122.88" layerid="7" plated="Y" c_rotation="0" c_width="1.77165" c_height="6.49606" c_shape="OVAL"><polyline points="4048.74 3120.518 4048.74 3125.242" stroke-width="1.77165"/><circle cx="4048.74" cy="3122.88" r="0.001" stroke-width="0"/></g><g c_partid="part_pad" c_etype="pinpart" c_origin="4045.59,3122.88" layerid="7" plated="Y" c_rotation="0" c_width="1.77165" c_height="6.49606" c_shape="OVAL"><polyline points="4045.59 3120.518 4045.59 3125.242" stroke-width="1.77165"/><circle cx="4045.59" cy="3122.88" r="0.001" stroke-width="0"/></g><g c_partid="part_pad" c_etype="pinpart" c_origin="4042.45,3122.88" layerid="7" plated="Y" c_rotation="0" c_width="1.77165" c_height="6.49606" c_shape="OVAL"><polyline points="4042.45 3120.518 4042.45 3125.242" stroke-width="1.77165"/><circle cx="4042.45" cy="3122.88" r="0.001" stroke-width="0"/></g><g c_partid="part_pad" c_etype="pinpart" c_origin="4039.3,3122.88" layerid="7" plated="Y" c_rotation="0" c_width="1.77165" c_height="6.49606" c_shape="OVAL"><polyline points="4039.3 3120.518 4039.3 3125.242" stroke-width="1.77165"/><circle cx="4039.3" cy="3122.88" r="0.001" stroke-width="0"/></g><g c_partid="part_pad" c_etype="pinpart" c_origin="4036.15,3122.88" layerid="7" plated="Y" c_rotation="0" c_width="1.77165" c_height="6.49606" c_shape="OVAL"><polyline points="4036.15 3120.518 4036.15 3125.242" stroke-width="1.77165"/><circle cx="4036.15" cy="3122.88" r="0.001" stroke-width="0"/></g><g c_partid="part_pad" c_etype="pinpart" c_origin="4033,3122.88" layerid="7" plated="Y" c_rotation="0" c_width="1.77165" c_height="6.49606" c_shape="OVAL"><polyline points="4033 3120.518 4033 3125.242" stroke-width="1.77165"/><circle cx="4033" cy="3122.88" r="0.001" stroke-width="0"/></g><g c_partid="part_pad" c_etype="pinpart" c_origin="4027.58,3117.46" layerid="7" plated="Y" c_rotation="90" c_width="1.77165" c_height="6.49606" c_shape="OVAL"><polyline points="4025.218 3117.46 4029.942 3117.46" stroke-width="1.77165"/><circle cx="4027.58" cy="3117.46" r="0.001" stroke-width="0"/></g><g c_partid="part_pad" c_etype="pinpart" c_origin="4027.58,3114.31" layerid="7" plated="Y" c_rotation="90" c_width="1.77165" c_height="6.49606" c_shape="OVAL"><polyline points="4025.218 3114.31 4029.942 3114.31" stroke-width="1.77165"/><circle cx="4027.58" cy="3114.31" r="0.001" stroke-width="0"/></g><g c_partid="part_pad" c_etype="pinpart" c_origin="4027.58,3111.16" layerid="7" plated="Y" c_rotation="90" c_width="1.77165" c_height="6.49606" c_shape="OVAL"><polyline points="4025.218 3111.16 4029.942 3111.16" stroke-width="1.77165"/><circle cx="4027.58" cy="3111.16" r="0.001" stroke-width="0"/></g><g c_partid="part_pad" c_etype="pinpart" c_origin="4027.58,3108.01" layerid="7" plated="Y" c_rotation="90" c_width="1.77165" c_height="6.49606" c_shape="OVAL"><polyline points="4025.218 3108.01 4029.942 3108.01" stroke-width="1.77165"/><circle cx="4027.58" cy="3108.01" r="0.001" stroke-width="0"/></g><g c_partid="part_pad" c_etype="pinpart" c_origin="4027.58,3104.87" layerid="7" plated="Y" c_rotation="90" c_width="1.77165" c_height="6.49606" c_shape="OVAL"><polyline points="4025.218 3104.87 4029.942 3104.87" stroke-width="1.77165"/><circle cx="4027.58" cy="3104.87" r="0.001" stroke-width="0"/></g><g c_partid="part_pad" c_etype="pinpart" c_origin="4027.58,3101.72" layerid="7" plated="Y" c_rotation="90" c_width="1.77165" c_height="6.49606" c_shape="OVAL"><polyline points="4025.218 3101.72 4029.942 3101.72" stroke-width="1.77165"/><circle cx="4027.58" cy="3101.72" r="0.001" stroke-width="0"/></g><g c_partid="part_pad" c_etype="pinpart" c_origin="4027.58,3098.57" layerid="7" plated="Y" c_rotation="90" c_width="1.77165" c_height="6.49606" c_shape="OVAL"><polyline points="4025.218 3098.57 4029.942 3098.57" stroke-width="1.77165"/><circle cx="4027.58" cy="3098.57" r="0.001" stroke-width="0"/></g><g c_partid="part_pad" c_etype="pinpart" c_origin="4027.58,3095.42" layerid="7" plated="Y" c_rotation="90" c_width="1.77165" c_height="6.49606" c_shape="OVAL"><polyline points="4025.218 3095.42 4029.942 3095.42" stroke-width="1.77165"/><circle cx="4027.58" cy="3095.42" r="0.001" stroke-width="0"/></g><g c_partid="part_pad" c_etype="pinpart" c_origin="4062,3161.5" layerid="7" plated="Y" c_rotation="0" c_width="6.4" c_height="10" c_shape="OVAL"><polyline points="4062 3159.7 4062 3163.3" stroke-width="6.4"/><circle cx="4062" cy="3161.5" r="2" stroke-width="0"/></g><g c_partid="part_pad" c_etype="pinpart" c_origin="4066,3067" layerid="7" plated="Y" c_rotation="180" c_width="6.3" c_height="6.3" c_shape="RECT"><polygon points="4069.15 3070.15 4062.85 3070.15 4062.85 3063.85 4069.15 3063.85" stroke-width="0"/><circle cx="4066" cy="3067" r="0.001" stroke-width="0"/></g><g c_partid="part_pad" c_etype="pinpart" c_origin="4054.98,3067" layerid="7" plated="Y" c_rotation="180" c_width="6.3" c_height="6.3" c_shape="RECT"><polygon points="4058.13 3070.15 4051.83 3070.15 4051.83 3063.85 4058.13 3063.85" stroke-width="0"/><circle cx="4054.98" cy="3067" r="0.001" stroke-width="0"/></g><g c_partid="part_pad" c_etype="pinpart" c_origin="4034.299,3067" layerid="7" plated="Y" c_rotation="180" c_width="5.1181" c_height="6.2992" c_shape="RECT"><polygon points="4036.858 3070.15 4031.74 3070.15 4031.74 3063.85 4036.858 3063.85" stroke-width="0"/><circle cx="4034.299" cy="3067" r="0.001" stroke-width="0"/></g><g c_partid="part_pad" c_etype="pinpart" c_origin="4021.701,3067" layerid="7" plated="Y" c_rotation="180" c_width="5.1181" c_height="6.2992" c_shape="RECT"><polygon points="4024.26 3070.15 4019.142 3070.15 4019.142 3063.85 4024.26 3063.85" stroke-width="0"/><circle cx="4021.701" cy="3067" r="0.001" stroke-width="0"/></g><g c_partid="part_pad" c_etype="pinpart" c_origin="4009,3078" layerid="7" plated="Y" c_rotation="90" c_width="6.3" c_height="6.3" c_shape="RECT"><polygon points="4005.85 3081.15 4005.85 3074.85 4012.15 3074.85 4012.15 3081.15" stroke-width="0"/><circle cx="4009" cy="3078" r="0.001" stroke-width="0"/></g><g c_partid="part_pad" c_etype="pinpart" c_origin="4009,3066.98" layerid="7" plated="Y" c_rotation="90" c_width="6.3" c_height="6.3" c_shape="RECT"><polygon points="4005.85 3070.13 4005.85 3063.83 4012.15 3063.83 4012.15 3070.13" stroke-width="0"/><circle cx="4009" cy="3066.98" r="0.001" stroke-width="0"/></g><g c_partid="part_pad" c_etype="pinpart" c_origin="4077,3151" layerid="7" plated="Y" c_rotation="90" c_width="2.3622" c_height="7.0866" c_shape="RECT"><polygon points="4073.457 3152.181 4073.457 3149.819 4080.543 3149.819 4080.543 3152.181" stroke-width="0"/><circle cx="4077" cy="3151" r="0.001" stroke-width="0"/></g><g c_partid="part_pad" c_etype="pinpart" c_origin="4077,3146.08" layerid="7" plated="Y" c_rotation="90" c_width="2.3622" c_height="7.0866" c_shape="RECT"><polygon points="4073.457 3147.261 4073.457 3144.899 4080.543 3144.899 4080.543 3147.261" stroke-width="0"/><circle cx="4077" cy="3146.08" r="0.001" stroke-width="0"/></g><g c_partid="part_pad" c_etype="pinpart" c_origin="4077,3141.16" layerid="7" plated="Y" c_rotation="90" c_width="2.3622" c_height="7.0866" c_shape="RECT"><polygon points="4073.457 3142.341 4073.457 3139.979 4080.543 3139.979 4080.543 3142.341" stroke-width="0"/><circle cx="4077" cy="3141.16" r="0.001" stroke-width="0"/></g><g c_partid="part_pad" c_etype="pinpart" c_origin="4077,3136.24" layerid="7" plated="Y" c_rotation="90" c_width="2.3622" c_height="7.0866" c_shape="RECT"><polygon points="4073.457 3137.421 4073.457 3135.059 4080.543 3135.059 4080.543 3137.421" stroke-width="0"/><circle cx="4077" cy="3136.24" r="0.001" stroke-width="0"/></g><g c_partid="part_pad" c_etype="pinpart" c_origin="4077,3131.31" layerid="7" plated="Y" c_rotation="90" c_width="2.3622" c_height="7.0866" c_shape="RECT"><polygon points="4073.457 3132.491 4073.457 3130.129 4080.543 3130.129 4080.543 3132.491" stroke-width="0"/><circle cx="4077" cy="3131.31" r="0.001" stroke-width="0"/></g><g c_partid="part_pad" c_etype="pinpart" c_origin="4077,3126.39" layerid="7" plated="Y" c_rotation="90" c_width="2.3622" c_height="7.0866" c_shape="RECT"><polygon points="4073.457 3127.571 4073.457 3125.209 4080.543 3125.209 4080.543 3127.571" stroke-width="0"/><circle cx="4077" cy="3126.39" r="0.001" stroke-width="0"/></g><g c_partid="part_pad" c_etype="pinpart" c_origin="4077,3121.47" layerid="7" plated="Y" c_rotation="90" c_width="2.3622" c_height="7.0866" c_shape="RECT"><polygon points="4073.457 3122.651 4073.457 3120.289 4080.543 3120.289 4080.543 3122.651" stroke-width="0"/><circle cx="4077" cy="3121.47" r="0.001" stroke-width="0"/></g><g c_partid="part_pad" c_etype="pinpart" c_origin="4077,3116.55" layerid="7" plated="Y" c_rotation="90" c_width="2.3622" c_height="7.0866" c_shape="RECT"><polygon points="4073.457 3117.731 4073.457 3115.369 4080.543 3115.369 4080.543 3117.731" stroke-width="0"/><circle cx="4077" cy="3116.55" r="0.001" stroke-width="0"/></g><g c_partid="part_pad" c_etype="pinpart" c_origin="4089.6,3107.73" layerid="7" plated="Y" c_rotation="90" c_width="8" c_height="11.0236" c_shape="RECT"><polygon points="4084.088 3111.73 4084.088 3103.73 4095.112 3103.73 4095.112 3111.73" stroke-width="0"/><circle cx="4089.6" cy="3107.73" r="0.001" stroke-width="0"/></g><g c_partid="part_pad" c_etype="pinpart" c_origin="4089.6,3159.8" layerid="7" plated="Y" c_rotation="90" c_width="8" c_height="11.0236" c_shape="RECT"><polygon points="4084.088 3163.8 4084.088 3155.8 4095.112 3155.8 4095.112 3163.8" stroke-width="0"/><circle cx="4089.6" cy="3159.8" r="0.001" stroke-width="0"/></g><g c_partid="part_pad" c_etype="pinpart" c_origin="4022.63,3038.1" layerid="7" plated="Y" c_rotation="0" c_width="7.4" c_height="7.4" c_shape="ELLIPSE"><ellipse cx="4022.63" cy="3038.1" rx="3.7" ry="3.7" stroke-width="0"/><circle cx="4022.63" cy="3038.1" r="2" stroke-width="0"/></g><g c_partid="part_pad" c_etype="pinpart" c_origin="4048.23,3038.1" layerid="7" plated="Y" c_rotation="0" c_width="7.4" c_height="7.4" c_shape="ELLIPSE"><ellipse cx="4048.23" cy="3038.1" rx="3.7" ry="3.7" stroke-width="0"/><circle cx="4048.23" cy="3038.1" r="2" stroke-width="0"/></g><g c_partid="part_pad" c_etype="pinpart" c_origin="4022.63,3055.9" layerid="7" plated="Y" c_rotation="0" c_width="7.4" c_height="7.4" c_shape="ELLIPSE"><ellipse cx="4022.63" cy="3055.9" rx="3.7" ry="3.7" stroke-width="0"/><circle cx="4022.63" cy="3055.9" r="2" stroke-width="0"/></g><g c_partid="part_pad" c_etype="pinpart" c_origin="4048.23,3055.9" layerid="7" plated="Y" c_rotation="0" c_width="7.4" c_height="7.4" c_shape="ELLIPSE"><ellipse cx="4048.23" cy="3055.9" rx="3.7" ry="3.7" stroke-width="0"/><circle cx="4048.23" cy="3055.9" r="2" stroke-width="0"/></g><g c_partid="part_pad" c_etype="pinpart" c_origin="4011.81,3047" layerid="7" plated="Y" c_rotation="0" c_width="6.4" c_height="6.4" c_shape="ELLIPSE"><ellipse cx="4011.81" cy="3047" rx="3.2" ry="3.2" stroke-width="0"/><circle cx="4011.81" cy="3047" r="1.8" stroke-width="0"/></g><g c_partid="part_pad" c_etype="pinpart" c_origin="4011.81,3037" layerid="7" plated="Y" c_rotation="0" c_width="6.4" c_height="6.4" c_shape="ELLIPSE"><ellipse cx="4011.81" cy="3037" rx="3.2" ry="3.2" stroke-width="0"/><circle cx="4011.81" cy="3037" r="1.8" stroke-width="0"/></g><g c_partid="part_pad" c_etype="pinpart" c_origin="4011.81,3057" layerid="7" plated="Y" c_rotation="0" c_width="6.4" c_height="6.4" c_shape="ELLIPSE"><ellipse cx="4011.81" cy="3057" rx="3.2" ry="3.2" stroke-width="0"/><circle cx="4011.81" cy="3057" r="1.8" stroke-width="0"/></g><g c_partid="part_pad" c_etype="pinpart" c_origin="4078,3063" layerid="7" plated="Y" c_rotation="270" c_width="6" c_height="6" c_shape="RECT"><polygon points="4081 3060 4081 3066 4075 3066 4075 3060" stroke-width="0"/><circle cx="4078" cy="3063" r="1.8" stroke-width="0"/></g><g c_partid="part_pad" c_etype="pinpart" c_origin="4078,3072.84" layerid="7" plated="Y" c_rotation="270" c_width="6" c_height="6" c_shape="ELLIPSE"><ellipse cx="4078" cy="3072.84" rx="3" ry="3" stroke-width="0"/><circle cx="4078" cy="3072.84" r="1.8" stroke-width="0"/></g><g c_partid="part_pad" c_etype="pinpart" c_origin="4078,3082.69" layerid="7" plated="Y" c_rotation="270" c_width="6" c_height="6" c_shape="ELLIPSE"><ellipse cx="4078" cy="3082.69" rx="3" ry="3" stroke-width="0"/><circle cx="4078" cy="3082.69" r="1.8" stroke-width="0"/></g><g c_partid="part_pad" c_etype="pinpart" c_origin="4078,3092.53" layerid="7" plated="Y" c_rotation="270" c_width="6" c_height="6" c_shape="ELLIPSE"><ellipse cx="4078" cy="3092.53" rx="3" ry="3" stroke-width="0"/><circle cx="4078" cy="3092.53" r="1.8" stroke-width="0"/></g><g c_partid="part_pad" c_etype="pinpart" c_origin="4060,3047" layerid="7" plated="Y" c_rotation="90" c_width="4" c_height="4.5" c_shape="RECT"><polygon points="4057.75 3049 4057.75 3045 4062.25 3045 4062.25 3049" stroke-width="0"/><circle cx="4060" cy="3047" r="0.001" stroke-width="0"/></g><g c_partid="part_pad" c_etype="pinpart" c_origin="4068,3043.5" layerid="7" plated="Y" c_rotation="90" c_width="4" c_height="4.5" c_shape="RECT"><polygon points="4065.75 3045.5 4065.75 3041.5 4070.25 3041.5 4070.25 3045.5" stroke-width="0"/><circle cx="4068" cy="3043.5" r="0.001" stroke-width="0"/></g><g c_partid="part_pad" c_etype="pinpart" c_origin="4068,3050.5" layerid="7" plated="Y" c_rotation="270" c_width="4" c_height="4.5" c_shape="RECT"><polygon points="4070.25 3048.5 4070.25 3052.5 4065.75 3052.5 4065.75 3048.5" stroke-width="0"/><circle cx="4068" cy="3050.5" r="0.001" stroke-width="0"/></g><g c_partid="part_pad" c_etype="pinpart" c_origin="4011,3152.6" layerid="7" plated="Y" c_rotation="0" c_width="4.3" c_height="8.5" c_shape="RECT"><polygon points="4008.85 3148.35 4013.15 3148.35 4013.15 3156.85 4008.85 3156.85" stroke-width="0"/><circle cx="4011" cy="3152.6" r="0.001" stroke-width="0"/></g><g c_partid="part_pad" c_etype="pinpart" c_origin="4020.1,3152.6" layerid="7" plated="Y" c_rotation="0" c_width="4.3" c_height="8.5" c_shape="RECT"><polygon points="4017.95 3148.35 4022.25 3148.35 4022.25 3156.85 4017.95 3156.85" stroke-width="0"/><circle cx="4020.1" cy="3152.6" r="0.001" stroke-width="0"/></g><g c_partid="part_pad" c_etype="pinpart" c_origin="4029.1,3152.6" layerid="7" plated="Y" c_rotation="0" c_width="4.3" c_height="8.5" c_shape="RECT"><polygon points="4026.95 3148.35 4031.25 3148.35 4031.25 3156.85 4026.95 3156.85" stroke-width="0"/><circle cx="4029.1" cy="3152.6" r="0.001" stroke-width="0"/></g><g c_partid="part_pad" c_etype="pinpart" c_origin="4020.1,3128.2" layerid="7" plated="Y" c_rotation="0" c_width="13.8" c_height="8.5" c_shape="RECT"><polygon points="4013.2 3123.95 4027 3123.95 4027 3132.45 4013.2 3132.45" stroke-width="0"/><circle cx="4020.1" cy="3128.2" r="0.001" stroke-width="0"/></g><g c_partid="part_pad" c_etype="pinpart" c_origin="4060.2,3148" layerid="7" plated="Y" c_rotation="0" c_width="9.4" c_height="9.4" c_shape="RECT"><polygon points="4055.5 3143.3 4064.9 3143.3 4064.9 3152.7 4055.5 3152.7" stroke-width="0"/><circle cx="4060.2" cy="3148" r="0.001" stroke-width="0"/></g><g c_partid="part_pad" c_etype="pinpart" c_origin="4041.9,3148" layerid="7" plated="Y" c_rotation="0" c_width="9.4" c_height="9.4" c_shape="RECT"><polygon points="4037.2 3143.3 4046.6 3143.3 4046.6 3152.7 4037.2 3152.7" stroke-width="0"/><circle cx="4041.9" cy="3148" r="0.001" stroke-width="0"/></g><g c_partid="part_pad" c_etype="pinpart" c_origin="4022,3163.46" layerid="7" plated="Y" c_rotation="90" c_width="5.9055" c_height="19.685" c_shape="OVAL"><polyline points="4015.11 3163.46 4028.89 3163.46" stroke-width="5.9055"/><polyline points="4026.921 3163.46 4017.079 3163.46" stroke-width="3.937"/></g><g c_partid="part_pad" c_etype="pinpart" c_origin="4022,3186.67" layerid="7" plated="Y" c_rotation="90" c_width="5.9055" c_height="13.779" c_shape="OVAL"><polyline points="4018.063 3186.67 4025.937 3186.67" stroke-width="5.9055"/><polyline points="4025.937 3186.67 4018.063 3186.67" stroke-width="3.937"/></g><g c_partid="part_pad" c_etype="pinpart" c_origin="4040.5,3174.5" layerid="7" plated="Y" c_rotation="180" c_width="5.9055" c_height="11.811" c_shape="OVAL"><polyline points="4040.5 3177.453 4040.5 3171.547" stroke-width="5.9055"/><polyline points="4040.5 3172.531 4040.5 3176.468" stroke-width="3.937"/></g><g c_partid="part_pad" c_etype="pinpart" c_origin="4088,3043" layerid="7" plated="Y" c_rotation="90" c_width="6.3" c_height="6.3" c_shape="RECT"><polygon points="4084.85 3046.15 4084.85 3039.85 4091.15 3039.85 4091.15 3046.15" stroke-width="0"/><circle cx="4088" cy="3043" r="0.001" stroke-width="0"/></g><g c_partid="part_pad" c_etype="pinpart" c_origin="4088,3031.98" layerid="7" plated="Y" c_rotation="90" c_width="6.3" c_height="6.3" c_shape="RECT"><polygon points="4084.85 3035.13 4084.85 3028.83 4091.15 3028.83 4091.15 3035.13" stroke-width="0"/><circle cx="4088" cy="3031.98" r="0.001" stroke-width="0"/></g><polyline points="4033.472 3001.252 4033.472 3030.779" stroke-width="1" c_shapetype="line" stroke-linecap="round" fill="none" layerid="3"/><polyline points="4072.851 3001.255 4072.851 3030.782" stroke-width="1" c_shapetype="line" stroke-linecap="round" fill="none" layerid="3"/><polyline points="4072.842 3030.779 4033.472 3030.779" stroke-width="1" c_shapetype="line" stroke-linecap="round" fill="none" layerid="3"/><polyline points="4072.842 3001.252 4033.472 3001.252" stroke-width="1" c_shapetype="line" stroke-linecap="round" fill="none" layerid="3"/><polyline points="4053.157 3030.779 4053.157 3001.252" stroke-width="0.591" c_shapetype="line" stroke-linecap="round" fill="none" layerid="3"/><polyline points="4055.634 3094.826 4032.406 3094.826 4032.406 3118.054 4055.634 3118.054 4055.634 3094.826" stroke-width="1" c_shapetype="line" stroke-linecap="round" fill="none" layerid="3"/><polyline points="4070.331 3071.331 4050.646 3071.331 4050.646 3062.669 4070.331 3062.669 4070.331 3071.331" stroke-width="0.8999986" c_shapetype="line" stroke-linecap="round" fill="none" layerid="3"/><polyline points="4030.8 3071.1 4037.8 3071.1 4037.8 3062.9 4030.8 3062.9" stroke-width="1" c_shapetype="line" stroke-linecap="round" fill="none" layerid="3"/><polyline points="4025.2 3062.9 4018.2 3062.9 4018.2 3071.1 4025.2 3071.1" stroke-width="1" c_shapetype="line" stroke-linecap="round" fill="none" layerid="3"/><polyline points="4004.669 3082.331 4004.669 3062.646 4013.331 3062.646 4013.331 3082.331 4004.669 3082.331" stroke-width="0.8999986" c_shapetype="line" stroke-linecap="round" fill="none" layerid="3"/><polyline points="4094.52 3153.461 4094.52 3114.091" stroke-width="0.4724" c_shapetype="line" stroke-linecap="round" fill="none" layerid="3"/><polyline points="4081.921 3160.153 4077.591 3160.153 4077.591 3154.051 4079.559 3154.051 4079.559 3158.185 4081.921 3158.185 4081.921 3160.153" stroke-width="0.4724" c_shapetype="line" stroke-linecap="round" fill="none" layerid="3"/><polyline points="4081.921 3107.398 4077.591 3107.398 4077.591 3113.5 4079.559 3113.5 4079.559 3109.366 4081.921 3109.366 4081.921 3107.398" stroke-width="0.4724" c_shapetype="line" stroke-linecap="round" fill="none" layerid="3"/><polyline points="4074.835 3154.937 4073.654 3157.299 4076.016 3157.299 4074.835 3154.937" stroke-width="0.4724" c_shapetype="line" stroke-linecap="round" fill="none" layerid="3"/><polyline points="4043.93 3035 4026.93 3035" stroke-width="1" c_shapetype="line" stroke-linecap="round" fill="none" layerid="3"/><polyline points="4026.93 3059 4043.93 3059" stroke-width="1" c_shapetype="line" stroke-linecap="round" fill="none" layerid="3"/><polyline points="4047.43 3043.1 4047.43 3051" stroke-width="1" c_shapetype="line" stroke-linecap="round" fill="none" layerid="3"/><polyline points="4023.43 3043 4023.43 3051" stroke-width="1" c_shapetype="line" stroke-linecap="round" fill="none" layerid="3"/><polyline points="4007.81 3052.6 4015.81 3052.6" stroke-width="1" c_shapetype="line" stroke-linecap="round" fill="none" layerid="3"/><polyline points="4083 3058 4083 3098 4073 3098 4073 3058 4083 3058 4083 3068" stroke-width="1" c_shapetype="line" stroke-linecap="round" fill="none" layerid="3"/><polyline points="4066.5 3047.7 4066.5 3046.3" stroke-width="1" c_shapetype="line" stroke-linecap="round" fill="none" layerid="3"/><polyline points="4065 3041.3 4061.5 3041.3 4061.5 3044.3" stroke-width="1" c_shapetype="line" stroke-linecap="round" fill="none" layerid="3"/><polyline points="4061.5 3049.7 4061.5 3052.7 4065 3052.7" stroke-width="1" c_shapetype="line" stroke-linecap="round" fill="none" layerid="3"/><polyline points="4033.26 3146.81 4006.88 3146.81 4006.88 3134.02 4033.26 3134.02 4033.26 3146.81" stroke-width="0.79" c_shapetype="line" stroke-linecap="round" fill="none" layerid="3"/><polyline points="4047.6 3142 4047.6 3154" stroke-width="1" c_shapetype="line" stroke-linecap="round" fill="none" layerid="3"/><polyline points="4046.8 3141.7 4054.8 3141.7" stroke-width="1" c_shapetype="line" stroke-linecap="round" fill="none" layerid="3"/><polyline points="4054.8 3154.3 4054.8 3141.7" stroke-width="1" c_shapetype="line" stroke-linecap="round" fill="none" layerid="3"/><polyline points="4054.8 3154.3 4046.8 3154.3" stroke-width="1" c_shapetype="line" stroke-linecap="round" fill="none" layerid="3"/><polyline points="4002.315 3193.378 4002.315 3157.945" stroke-width="1" c_shapetype="line" stroke-linecap="round" fill="none" layerid="3"/><polyline points="4045.622 3193.378 4045.622 3157.945" stroke-width="1" c_shapetype="line" stroke-linecap="round" fill="none" layerid="3"/><polyline points="4002.315 3157.945 4045.622 3157.945" stroke-width="1" c_shapetype="line" stroke-linecap="round" fill="none" layerid="3"/><polyline points="4083.669 3047.331 4083.669 3027.646 4092.331 3027.646 4092.331 3047.331 4083.669 3047.331" stroke-width="0.8999986" c_shapetype="line" stroke-linecap="round" fill="none" layerid="3"/><path d="M 4059.063 3001.252 A 3.937 3.937 0 1 0 4066.937 3001.252" c_shapetype="line" fill="none" stroke-width="0.591" c_helper_type="arc2" layerid="3"/><path d="M 4039.3905 3001.262 A 3.937 3.937 0 1 0 4047.2645 3001.262" c_shapetype="line" fill="none" stroke-width="0.591" c_helper_type="arc2" layerid="3"/><path d="M 4027.68 3091.87 A 0.59055 0.59055 0 1 0 4027.68 3091.88" c_shapetype="line" fill="none" stroke-width="1.1811" c_helper_type="arc2" layerid="3"/><path d="M 4036.15 3097.78 A 0.7874 0.7874 0 1 0 4036.15 3097.79" c_shapetype="line" fill="none" stroke-width="1.5748" c_helper_type="arc2" layerid="3"/><path d="M 4015.91 3052.6 A 6.504 6.504 0 1 0 4007.71 3052.6" c_shapetype="line" fill="none" stroke-width="1" c_helper_type="arc2" layerid="3"/><g c_partid="part_pcbtext" c_origin="4006.79,3122.64" c_rotation="270" c_mirror="" layerid="3" c_shapetype="group"><path c_fontSize="5.1181" c_fontFamily="" c_text="MySensors" d="M 4004 3122.6399 L 4008.88 3122.6399 M 4004 3122.6399 L 4008.88 3120.7799 M 4004 3118.9199 L 4008.88 3120.7799 M 4004 3118.9199 L 4008.88 3118.9199 M 4005.63 3117.1499 L 4008.88 3115.7499 M 4005.63 3114.3599 L 4008.88 3115.7499 L 4009.81 3116.2199 L 4010.28 3116.6799 L 4010.51 3117.1499 L 4010.51 3117.3799 M 4004.7 3109.5699 L 4004.23 3110.0299 L 4004 3110.7299 L 4004 3111.6599 L 4004.23 3112.3599 L 4004.7 3112.8199 L 4005.16 3112.8199 L 4005.63 3112.5899 L 4005.86 3112.3599 L 4006.09 3111.8899 L 4006.56 3110.4999 L 4006.79 3110.0299 L 4007.02 3109.7999 L 4007.49 3109.5699 L 4008.19 3109.5699 L 4008.65 3110.0299 L 4008.88 3110.7299 L 4008.88 3111.6599 L 4008.65 3112.3599 L 4008.19 3112.8199 M 4007.02 3108.0299 L 4007.02 3105.2399 L 4006.56 3105.2399 L 4006.09 3105.4699 L 4005.86 3105.6999 L 4005.63 3106.1699 L 4005.63 3106.8699 L 4005.86 3107.3299 L 4006.32 3107.7999 L 4007.02 3108.0299 L 4007.49 3108.0299 L 4008.19 3107.7999 L 4008.65 3107.3299 L 4008.88 3106.8699 L 4008.88 3106.1699 L 4008.65 3105.6999 L 4008.19 3105.2399 M 4005.63 3103.6999 L 4008.88 3103.6999 M 4006.56 3103.6999 L 4005.86 3103.0099 L 4005.63 3102.5399 L 4005.63 3101.8399 L 4005.86 3101.3799 L 4006.56 3101.1399 L 4008.88 3101.1399 M 4006.32 3097.0499 L 4005.86 3097.2799 L 4005.63 3097.9799 L 4005.63 3098.6799 L 4005.86 3099.3799 L 4006.32 3099.6099 L 4006.79 3099.3799 L 4007.02 3098.9099 L 4007.26 3097.7499 L 4007.49 3097.2799 L 4007.95 3097.0499 L 4008.19 3097.0499 L 4008.65 3097.2799 L 4008.88 3097.9799 L 4008.88 3098.6799 L 4008.65 3099.3799 L 4008.19 3099.6099 M 4005.63 3094.3499 L 4005.86 3094.8199 L 4006.32 3095.2799 L 4007.02 3095.5099 L 4007.49 3095.5099 L 4008.19 3095.2799 L 4008.65 3094.8199 L 4008.88 3094.3499 L 4008.88 3093.6499 L 4008.65 3093.1899 L 4008.19 3092.7199 L 4007.49 3092.4899 L 4007.02 3092.4899 L 4006.32 3092.7199 L 4005.86 3093.1899 L 4005.63 3093.6499 L 4005.63 3094.3499 M 4005.63 3090.9499 L 4008.88 3090.9499 M 4007.02 3090.9499 L 4006.32 3090.7199 L 4005.86 3090.2599 L 4005.63 3089.7899 L 4005.63 3089.0899 M 4006.32 3084.9999 L 4005.86 3085.2299 L 4005.63 3085.9299 L 4005.63 3086.6299 L 4005.86 3087.3299 L 4006.32 3087.5599 L 4006.79 3087.3299 L 4007.02 3086.8599 L 4007.26 3085.6999 L 4007.49 3085.2299 L 4007.95 3084.9999 L 4008.19 3084.9999 L 4008.65 3085.2299 L 4008.88 3085.9299 L 4008.88 3086.6299 L 4008.65 3087.3299 L 4008.19 3087.5599" fill="none" stroke-width="0.7874"/></g><g c_partid="part_pcbtext" c_origin="4016.02,3120.01" c_rotation="90" c_mirror="" layerid="3" c_shapetype="group"><path c_fontSize="5.512" c_fontFamily="" c_text="singleLED" d="M 4015.52 3117.25 L 4015.02 3117.5 L 4014.77 3118.26 L 4014.77 3119.01 L 4015.02 3119.76 L 4015.52 3120.01 L 4016.02 3119.76 L 4016.27 3119.26 L 4016.52 3118.01 L 4016.77 3117.5 L 4017.27 3117.25 L 4017.52 3117.25 L 4018.02 3117.5 L 4018.27 3118.26 L 4018.27 3119.01 L 4018.02 3119.76 L 4017.52 3120.01 M 4013.01 3115.6 L 4013.26 3115.35 L 4013.01 3115.1 L 4012.76 3115.35 L 4013.01 3115.6 M 4014.77 3115.35 L 4018.27 3115.35 M 4014.77 3113.45 L 4018.27 3113.45 M 4015.77 3113.45 L 4015.02 3112.69 L 4014.77 3112.19 L 4014.77 3111.44 L 4015.02 3110.94 L 4015.77 3110.69 L 4018.27 3110.69 M 4014.77 3106.03 L 4018.78 3106.03 L 4019.53 3106.28 L 4019.78 3106.53 L 4020.03 3107.03 L 4020.03 3107.78 L 4019.78 3108.28 M 4015.52 3106.03 L 4015.02 3106.53 L 4014.77 3107.03 L 4014.77 3107.78 L 4015.02 3108.28 L 4015.52 3108.79 L 4016.27 3109.04 L 4016.77 3109.04 L 4017.52 3108.79 L 4018.02 3108.28 L 4018.27 3107.78 L 4018.27 3107.03 L 4018.02 3106.53 L 4017.52 3106.03 M 4013.01 3104.38 L 4018.27 3104.38 M 4016.27 3102.72 L 4016.27 3099.72 L 4015.77 3099.72 L 4015.27 3099.97 L 4015.02 3100.22 L 4014.77 3100.72 L 4014.77 3101.47 L 4015.02 3101.97 L 4015.52 3102.47 L 4016.27 3102.72 L 4016.77 3102.72 L 4017.52 3102.47 L 4018.02 3101.97 L 4018.27 3101.47 L 4018.27 3100.72 L 4018.02 3100.22 L 4017.52 3099.72 M 4013.01 3098.06 L 4018.27 3098.06 M 4018.27 3098.06 L 4018.27 3095.06 M 4013.01 3093.4 L 4018.27 3093.4 M 4013.01 3093.4 L 4013.01 3090.15 M 4015.52 3093.4 L 4015.52 3091.4 M 4018.27 3093.4 L 4018.27 3090.15 M 4013.01 3088.49 L 4018.27 3088.49 M 4013.01 3088.49 L 4013.01 3086.74 L 4013.26 3085.99 L 4013.77 3085.49 L 4014.27 3085.24 L 4015.02 3084.99 L 4016.27 3084.99 L 4017.02 3085.24 L 4017.52 3085.49 L 4018.02 3085.99 L 4018.27 3086.74 L 4018.27 3088.49" fill="none" stroke-width="0.7874"/></g><g c_partid="part_pcbtext" c_origin="4084.7,3063.35" c_rotation="0" c_mirror="" layerid="3" c_shapetype="group"><path c_fontSize="4.5" c_fontFamily="" c_text="3V" d="M 4085.11 3060.8999 L 4087.36 3060.8999 L 4086.13 3062.5299 L 4086.75 3062.5299 L 4087.15 3062.7399 L 4087.36 3062.9399 L 4087.56 3063.5499 L 4087.56 3063.9599 L 4087.36 3064.5799 L 4086.95 3064.9899 L 4086.34 3065.1899 L 4085.72 3065.1899 L 4085.11 3064.9899 L 4084.9 3064.7799 L 4084.7 3064.3699 M 4088.91 3060.8999 L 4090.55 3065.1899 M 4092.19 3060.8999 L 4090.55 3065.1899" fill="none" stroke-width="0.8"/></g><g c_partid="part_pcbtext" c_origin="4069.26,3147.53" c_rotation="180" c_mirror="" layerid="3" c_shapetype="group"><path c_fontSize="3.5" c_fontFamily="" c_text="+" d="M 4067.8299 3148.9601 L 4067.8299 3146.1001 M 4069.2599 3147.5301 L 4066.3999 3147.5301" fill="none" stroke-width="0.8"/></g><g c_partid="part_pcbtext" c_origin="4068.98,3154.6" c_rotation="180" c_mirror="" layerid="3" c_shapetype="group"><path c_fontSize="3.5" c_fontFamily="" c_text="+" d="M 4067.5499 3156.0301 L 4067.5499 3153.1701 M 4068.9799 3154.6001 L 4066.1199 3154.6001" fill="none" stroke-width="0.8"/></g><g c_partid="part_pcbtext" c_origin="4048.24,3186.1" c_rotation="0" c_mirror="" layerid="3" c_shapetype="group"><path c_fontSize="5.512" c_fontFamily="" c_text="-" d="M 4048.24 3186.1 L 4052.75 3186.1" fill="none" stroke-width="0.8"/></g><g c_partid="part_pcbtext" c_origin="4004,3162.35" c_rotation="0" c_mirror="" layerid="3" c_shapetype="group"><path c_fontSize="5.512" c_fontFamily="" c_text="+" d="M 4006.25 3160.0999 L 4006.25 3164.5999 M 4004 3162.3499 L 4008.51 3162.3499" fill="none" stroke-width="0.8"/></g><g c_partid="part_pcbtext" c_origin="4084.7,3073.22" c_rotation="0" c_mirror="" layerid="3" c_shapetype="group"><path c_fontSize="4.5" c_fontFamily="" c_text="GND" d="M 4087.77 3071.7866 L 4087.56 3071.3766 L 4087.15 3070.9666 L 4086.75 3070.7666 L 4085.93 3070.7666 L 4085.52 3070.9666 L 4085.11 3071.3766 L 4084.9 3071.7866 L 4084.7 3072.3966 L 4084.7 3073.4166 L 4084.9 3074.0366 L 4085.11 3074.4466 L 4085.52 3074.8566 L 4085.93 3075.0566 L 4086.75 3075.0566 L 4087.15 3074.8566 L 4087.56 3074.4466 L 4087.77 3074.0366 L 4087.77 3073.4166 M 4086.75 3073.4166 L 4087.77 3073.4166 M 4089.12 3070.7666 L 4089.12 3075.0566 M 4089.12 3070.7666 L 4091.98 3075.0566 M 4091.98 3070.7666 L 4091.98 3075.0566 M 4093.33 3070.7666 L 4093.33 3075.0566 M 4093.33 3070.7666 L 4094.76 3070.7666 L 4095.38 3070.9666 L 4095.79 3071.3766 L 4095.99 3071.7866 L 4096.2 3072.3966 L 4096.2 3073.4166 L 4095.99 3074.0366 L 4095.79 3074.4466 L 4095.38 3074.8566 L 4094.76 3075.0566 L 4093.33 3075.0566" fill="none" stroke-width="0.8"/></g><g c_partid="part_pcbtext" c_origin="4084.7,3083.08" c_rotation="0" c_mirror="" layerid="3" c_shapetype="group"><path c_fontSize="4.5" c_fontFamily="" c_text="D4" d="M 4084.6999 3080.6332 L 4084.6999 3084.9232 M 4084.6999 3080.6332 L 4086.1299 3080.6332 L 4086.7499 3080.8332 L 4087.1499 3081.2432 L 4087.3599 3081.6532 L 4087.5599 3082.2632 L 4087.5599 3083.2832 L 4087.3599 3083.9032 L 4087.1499 3084.3132 L 4086.7499 3084.7232 L 4086.1299 3084.9232 L 4084.6999 3084.9232 M 4090.9599 3080.6332 L 4088.9099 3083.4932 L 4091.9799 3083.4932 M 4090.9599 3080.6332 L 4090.9599 3084.9232" fill="none" stroke-width="0.8"/></g><g c_partid="part_pcbtext" c_origin="4084.7,3092.95" c_rotation="0" c_mirror="" layerid="3" c_shapetype="group"><path c_fontSize="4.5" c_fontFamily="" c_text="A4" d="M 4086.34 3090.5 L 4084.7 3094.79 M 4086.34 3090.5 L 4087.97 3094.79 M 4085.31 3093.36 L 4087.36 3093.36 M 4091.37 3090.5 L 4089.32 3093.36 L 4092.39 3093.36 M 4091.37 3090.5 L 4091.37 3094.79" fill="none" stroke-width="0.8"/></g><g c_partid="part_pcbtext" c_origin="4075,3007.25" c_rotation="0" c_mirror="" layerid="3" c_shapetype="group"><path c_fontSize="5.512" c_fontFamily="" c_text="+" d="M 4077.25 3005 L 4077.25 3009.5 M 4075 3007.25 L 4079.51 3007.25" fill="none" stroke-width="0.8"/></g><g c_partid="part_pcbtext" c_origin="4026,3007" c_rotation="0" c_mirror="" layerid="3" c_shapetype="group"><path c_fontSize="5.512" c_fontFamily="" c_text="-" d="M 4026 3007 L 4030.51 3007" fill="none" stroke-width="0.8"/></g><g c_partid="part_pcbtext" c_origin="4013.01,3163.03" c_rotation="0" c_mirror="" layerid="3" c_shapetype="group" display="none"><path c_fontSize="4.5" c_fontFamily="" c_text="J2B" d="M 4015.064 3160.5801 L 4015.064 3163.8501 L 4014.854 3164.4601 L 4014.654 3164.6701 L 4014.244 3164.8701 L 4013.834 3164.8701 L 4013.424 3164.6701 L 4013.214 3164.4601 L 4013.014 3163.8501 L 4013.014 3163.4401 M 4016.614 3161.6001 L 4016.614 3161.3901 L 4016.814 3160.9801 L 4017.024 3160.7801 L 4017.434 3160.5801 L 4018.254 3160.5801 L 4018.664 3160.7801 L 4018.864 3160.9801 L 4019.064 3161.3901 L 4019.064 3161.8001 L 4018.864 3162.2101 L 4018.454 3162.8301 L 4016.414 3164.8701 L 4019.274 3164.8701 M 4020.624 3160.5801 L 4020.624 3164.8701 M 4020.624 3160.5801 L 4022.464 3160.5801 L 4023.074 3160.7801 L 4023.284 3160.9801 L 4023.484 3161.3901 L 4023.484 3161.8001 L 4023.284 3162.2101 L 4023.074 3162.4201 L 4022.464 3162.6201 M 4020.624 3162.6201 L 4022.464 3162.6201 L 4023.074 3162.8301 L 4023.284 3163.0301 L 4023.484 3163.4401 L 4023.484 3164.0501 L 4023.284 3164.4601 L 4023.074 3164.6701 L 4022.464 3164.8701 L 4020.624 3164.8701" fill="none" stroke-width="0.7" c_note="note_pre"/></g><g c_partid="part_pcbtext" c_origin="4031.26,3003.84" c_rotation="180" c_mirror="" layerid="3" c_shapetype="group" display="none"><path c_fontSize="4.5" c_fontFamily="" c_text="J3" d="M 4029.2099 3006.29 L 4029.2099 3003.02 L 4029.4199 3002.41 L 4029.6199 3002.2 L 4030.0299 3002 L 4030.4399 3002 L 4030.8499 3002.2 L 4031.0599 3002.41 L 4031.2599 3003.02 L 4031.2599 3003.43 M 4027.4599 3006.29 L 4025.2099 3006.29 L 4026.4299 3004.66 L 4025.8199 3004.66 L 4025.4099 3004.45 L 4025.2099 3004.25 L 4024.9999 3003.64 L 4024.9999 3003.23 L 4025.2099 3002.61 L 4025.6099 3002.2 L 4026.2299 3002 L 4026.8399 3002 L 4027.4599 3002.2 L 4027.6599 3002.41 L 4027.8599 3002.82" fill="none" stroke-width="0.7" c_note="note_pre"/></g><g c_partid="part_pcbtext" c_origin="4060,3089.46" c_rotation="0" c_mirror="" layerid="3" c_shapetype="group"><path c_fontSize="4.5" c_fontFamily="" c_text="U1" d="M 4060 3087.0001 L 4060 3090.0701 L 4060.2 3090.6901 L 4060.61 3091.0901 L 4061.23 3091.3001 L 4061.64 3091.3001 L 4062.25 3091.0901 L 4062.66 3090.6901 L 4062.86 3090.0701 L 4062.86 3087.0001 M 4064.21 3087.8201 L 4064.62 3087.6201 L 4065.24 3087.0001 L 4065.24 3091.3001" fill="none" stroke-width="0.7" c_note="note_pre"/></g><g c_partid="part_pcbtext" c_origin="4062.45,3180.21" c_rotation="90" c_mirror="" layerid="3" c_shapetype="group"><path c_fontSize="4.5" c_fontFamily="" c_text="ANT" d="M 4060 3178.56 L 4064.29 3180.2 M 4060 3178.56 L 4064.29 3176.93 M 4062.86 3179.59 L 4062.86 3177.54 M 4060 3175.58 L 4064.29 3175.58 M 4060 3175.58 L 4064.29 3172.71 M 4060 3172.71 L 4064.29 3172.71 M 4060 3169.93 L 4064.29 3169.93 M 4060 3171.36 L 4060 3168.5" fill="none" stroke-width="0.7" c_note="note_pre"/></g><g c_partid="part_pcbtext" c_origin="4041,3067.46" c_rotation="0" c_mirror="" layerid="3" c_shapetype="group"><path c_fontSize="4.5" c_fontFamily="" c_text="C3" d="M 4044.07 3066.0299 L 4043.87 3065.6199 L 4043.46 3065.2099 L 4043.05 3064.9999 L 4042.23 3064.9999 L 4041.82 3065.2099 L 4041.41 3065.6199 L 4041.21 3066.0299 L 4041 3066.6399 L 4041 3067.6599 L 4041.21 3068.2799 L 4041.41 3068.6899 L 4041.82 3069.0999 L 4042.23 3069.2999 L 4043.05 3069.2999 L 4043.46 3069.0999 L 4043.87 3068.6899 L 4044.07 3068.2799 M 4045.83 3064.9999 L 4048.08 3064.9999 L 4046.85 3066.6399 L 4047.47 3066.6399 L 4047.87 3066.8499 L 4048.08 3067.0499 L 4048.28 3067.6599 L 4048.28 3068.0699 L 4048.08 3068.6899 L 4047.67 3069.0999 L 4047.06 3069.2999 L 4046.44 3069.2999 L 4045.83 3069.0999 L 4045.62 3068.8899 L 4045.42 3068.4799" fill="none" stroke-width="0.7" c_note="note_pre"/></g><g c_partid="part_pcbtext" c_origin="4017.99,3075.45" c_rotation="0" c_mirror="" layerid="3" c_shapetype="group"><path c_fontSize="4.5" c_fontFamily="" c_text="R1" d="M 4018 3072.9999 L 4018 3077.2899 M 4018 3072.9999 L 4019.84 3072.9999 L 4020.45 3073.1999 L 4020.66 3073.3999 L 4020.86 3073.8099 L 4020.86 3074.2199 L 4020.66 3074.6299 L 4020.45 3074.8399 L 4019.84 3075.0399 L 4018 3075.0399 M 4019.43 3075.0399 L 4020.86 3077.2899 M 4022.21 3073.8099 L 4022.62 3073.6099 L 4023.24 3072.9999 L 4023.24 3077.2899" fill="none" stroke-width="0.7" c_note="note_pre"/></g><g c_partid="part_pcbtext" c_origin="4005.46,3060.44" c_rotation="90" c_mirror="" layerid="3" c_shapetype="group"><path c_fontSize="4.5" c_fontFamily="" c_text="C1" d="M 4004.0301 3057.3701 L 4003.6201 3057.5701 L 4003.2101 3057.9801 L 4003.0001 3058.3901 L 4003.0001 3059.2101 L 4003.2101 3059.6201 L 4003.6201 3060.0301 L 4004.0301 3060.2301 L 4004.6401 3060.4401 L 4005.6601 3060.4401 L 4006.2801 3060.2301 L 4006.6901 3060.0301 L 4007.1001 3059.6201 L 4007.3001 3059.2101 L 4007.3001 3058.3901 L 4007.1001 3057.9801 L 4006.6901 3057.5701 L 4006.2801 3057.3701 M 4003.8201 3056.0201 L 4003.6201 3055.6101 L 4003.0001 3055.0001 L 4007.3001 3055.0001" fill="none" stroke-width="0.7" c_note="note_pre"/></g><g c_partid="part_pcbtext" c_origin="4079,3168.45" c_rotation="0" c_mirror="" layerid="3" c_shapetype="group"><path c_fontSize="4.5" c_fontFamily="" c_text="PROG" d="M 4079 3166 L 4079 3170.29 M 4079 3166 L 4080.84 3166 L 4081.45 3166.2 L 4081.66 3166.4 L 4081.86 3166.81 L 4081.86 3167.43 L 4081.66 3167.84 L 4081.45 3168.04 L 4080.84 3168.25 L 4079 3168.25 M 4083.21 3166 L 4083.21 3170.29 M 4083.21 3166 L 4085.05 3166 L 4085.67 3166.2 L 4085.87 3166.4 L 4086.08 3166.81 L 4086.08 3167.22 L 4085.87 3167.63 L 4085.67 3167.84 L 4085.05 3168.04 L 4083.21 3168.04 M 4084.65 3168.04 L 4086.08 3170.29 M 4088.65 3166 L 4088.25 3166.2 L 4087.84 3166.61 L 4087.63 3167.02 L 4087.43 3167.63 L 4087.43 3168.65 L 4087.63 3169.27 L 4087.84 3169.68 L 4088.25 3170.09 L 4088.65 3170.29 L 4089.47 3170.29 L 4089.88 3170.09 L 4090.29 3169.68 L 4090.5 3169.27 L 4090.7 3168.65 L 4090.7 3167.63 L 4090.5 3167.02 L 4090.29 3166.61 L 4089.88 3166.2 L 4089.47 3166 L 4088.65 3166 M 4095.12 3167.02 L 4094.91 3166.61 L 4094.5 3166.2 L 4094.1 3166 L 4093.28 3166 L 4092.87 3166.2 L 4092.46 3166.61 L 4092.25 3167.02 L 4092.05 3167.63 L 4092.05 3168.65 L 4092.25 3169.27 L 4092.46 3169.68 L 4092.87 3170.09 L 4093.28 3170.29 L 4094.1 3170.29 L 4094.5 3170.09 L 4094.91 3169.68 L 4095.12 3169.27 L 4095.12 3168.65 M 4094.1 3168.65 L 4095.12 3168.65" fill="none" stroke-width="0.7" c_note="note_pre"/></g><g c_partid="part_pcbtext" c_origin="4019,3030.45" c_rotation="0" c_mirror="" layerid="3" c_shapetype="group"><path c_fontSize="4.5" c_fontFamily="" c_text="S1" d="M 4021.8599 3028.61 L 4021.4499 3028.2 L 4020.8399 3028 L 4020.0199 3028 L 4019.4099 3028.2 L 4018.9999 3028.61 L 4018.9999 3029.02 L 4019.1999 3029.43 L 4019.4099 3029.63 L 4019.8199 3029.84 L 4021.0499 3030.25 L 4021.4499 3030.45 L 4021.6599 3030.65 L 4021.8599 3031.06 L 4021.8599 3031.68 L 4021.4499 3032.09 L 4020.8399 3032.29 L 4020.0199 3032.29 L 4019.4099 3032.09 L 4018.9999 3031.68 M 4023.2099 3028.81 L 4023.6199 3028.61 L 4024.2399 3028 L 4024.2399 3032.29" fill="none" stroke-width="0.7" c_note="note_pre"/></g><g c_partid="part_pcbtext" c_origin="4003,3030.45" c_rotation="0" c_mirror="" layerid="3" c_shapetype="group"><path c_fontSize="4.5" c_fontFamily="" c_text="D1" d="M 4003 3027.9999 L 4003 3032.2899 M 4003 3027.9999 L 4004.43 3027.9999 L 4005.05 3028.1999 L 4005.45 3028.6099 L 4005.66 3029.0199 L 4005.86 3029.6299 L 4005.86 3030.6499 L 4005.66 3031.2699 L 4005.45 3031.6799 L 4005.05 3032.0899 L 4004.43 3032.2899 L 4003 3032.2899 M 4007.21 3028.8099 L 4007.62 3028.6099 L 4008.24 3027.9999 L 4008.24 3032.2899" fill="none" stroke-width="0.7" c_note="note_pre"/></g><g c_partid="part_pcbtext" c_origin="4074,3102.45" c_rotation="0" c_mirror="" layerid="3" c_shapetype="group" display="none"><path c_fontSize="4.5" c_fontFamily="" c_text="P1" d="M 4074 3100 L 4074 3104.29 M 4074 3100 L 4075.84 3100 L 4076.45 3100.2 L 4076.66 3100.4 L 4076.86 3100.81 L 4076.86 3101.43 L 4076.66 3101.84 L 4076.45 3102.04 L 4075.84 3102.25 L 4074 3102.25 M 4078.21 3100.81 L 4078.62 3100.61 L 4079.24 3100 L 4079.24 3104.29" fill="none" stroke-width="0.7" c_note="note_pre"/></g><g c_partid="part_pcbtext" c_origin="4061.45,3036.65" c_rotation="0" c_mirror="" layerid="3" c_shapetype="group"><path c_fontSize="4.5" c_fontFamily="" c_text="Q1" d="M 4062.6801 3034.2001 L 4062.2701 3034.4001 L 4061.8601 3034.8101 L 4061.6501 3035.2201 L 4061.4501 3035.8301 L 4061.4501 3036.8501 L 4061.6501 3037.4701 L 4061.8601 3037.8801 L 4062.2701 3038.2901 L 4062.6801 3038.4901 L 4063.5001 3038.4901 L 4063.9001 3038.2901 L 4064.3101 3037.8801 L 4064.5201 3037.4701 L 4064.7201 3036.8501 L 4064.7201 3035.8301 L 4064.5201 3035.2201 L 4064.3101 3034.8101 L 4063.9001 3034.4001 L 4063.5001 3034.2001 L 4062.6801 3034.2001 M 4063.2901 3037.6701 L 4064.5201 3038.9001 M 4066.0701 3035.0101 L 4066.4801 3034.8101 L 4067.1001 3034.2001 L 4067.1001 3038.4901" fill="none" stroke-width="0.7" c_note="note_pre"/></g><g c_partid="part_pcbtext" c_origin="4036,3138.45" c_rotation="0" c_mirror="" layerid="3" c_shapetype="group"><path c_fontSize="4.5" c_fontFamily="" c_text="U3" d="M 4035.9999 3136 L 4035.9999 3139.06 L 4036.1999 3139.68 L 4036.6099 3140.09 L 4037.2299 3140.29 L 4037.6399 3140.29 L 4038.2499 3140.09 L 4038.6599 3139.68 L 4038.8599 3139.06 L 4038.8599 3136 M 4040.6199 3136 L 4042.8699 3136 L 4041.6499 3137.63 L 4042.2599 3137.63 L 4042.6699 3137.84 L 4042.8699 3138.04 L 4043.0799 3138.65 L 4043.0799 3139.06 L 4042.8699 3139.68 L 4042.4599 3140.09 L 4041.8499 3140.29 L 4041.2399 3140.29 L 4040.6199 3140.09 L 4040.4199 3139.88 L 4040.2099 3139.47" fill="none" stroke-width="0.7" c_note="note_pre"/></g><g c_partid="part_pcbtext" c_origin="4063,3138.45" c_rotation="0" c_mirror="" layerid="3" c_shapetype="group"><path c_fontSize="4.5" c_fontFamily="" c_text="C4" d="M 4066.07 3137.02 L 4065.86 3136.61 L 4065.45 3136.2 L 4065.05 3136 L 4064.23 3136 L 4063.82 3136.2 L 4063.41 3136.61 L 4063.2 3137.02 L 4063 3137.63 L 4063 3138.65 L 4063.2 3139.27 L 4063.41 3139.68 L 4063.82 3140.09 L 4064.23 3140.29 L 4065.05 3140.29 L 4065.45 3140.09 L 4065.86 3139.68 L 4066.07 3139.27 M 4069.46 3136 L 4067.42 3138.86 L 4070.49 3138.86 M 4069.46 3136 L 4069.46 3140.29" fill="none" stroke-width="0.7" c_note="note_pre"/></g><g c_partid="part_pcbtext" c_origin="4048,3191.46" c_rotation="0" c_mirror="" layerid="3" c_shapetype="group" display="none"><path c_fontSize="4.5" c_fontFamily="" c_text="J2" d="M 4050.05 3189 L 4050.05 3192.28 L 4049.84 3192.89 L 4049.64 3193.09 L 4049.23 3193.3 L 4048.82 3193.3 L 4048.41 3193.09 L 4048.21 3192.89 L 4048 3192.28 L 4048 3191.87 M 4051.6 3190.03 L 4051.6 3189.82 L 4051.81 3189.41 L 4052.01 3189.21 L 4052.42 3189 L 4053.24 3189 L 4053.65 3189.21 L 4053.85 3189.41 L 4054.06 3189.82 L 4054.06 3190.23 L 4053.85 3190.64 L 4053.44 3191.25 L 4051.4 3193.3 L 4054.26 3193.3" fill="none" stroke-width="0.7" c_note="note_pre"/></g><g c_partid="part_pcbtext" c_origin="4083.96,3023.79" c_rotation="0" c_mirror="" layerid="3" c_shapetype="group"><path c_fontSize="4.5" c_fontFamily="" c_text="C2" d="M 4087.0399 3022.36 L 4086.8399 3021.95 L 4086.4299 3021.54 L 4086.0199 3021.33 L 4085.1999 3021.33 L 4084.7899 3021.54 L 4084.3799 3021.95 L 4084.1799 3022.36 L 4083.9699 3022.97 L 4083.9699 3023.99 L 4084.1799 3024.61 L 4084.3799 3025.02 L 4084.7899 3025.43 L 4085.1999 3025.63 L 4086.0199 3025.63 L 4086.4299 3025.43 L 4086.8399 3025.02 L 4087.0399 3024.61 M 4088.5899 3022.36 L 4088.5899 3022.15 L 4088.7999 3021.74 L 4088.9999 3021.54 L 4089.4099 3021.33 L 4090.2299 3021.33 L 4090.6399 3021.54 L 4090.8399 3021.74 L 4091.0499 3022.15 L 4091.0499 3022.56 L 4090.8399 3022.97 L 4090.4399 3023.58 L 4088.3899 3025.63 L 4091.2499 3025.63" fill="none" stroke-width="0.7" c_note="note_pre"/></g><circle cx="4035.43" cy="3047" r="7" stroke-width="1" fill="none" layerid="3" c_shapetype="line"/></g></svg>