G04 ---------------------------- Layer name :BOTTOM LAYER*
G04 EasyEDA v5.3.2, Sat, 10 Mar 2018 16:58:59 GMT*
G04 Gerber Generator version 0.2*
G04 Scale: 100 percent, Rotated: No, Reflected: No *
G04 Dimensions in millimeters *
G04 leading zeros omitted , absolute positions ,3 integer and 3 decimal *
%FSLAX33Y33*%
%MOMM*%
G90*
G71D02*

%ADD10C,0.254000*%
%ADD11C,2.540000*%
%ADD13C,0.619760*%
%ADD14C,1.016000*%
%ADD16R,1.299997X1.599997*%
%ADD23C,1.879600*%
%ADD24C,1.625600*%
%ADD25R,1.524000X1.524000*%
%ADD26C,1.524000*%
%ADD27C,1.499997*%
%ADD28C,2.459995*%
%ADD29R,1.599997X1.299997*%
%ADD30R,1.524000X3.251200*%

%LPD*%
G36*
G01X497Y500D02*
G01X497Y49502D01*
G01X24500Y49502D01*
G01X24500Y500D01*
G01X497Y500D01*
G37*

%LPC*%
G36*
G01X10922Y44493D02*
G01X11247Y44513D01*
G01X11551Y44620D01*
G01X11816Y44808D01*
G01X12024Y45062D01*
G01X12151Y45361D01*
G01X12197Y45681D01*
G01X12151Y46001D01*
G01X12024Y46301D01*
G01X11816Y46555D01*
G01X11551Y46743D01*
G01X11247Y46850D01*
G01X10922Y46870D01*
G01X10601Y46804D01*
G01X10312Y46657D01*
G01X10078Y46433D01*
G01X9906Y46159D01*
G01X9819Y45844D01*
G01X9819Y45519D01*
G01X9906Y45204D01*
G01X10078Y44930D01*
G01X10312Y44706D01*
G01X10601Y44559D01*
G01X10922Y44493D01*
G37*
G36*
G01X15717Y7454D02*
G01X15778Y7454D01*
G01X15798Y7459D01*
G01X16108Y7520D01*
G01X16129Y7526D01*
G01X16144Y7531D01*
G01X16164Y7541D01*
G01X16184Y7546D01*
G01X16200Y7561D01*
G01X16464Y7739D01*
G01X16494Y7759D01*
G01X16510Y7774D01*
G01X16530Y7805D01*
G01X16708Y8069D01*
G01X16723Y8084D01*
G01X16728Y8105D01*
G01X16738Y8125D01*
G01X16743Y8140D01*
G01X16748Y8161D01*
G01X16809Y8470D01*
G01X16809Y8481D01*
G01X16814Y8491D01*
G01X16814Y9466D01*
G01X16809Y9476D01*
G01X16809Y9486D01*
G01X16748Y9796D01*
G01X16743Y9817D01*
G01X16738Y9832D01*
G01X16728Y9852D01*
G01X16723Y9872D01*
G01X16708Y9888D01*
G01X16530Y10152D01*
G01X16510Y10182D01*
G01X16494Y10198D01*
G01X16464Y10218D01*
G01X16200Y10396D01*
G01X16184Y10411D01*
G01X16164Y10416D01*
G01X16144Y10426D01*
G01X16129Y10431D01*
G01X16129Y10528D01*
G01X16510Y10528D01*
G01X16586Y10538D01*
G01X16657Y10579D01*
G01X16713Y10634D01*
G01X16753Y10706D01*
G01X16764Y10782D01*
G01X16764Y14033D01*
G01X16753Y14109D01*
G01X16713Y14180D01*
G01X16657Y14236D01*
G01X16586Y14277D01*
G01X16510Y14287D01*
G01X14986Y14287D01*
G01X14909Y14277D01*
G01X14838Y14236D01*
G01X14782Y14180D01*
G01X14742Y14109D01*
G01X14732Y14033D01*
G01X14732Y10782D01*
G01X14742Y10706D01*
G01X14782Y10634D01*
G01X14838Y10579D01*
G01X14909Y10538D01*
G01X14986Y10528D01*
G01X15367Y10528D01*
G01X15367Y10431D01*
G01X15351Y10426D01*
G01X15331Y10416D01*
G01X15311Y10411D01*
G01X15295Y10396D01*
G01X15031Y10218D01*
G01X15001Y10198D01*
G01X14986Y10182D01*
G01X14965Y10152D01*
G01X14787Y9888D01*
G01X14772Y9872D01*
G01X14767Y9852D01*
G01X14757Y9832D01*
G01X14752Y9817D01*
G01X14747Y9796D01*
G01X14686Y9486D01*
G01X14686Y9476D01*
G01X14681Y9466D01*
G01X14681Y8491D01*
G01X14686Y8481D01*
G01X14686Y8470D01*
G01X14747Y8161D01*
G01X14752Y8140D01*
G01X14757Y8125D01*
G01X14767Y8105D01*
G01X14772Y8084D01*
G01X14787Y8069D01*
G01X14965Y7805D01*
G01X14986Y7774D01*
G01X15001Y7759D01*
G01X15031Y7739D01*
G01X15295Y7561D01*
G01X15311Y7546D01*
G01X15331Y7541D01*
G01X15351Y7531D01*
G01X15367Y7526D01*
G01X15387Y7520D01*
G01X15697Y7459D01*
G01X15717Y7454D01*
G37*
G36*
G01X20817Y2506D02*
G01X21183Y2506D01*
G01X21534Y2593D01*
G01X21854Y2760D01*
G01X22128Y3004D01*
G01X22331Y3299D01*
G01X22458Y3639D01*
G01X22504Y4000D01*
G01X22458Y4361D01*
G01X22331Y4701D01*
G01X22128Y4996D01*
G01X21854Y5240D01*
G01X21534Y5407D01*
G01X21183Y5494D01*
G01X20817Y5494D01*
G01X20467Y5407D01*
G01X20147Y5240D01*
G01X19872Y4996D01*
G01X19669Y4701D01*
G01X19542Y4361D01*
G01X19497Y4000D01*
G01X19542Y3639D01*
G01X19669Y3299D01*
G01X19872Y3004D01*
G01X20147Y2760D01*
G01X20467Y2593D01*
G01X20817Y2506D01*
G37*
G36*
G01X17967Y35481D02*
G01X19268Y35481D01*
G01X19344Y35491D01*
G01X19415Y35532D01*
G01X19471Y35587D01*
G01X19512Y35659D01*
G01X19522Y35735D01*
G01X19522Y37335D01*
G01X19512Y37411D01*
G01X19471Y37482D01*
G01X19415Y37538D01*
G01X19344Y37579D01*
G01X19268Y37589D01*
G01X17967Y37589D01*
G01X17891Y37579D01*
G01X17820Y37538D01*
G01X17764Y37482D01*
G01X17724Y37411D01*
G01X17713Y37335D01*
G01X17713Y36807D01*
G01X17698Y36817D01*
G01X17470Y36837D01*
G01X17246Y36766D01*
G01X17073Y36614D01*
G01X16977Y36400D01*
G01X16977Y36167D01*
G01X17073Y35953D01*
G01X17246Y35801D01*
G01X17470Y35730D01*
G01X17698Y35750D01*
G01X17713Y35760D01*
G01X17713Y35735D01*
G01X17724Y35659D01*
G01X17764Y35587D01*
G01X17820Y35532D01*
G01X17891Y35491D01*
G01X17967Y35481D01*
G37*
G36*
G01X11882Y37508D02*
G01X12110Y37528D01*
G01X12313Y37645D01*
G01X12339Y37680D01*
G01X14401Y37680D01*
G01X14462Y37685D01*
G01X14518Y37701D01*
G01X14574Y37721D01*
G01X14625Y37752D01*
G01X14671Y37792D01*
G01X14899Y38021D01*
G01X16068Y38021D01*
G01X16144Y38031D01*
G01X16215Y38072D01*
G01X16271Y38127D01*
G01X16311Y38199D01*
G01X16322Y38275D01*
G01X16322Y39875D01*
G01X16311Y39951D01*
G01X16271Y40022D01*
G01X16215Y40078D01*
G01X16144Y40119D01*
G01X16068Y40129D01*
G01X14767Y40129D01*
G01X14691Y40119D01*
G01X14620Y40078D01*
G01X14564Y40022D01*
G01X14523Y39951D01*
G01X14513Y39875D01*
G01X14513Y38712D01*
G01X14244Y38442D01*
G01X12339Y38442D01*
G01X12313Y38478D01*
G01X12110Y38595D01*
G01X11882Y38615D01*
G01X11658Y38544D01*
G01X11485Y38392D01*
G01X11389Y38178D01*
G01X11389Y37945D01*
G01X11485Y37731D01*
G01X11658Y37579D01*
G01X11882Y37508D01*
G37*
G36*
G01X15920Y44498D02*
G01X16245Y44518D01*
G01X16550Y44625D01*
G01X16814Y44813D01*
G01X17023Y45067D01*
G01X17150Y45366D01*
G01X17195Y45686D01*
G01X17150Y46007D01*
G01X17023Y46306D01*
G01X16814Y46560D01*
G01X16550Y46748D01*
G01X16245Y46855D01*
G01X15920Y46875D01*
G01X15600Y46809D01*
G01X15311Y46662D01*
G01X15077Y46438D01*
G01X14904Y46164D01*
G01X14818Y45849D01*
G01X14818Y45524D01*
G01X14904Y45209D01*
G01X15077Y44935D01*
G01X15311Y44711D01*
G01X15600Y44564D01*
G01X15920Y44498D01*
G37*
G36*
G01X3820Y44503D02*
G01X4185Y44503D01*
G01X4536Y44589D01*
G01X4856Y44757D01*
G01X5130Y45001D01*
G01X5334Y45295D01*
G01X5461Y45636D01*
G01X5506Y45996D01*
G01X5461Y46357D01*
G01X5334Y46697D01*
G01X5130Y46992D01*
G01X4856Y47236D01*
G01X4536Y47404D01*
G01X4185Y47490D01*
G01X3820Y47490D01*
G01X3469Y47404D01*
G01X3149Y47236D01*
G01X2875Y46992D01*
G01X2672Y46697D01*
G01X2545Y46357D01*
G01X2499Y45996D01*
G01X2545Y45636D01*
G01X2672Y45295D01*
G01X2875Y45001D01*
G01X3149Y44757D01*
G01X3469Y44589D01*
G01X3820Y44503D01*
G37*
G36*
G01X20650Y44670D02*
G01X20944Y44737D01*
G01X21209Y44889D01*
G01X21412Y45107D01*
G01X21544Y45382D01*
G01X21590Y45681D01*
G01X21544Y45981D01*
G01X21412Y46255D01*
G01X21209Y46474D01*
G01X20944Y46626D01*
G01X20650Y46692D01*
G01X20345Y46672D01*
G01X20066Y46560D01*
G01X19827Y46372D01*
G01X19659Y46123D01*
G01X19568Y45834D01*
G01X19568Y45529D01*
G01X19659Y45239D01*
G01X19827Y44991D01*
G01X20066Y44803D01*
G01X20345Y44691D01*
G01X20650Y44670D01*
G37*
G36*
G01X3307Y2999D02*
G01X3703Y3050D01*
G01X4069Y3202D01*
G01X4384Y3446D01*
G01X4490Y3589D01*
G01X9997Y7876D01*
G01X12700Y7876D01*
G01X13086Y7927D01*
G01X13441Y8074D01*
G01X13746Y8313D01*
G01X13985Y8618D01*
G01X14132Y8973D01*
G01X14183Y9359D01*
G01X14132Y9745D01*
G01X13985Y10101D01*
G01X13746Y10406D01*
G01X13441Y10645D01*
G01X13086Y10792D01*
G01X12700Y10843D01*
G01X12700Y14033D01*
G01X12689Y14109D01*
G01X12649Y14180D01*
G01X12593Y14236D01*
G01X12522Y14277D01*
G01X12446Y14287D01*
G01X12324Y14287D01*
G01X12349Y14312D01*
G01X16764Y14312D01*
G01X16824Y14317D01*
G01X16880Y14333D01*
G01X16936Y14353D01*
G01X16987Y14384D01*
G01X17033Y14424D01*
G01X18176Y15567D01*
G01X18216Y15613D01*
G01X18247Y15664D01*
G01X18267Y15720D01*
G01X18282Y15775D01*
G01X18288Y15836D01*
G01X18288Y19982D01*
G01X18415Y20165D01*
G01X18465Y20393D01*
G01X18415Y20622D01*
G01X18282Y20810D01*
G01X18079Y20927D01*
G01X17851Y20947D01*
G01X17627Y20876D01*
G01X17454Y20723D01*
G01X17358Y20510D01*
G01X17358Y20276D01*
G01X17454Y20063D01*
G01X17526Y20002D01*
G01X17526Y19631D01*
G01X17444Y19677D01*
G01X17216Y19697D01*
G01X16992Y19626D01*
G01X16819Y19474D01*
G01X16723Y19260D01*
G01X16723Y19027D01*
G01X16819Y18813D01*
G01X16891Y18752D01*
G01X16891Y18356D01*
G01X16809Y18402D01*
G01X16581Y18422D01*
G01X16357Y18351D01*
G01X16184Y18199D01*
G01X16088Y17985D01*
G01X16088Y17752D01*
G01X16184Y17538D01*
G01X16256Y17477D01*
G01X16256Y16954D01*
G01X16123Y17142D01*
G01X15920Y17259D01*
G01X15737Y17274D01*
G01X11963Y21048D01*
G01X11963Y28023D01*
G01X12090Y28206D01*
G01X12141Y28435D01*
G01X12090Y28663D01*
G01X11958Y28851D01*
G01X11755Y28968D01*
G01X11526Y28989D01*
G01X11303Y28917D01*
G01X11130Y28765D01*
G01X11120Y28750D01*
G01X10571Y29298D01*
G01X14970Y29298D01*
G01X14914Y29248D01*
G01X14818Y29034D01*
G01X14818Y28801D01*
G01X14914Y28587D01*
G01X15087Y28435D01*
G01X15311Y28364D01*
G01X15539Y28384D01*
G01X15742Y28501D01*
G01X15768Y28536D01*
G01X17236Y28536D01*
G01X18882Y26885D01*
G01X18806Y26647D01*
G01X18806Y26342D01*
G01X18897Y26052D01*
G01X19065Y25803D01*
G01X19304Y25615D01*
G01X19583Y25504D01*
G01X19888Y25483D01*
G01X20182Y25549D01*
G01X20203Y25565D01*
G01X20751Y25016D01*
G01X20797Y24975D01*
G01X20848Y24945D01*
G01X20904Y24925D01*
G01X20960Y24909D01*
G01X21021Y24904D01*
G01X21173Y24904D01*
G01X21173Y24640D01*
G01X21183Y24564D01*
G01X21224Y24493D01*
G01X21280Y24437D01*
G01X21351Y24396D01*
G01X21427Y24386D01*
G01X23027Y24386D01*
G01X23103Y24396D01*
G01X23174Y24437D01*
G01X23230Y24493D01*
G01X23271Y24564D01*
G01X23281Y24640D01*
G01X23281Y25935D01*
G01X23271Y26012D01*
G01X23230Y26083D01*
G01X23174Y26139D01*
G01X23103Y26179D01*
G01X23027Y26189D01*
G01X21427Y26189D01*
G01X21351Y26179D01*
G01X21280Y26139D01*
G01X21224Y26083D01*
G01X21183Y26012D01*
G01X21173Y25935D01*
G01X21173Y25671D01*
G01X20741Y26103D01*
G01X20782Y26195D01*
G01X20828Y26494D01*
G01X20782Y26794D01*
G01X20650Y27068D01*
G01X20447Y27287D01*
G01X20182Y27439D01*
G01X19888Y27505D01*
G01X19583Y27485D01*
G01X19425Y27424D01*
G01X17663Y29187D01*
G01X17617Y29227D01*
G01X17566Y29258D01*
G01X17510Y29278D01*
G01X17454Y29293D01*
G01X17393Y29298D01*
G01X18851Y29298D01*
G01X18806Y29146D01*
G01X18806Y28841D01*
G01X18897Y28552D01*
G01X19065Y28303D01*
G01X19304Y28115D01*
G01X19583Y28003D01*
G01X19888Y27983D01*
G01X20182Y28049D01*
G01X20447Y28201D01*
G01X20650Y28420D01*
G01X20782Y28694D01*
G01X20828Y28994D01*
G01X20802Y29161D01*
G01X21859Y30223D01*
G01X23027Y30223D01*
G01X23103Y30233D01*
G01X23174Y30274D01*
G01X23230Y30330D01*
G01X23241Y30345D01*
G01X23241Y30040D01*
G01X22595Y29390D01*
G01X21427Y29390D01*
G01X21351Y29380D01*
G01X21280Y29339D01*
G01X21224Y29283D01*
G01X21183Y29212D01*
G01X21173Y29136D01*
G01X21173Y27835D01*
G01X21183Y27759D01*
G01X21224Y27688D01*
G01X21280Y27632D01*
G01X21351Y27592D01*
G01X21427Y27581D01*
G01X23027Y27581D01*
G01X23103Y27592D01*
G01X23174Y27632D01*
G01X23230Y27688D01*
G01X23271Y27759D01*
G01X23281Y27835D01*
G01X23281Y29004D01*
G01X23891Y29613D01*
G01X23931Y29659D01*
G01X23962Y29710D01*
G01X23982Y29766D01*
G01X23997Y29822D01*
G01X24003Y29883D01*
G01X24003Y32473D01*
G01X23997Y32534D01*
G01X23982Y32590D01*
G01X23962Y32646D01*
G01X23931Y32697D01*
G01X23891Y32743D01*
G01X23164Y33469D01*
G01X23174Y33474D01*
G01X23230Y33530D01*
G01X23271Y33601D01*
G01X23281Y33677D01*
G01X23281Y34978D01*
G01X23271Y35054D01*
G01X23230Y35125D01*
G01X23174Y35181D01*
G01X23103Y35222D01*
G01X23027Y35232D01*
G01X21427Y35232D01*
G01X21351Y35222D01*
G01X21280Y35181D01*
G01X21224Y35125D01*
G01X21183Y35054D01*
G01X21173Y34978D01*
G01X21173Y33677D01*
G01X21183Y33601D01*
G01X21224Y33530D01*
G01X21280Y33474D01*
G01X21351Y33434D01*
G01X21371Y33428D01*
G01X20685Y32743D01*
G01X20645Y32697D01*
G01X20614Y32646D01*
G01X20594Y32590D01*
G01X20579Y32534D01*
G01X20574Y32473D01*
G01X20574Y30980D01*
G01X20162Y30568D01*
G01X19461Y30568D01*
G01X18796Y31234D01*
G01X18796Y32443D01*
G01X19334Y32981D01*
G01X20574Y32981D01*
G01X20650Y32992D01*
G01X20721Y33032D01*
G01X20777Y33088D01*
G01X20817Y33159D01*
G01X20828Y33235D01*
G01X20828Y34759D01*
G01X20817Y34836D01*
G01X20777Y34907D01*
G01X20721Y34963D01*
G01X20650Y35003D01*
G01X20574Y35013D01*
G01X19050Y35013D01*
G01X18973Y35003D01*
G01X18902Y34963D01*
G01X18846Y34907D01*
G01X18806Y34836D01*
G01X18796Y34759D01*
G01X18796Y34378D01*
G01X14213Y34378D01*
G01X13314Y35278D01*
G01X13401Y35481D01*
G01X13446Y35801D01*
G01X13401Y36121D01*
G01X13274Y36421D01*
G01X13065Y36675D01*
G01X12801Y36863D01*
G01X12496Y36969D01*
G01X12171Y36990D01*
G01X11851Y36923D01*
G01X11562Y36776D01*
G01X11328Y36553D01*
G01X11155Y36278D01*
G01X11130Y36182D01*
G01X6873Y36182D01*
G01X6771Y36421D01*
G01X6563Y36675D01*
G01X6299Y36863D01*
G01X5994Y36969D01*
G01X5669Y36990D01*
G01X5537Y36964D01*
G01X6253Y37680D01*
G01X6385Y37680D01*
G01X6385Y37259D01*
G01X6395Y37183D01*
G01X6436Y37111D01*
G01X6492Y37056D01*
G01X6563Y37015D01*
G01X6639Y37005D01*
G01X7940Y37005D01*
G01X8016Y37015D01*
G01X8087Y37056D01*
G01X8143Y37111D01*
G01X8183Y37183D01*
G01X8194Y37259D01*
G01X8194Y38859D01*
G01X8183Y38935D01*
G01X8143Y39006D01*
G01X8087Y39062D01*
G01X8016Y39103D01*
G01X7940Y39113D01*
G01X6776Y39113D01*
G01X6492Y39397D01*
G01X6563Y39448D01*
G01X6771Y39702D01*
G01X6873Y39941D01*
G01X11130Y39941D01*
G01X11155Y39844D01*
G01X11328Y39570D01*
G01X11562Y39347D01*
G01X11851Y39199D01*
G01X12171Y39133D01*
G01X12496Y39154D01*
G01X12801Y39260D01*
G01X13065Y39448D01*
G01X13274Y39702D01*
G01X13401Y40002D01*
G01X13446Y40322D01*
G01X13401Y40642D01*
G01X13274Y40942D01*
G01X13065Y41196D01*
G01X13009Y41236D01*
G01X15920Y41236D01*
G01X17713Y39443D01*
G01X17713Y38275D01*
G01X17724Y38199D01*
G01X17764Y38127D01*
G01X17820Y38072D01*
G01X17891Y38031D01*
G01X17967Y38021D01*
G01X19268Y38021D01*
G01X19344Y38031D01*
G01X19415Y38072D01*
G01X19471Y38127D01*
G01X19512Y38199D01*
G01X19522Y38275D01*
G01X19522Y39875D01*
G01X19512Y39951D01*
G01X19471Y40022D01*
G01X19415Y40078D01*
G01X19344Y40119D01*
G01X19268Y40129D01*
G01X18105Y40129D01*
G01X16347Y41887D01*
G01X16301Y41927D01*
G01X16250Y41958D01*
G01X16195Y41978D01*
G01X16139Y41993D01*
G01X16078Y41998D01*
G01X12395Y41998D01*
G01X12400Y42009D01*
G01X12410Y42085D01*
G01X12410Y43685D01*
G01X12400Y43761D01*
G01X12359Y43832D01*
G01X12303Y43888D01*
G01X12232Y43929D01*
G01X12156Y43939D01*
G01X10855Y43939D01*
G01X10779Y43929D01*
G01X10708Y43888D01*
G01X10652Y43832D01*
G01X10612Y43761D01*
G01X10601Y43685D01*
G01X10601Y43268D01*
G01X10307Y43268D01*
G01X10281Y43304D01*
G01X10078Y43421D01*
G01X9850Y43441D01*
G01X9626Y43370D01*
G01X9453Y43218D01*
G01X9357Y43004D01*
G01X9357Y42771D01*
G01X9453Y42557D01*
G01X9626Y42405D01*
G01X9850Y42334D01*
G01X10078Y42354D01*
G01X10281Y42471D01*
G01X10307Y42506D01*
G01X10601Y42506D01*
G01X10601Y42085D01*
G01X10612Y42009D01*
G01X10617Y41998D01*
G01X9194Y41998D01*
G01X9199Y42009D01*
G01X9210Y42085D01*
G01X9210Y43685D01*
G01X9199Y43761D01*
G01X9159Y43832D01*
G01X9103Y43888D01*
G01X9032Y43929D01*
G01X8956Y43939D01*
G01X7655Y43939D01*
G01X7579Y43929D01*
G01X7508Y43888D01*
G01X7452Y43832D01*
G01X7411Y43761D01*
G01X7401Y43685D01*
G01X7401Y43268D01*
G01X5288Y43268D01*
G01X5227Y43263D01*
G01X5171Y43248D01*
G01X5115Y43228D01*
G01X5064Y43197D01*
G01X5019Y43157D01*
G01X3434Y41572D01*
G01X3393Y41592D01*
G01X3083Y41663D01*
G01X2763Y41643D01*
G01X2468Y41526D01*
G01X2219Y41328D01*
G01X2042Y41064D01*
G01X1945Y40759D01*
G01X1945Y40444D01*
G01X2042Y40139D01*
G01X2219Y39875D01*
G01X2468Y39677D01*
G01X2763Y39560D01*
G01X3083Y39540D01*
G01X3393Y39611D01*
G01X3667Y39768D01*
G01X3886Y40002D01*
G01X3937Y40109D01*
G01X3937Y37457D01*
G01X3068Y36583D01*
G01X2763Y36563D01*
G01X2468Y36446D01*
G01X2219Y36248D01*
G01X2042Y35984D01*
G01X1945Y35679D01*
G01X1945Y35364D01*
G01X2042Y35059D01*
G01X2219Y34795D01*
G01X2468Y34597D01*
G01X2763Y34480D01*
G01X3083Y34460D01*
G01X3393Y34531D01*
G01X3667Y34688D01*
G01X3886Y34922D01*
G01X3937Y35029D01*
G01X3937Y34917D01*
G01X3398Y34378D01*
G01X2794Y34378D01*
G01X2733Y34373D01*
G01X2677Y34358D01*
G01X2621Y34338D01*
G01X2570Y34307D01*
G01X2524Y34267D01*
G01X1762Y33505D01*
G01X1722Y33459D01*
G01X1691Y33408D01*
G01X1671Y33352D01*
G01X1656Y33296D01*
G01X1651Y33235D01*
G01X1651Y30441D01*
G01X1656Y30380D01*
G01X1671Y30325D01*
G01X1691Y30269D01*
G01X1722Y30218D01*
G01X1762Y30172D01*
G01X3540Y28394D01*
G01X3586Y28354D01*
G01X3637Y28323D01*
G01X3693Y28303D01*
G01X3749Y28287D01*
G01X3810Y28282D01*
G01X5191Y28282D01*
G01X5135Y28232D01*
G01X5039Y28018D01*
G01X5039Y27785D01*
G01X5135Y27571D01*
G01X5308Y27419D01*
G01X5532Y27348D01*
G01X5760Y27368D01*
G01X5963Y27485D01*
G01X5989Y27520D01*
G01X6604Y27520D01*
G01X6664Y27525D01*
G01X6720Y27541D01*
G01X6776Y27561D01*
G01X6827Y27592D01*
G01X6873Y27632D01*
G01X8539Y29298D01*
G01X8681Y29298D01*
G01X8620Y29161D01*
G01X8620Y28928D01*
G01X8717Y28714D01*
G01X8890Y28562D01*
G01X9113Y28491D01*
G01X9342Y28511D01*
G01X9438Y28567D01*
G01X9433Y28552D01*
G01X9433Y28318D01*
G01X9530Y28105D01*
G01X9601Y28044D01*
G01X9601Y20459D01*
G01X9606Y20398D01*
G01X9621Y20342D01*
G01X9641Y20286D01*
G01X9672Y20236D01*
G01X9712Y20190D01*
G01X13167Y16736D01*
G01X13167Y16609D01*
G01X13263Y16395D01*
G01X13436Y16243D01*
G01X13660Y16172D01*
G01X13888Y16192D01*
G01X14091Y16309D01*
G01X14224Y16497D01*
G01X14229Y16512D01*
G01X14279Y16395D01*
G01X14452Y16243D01*
G01X14676Y16172D01*
G01X14904Y16192D01*
G01X15107Y16309D01*
G01X15240Y16497D01*
G01X15245Y16512D01*
G01X15295Y16395D01*
G01X15468Y16243D01*
G01X15692Y16172D01*
G01X15920Y16192D01*
G01X16123Y16309D01*
G01X16256Y16497D01*
G01X16256Y16248D01*
G01X16098Y16090D01*
G01X12806Y16090D01*
G01X12827Y16116D01*
G01X12877Y16344D01*
G01X12827Y16573D01*
G01X12694Y16761D01*
G01X12491Y16878D01*
G01X12263Y16898D01*
G01X12039Y16827D01*
G01X11922Y16725D01*
G01X7747Y16725D01*
G01X7686Y16720D01*
G01X7630Y16705D01*
G01X7574Y16685D01*
G01X7523Y16654D01*
G01X7477Y16614D01*
G01X5318Y14455D01*
G01X5278Y14409D01*
G01X5247Y14358D01*
G01X5227Y14302D01*
G01X5222Y14287D01*
G01X4826Y14287D01*
G01X4749Y14277D01*
G01X4678Y14236D01*
G01X4622Y14180D01*
G01X4582Y14109D01*
G01X4572Y14033D01*
G01X4561Y14109D01*
G01X4521Y14180D01*
G01X4465Y14236D01*
G01X4394Y14277D01*
G01X4318Y14287D01*
G01X2794Y14287D01*
G01X2717Y14277D01*
G01X2646Y14236D01*
G01X2590Y14180D01*
G01X2550Y14109D01*
G01X2540Y14033D01*
G01X2540Y10782D01*
G01X2545Y10756D01*
G01X2032Y10756D01*
G01X1955Y10746D01*
G01X1884Y10706D01*
G01X1828Y10650D01*
G01X1788Y10579D01*
G01X1778Y10502D01*
G01X1778Y4533D01*
G01X1788Y4472D01*
G01X1833Y4127D01*
G01X1986Y3761D01*
G01X2230Y3446D01*
G01X2545Y3202D01*
G01X2910Y3050D01*
G01X3307Y2999D01*
G37*

%LPD*%
G54D10*
G01X15748Y8978D02*
G01X15748Y12407D01*
G01X17907Y20396D02*
G01X17907Y15836D01*
G01X16764Y14693D01*
G01X12192Y14693D01*
G01X11684Y14185D01*
G01X11684Y12407D01*
G01X17272Y19146D02*
G01X17272Y15963D01*
G01X16510Y15201D01*
G01X10668Y15201D01*
G01X9652Y14185D01*
G01X9652Y12407D01*
G01X16637Y17868D02*
G01X16637Y16090D01*
G01X16256Y15709D01*
G01X9144Y15709D01*
G01X7620Y14185D01*
G01X7620Y12407D01*
G01X19812Y33997D02*
G01X14053Y33997D01*
G01X12250Y35801D01*
G01X5748Y40322D02*
G01X12250Y40322D01*
G01X5748Y40322D02*
G01X5748Y39603D01*
G01X7289Y38061D01*
G01X5748Y35801D02*
G01X12250Y35801D01*
G01X17526Y36283D02*
G01X18364Y36283D01*
G01X18618Y36537D01*
G01X2999Y35521D02*
G01X2999Y35981D01*
G01X4318Y37299D01*
G01X4318Y40855D01*
G01X5080Y41617D01*
G01X16078Y41617D01*
G01X18618Y39077D01*
G01X7289Y38061D02*
G01X6096Y38061D01*
G01X4318Y36283D01*
G01X4318Y34759D01*
G01X3556Y33997D01*
G01X2794Y33997D01*
G01X2032Y33235D01*
G01X2032Y30441D01*
G01X3810Y28663D01*
G01X6350Y28663D01*
G01X7112Y29425D02*
G01X6096Y29425D01*
G01X5588Y29933D01*
G01X5588Y31711D01*
G01X12319Y16344D02*
G01X7747Y16344D01*
G01X5588Y14185D01*
G01X5588Y12407D01*
G01X11938Y38061D02*
G01X14401Y38061D01*
G01X15417Y39077D01*
G01X5588Y27901D02*
G01X6604Y27901D01*
G01X8382Y29679D01*
G01X19128Y29679D01*
G01X19812Y28996D01*
G01X15367Y28917D02*
G01X17391Y28917D01*
G01X19812Y26497D01*
G01X11582Y28435D02*
G01X11582Y20891D01*
G01X15748Y16725D01*
G01X9169Y29044D02*
G01X10287Y29044D01*
G01X10922Y28409D01*
G01X10922Y20535D01*
G01X14732Y16725D01*
G01X9982Y28435D02*
G01X9982Y20459D01*
G01X13716Y16725D01*
G54D11*
G01X3304Y4526D02*
G01X3304Y6197D01*
G01X5588Y8481D01*
G54D28*
G01X12700Y9359D02*
G01X6466Y9359D01*
G01X5588Y8481D01*
G54D10*
G01X19812Y28996D02*
G01X20093Y28996D01*
G01X22225Y31127D01*
G01X22225Y34328D02*
G01X22225Y33743D01*
G01X20955Y32473D01*
G01X20955Y30822D01*
G01X20320Y30187D01*
G01X19304Y30187D01*
G01X17780Y31711D01*
G01X17780Y31711D02*
G01X17780Y31965D01*
G01X19812Y33997D01*
G01X22227Y25288D02*
G01X21021Y25288D01*
G01X19812Y26497D01*
G01X22225Y34328D02*
G01X22225Y33870D01*
G01X23622Y32473D01*
G01X23622Y29883D01*
G01X22227Y28488D01*
G01X9906Y42887D02*
G01X11506Y42887D01*
G01X8305Y42887D02*
G01X5285Y42887D01*
G01X2999Y40601D01*
G54D29*
G01X22225Y31127D03*
G01X22225Y34327D03*
G01X22227Y25288D03*
G01X22227Y28488D03*
G54D16*
G01X7290Y38061D03*
G01X10489Y38061D03*
G01X18617Y36537D03*
G01X15418Y36537D03*
G01X11505Y42887D03*
G01X8306Y42887D03*
G01X15418Y39077D03*
G01X18617Y39077D03*
G54D30*
G01X3556Y31711D03*
G01X5588Y31711D03*
G01X7620Y31711D03*
G01X9652Y31711D03*
G01X11684Y31711D03*
G01X13716Y31711D03*
G01X15748Y31711D03*
G01X17780Y31711D03*
G01X17780Y12407D03*
G01X15748Y12407D03*
G01X13716Y12407D03*
G01X11684Y12407D03*
G01X9652Y12407D03*
G01X7620Y12407D03*
G01X5588Y12407D03*
G01X3556Y12407D03*
G36*
G01X12954Y10502D02*
G01X2032Y10502D01*
G01X2032Y4533D01*
G01X4318Y3771D01*
G01X12954Y10502D01*
G37*
G54D23*
G01X3304Y4526D03*
G01X8303Y4533D03*
G01X15999Y45689D03*
G01X11000Y45681D03*
G01X5748Y40322D03*
G01X12250Y40322D03*
G01X5748Y35801D03*
G01X12250Y35801D03*
G54D24*
G01X2999Y38061D03*
G01X2999Y40601D03*
G01X2999Y35521D03*
G54D25*
G01X19812Y33997D03*
G54D26*
G01X19812Y31498D03*
G01X19812Y28996D03*
G01X19812Y26497D03*
G01X20574Y45681D03*
G01X12700Y9359D03*
G54D13*
G01X17907Y20396D03*
G01X17272Y19146D03*
G01X16637Y17868D03*
G01X17526Y36283D03*
G01X11938Y38061D03*
G01X6350Y28663D03*
G01X5588Y27901D03*
G01X7112Y29425D03*
G01X9982Y28435D03*
G01X9169Y29044D03*
G01X12319Y16344D03*
G01X9906Y42887D03*
G01X15367Y28917D03*
G01X15748Y16725D03*
G01X14732Y16725D03*
G01X13716Y16725D03*
G01X11582Y28435D03*
G54D14*
G01X18999Y41396D03*
G54D24*
G01X15748Y9436D02*
G01X15748Y8521D01*
G54D27*
G01X3837Y8481D02*
G01X7338Y8481D01*
G01X4588Y2585D02*
G01X6587Y2585D01*
G01X10287Y4926D02*
G01X10287Y6426D01*
M00*
M02*
