;PTH Drill file created by EasyEDA 
M48
METRIC,LZ,000.000
;Holesize 1 = 0.305 METRIC
T01C0.305
;Holesize 2 = 0.762 METRIC
T02C0.762
;Holesize 3 = 0.915 METRIC
T03C0.915
;Holesize 4 = 1.000 METRIC
T04C1.000
;Holesize 5 = 1.016 METRIC
T05C1.016
%
G05
G90
T01
X017907Y020396
X017272Y019146
X016637Y017868
X017526Y036283
X011938Y038061
X006350Y028663
X005588Y027901
X007112Y029425
X009982Y028435
X009169Y029044
X012319Y016344
X009906Y042887
X015367Y028917
X015748Y016725
X014732Y016725
X013716Y016725
X011582Y028435
T02
X018999Y041396
T03
X002999Y038061
X002999Y040601
X002999Y035521
X019812Y033997
X019812Y031498
X019812Y028996
X019812Y026497
X020574Y045681
X012700Y009359
T04
X006837Y008481G85X004338Y008481
X006587Y002585G85X004588Y002585
X010287Y006177G85X010287Y005177
T05
X003304Y004526
X008303Y004533
X015999Y045689
X011000Y045681
X015748Y008978
X005748Y040322
X012250Y040322
X005748Y035801
X012250Y035801
M30
