G04 ---------------------------- Layer name :TOP SILK LAYER*
G04 EasyEDA v5.3.2, Sat, 10 Mar 2018 16:58:59 GMT*
G04 Gerber Generator version 0.2*
G04 Scale: 100 percent, Rotated: No, Reflected: No *
G04 Dimensions in millimeters *
G04 leading zeros omitted , absolute positions ,3 integer and 3 decimal *
%FSLAX33Y33*%
%MOMM*%
G90*
G71D02*

%ADD10C,0.254000*%
%ADD31C,0.150114*%
%ADD32C,0.228600*%
%ADD33C,0.119990*%
%ADD34C,0.200660*%
%ADD35C,0.299999*%
%ADD36C,0.399999*%
%ADD37C,0.200000*%
%ADD38C,0.203200*%
%ADD39C,0.177800*%

%LPD*%
G54D10*
G01X8501Y49681D02*
G01X8501Y42182D01*
G01X18504Y49681D02*
G01X18504Y42181D01*
G01X18501Y42182D02*
G01X8501Y42182D01*
G01X18501Y49681D02*
G01X8501Y49681D01*
G54D31*
G01X13501Y42182D02*
G01X13501Y49681D01*
G54D10*
G01X14131Y25914D02*
G01X8231Y25914D01*
G01X8231Y20014D01*
G01X14131Y20014D01*
G01X14131Y25914D01*
G54D32*
G01X17864Y31881D02*
G01X12864Y31881D01*
G01X12864Y34081D01*
G01X17864Y34081D01*
G01X17864Y31881D01*
G54D10*
G01X7823Y31940D02*
G01X9601Y31940D01*
G01X9601Y34023D01*
G01X7823Y34023D01*
G01X6400Y34023D02*
G01X4622Y34023D01*
G01X4622Y31940D01*
G01X6400Y31940D01*
G54D32*
G01X1185Y29087D02*
G01X1185Y34087D01*
G01X3386Y34087D01*
G01X3386Y29087D01*
G01X1185Y29087D01*
G54D33*
G01X24008Y11020D02*
G01X24008Y21020D01*
G01X20807Y9321D02*
G01X19708Y9321D01*
G01X19708Y10870D01*
G01X20207Y10870D01*
G01X20207Y9820D01*
G01X20807Y9820D01*
G01X20807Y9321D01*
G01X20807Y22720D02*
G01X19708Y22720D01*
G01X19708Y21170D01*
G01X20207Y21170D01*
G01X20207Y22220D01*
G01X20807Y22220D01*
G01X20807Y22720D01*
G01X19008Y10645D02*
G01X18708Y10045D01*
G01X19308Y10045D01*
G01X19008Y10645D01*
G54D10*
G01X11158Y41109D02*
G01X6840Y41109D01*
G01X6840Y35013D02*
G01X11158Y35013D01*
G01X12047Y39052D02*
G01X12047Y37045D01*
G01X5951Y39077D02*
G01X5951Y37045D01*
G01X1983Y36639D02*
G01X4015Y36639D01*
G01X21082Y35267D02*
G01X21082Y25107D01*
G01X18542Y25107D01*
G01X18542Y35267D01*
G01X21082Y35267D01*
G01X21082Y32727D01*
G01X16891Y37884D02*
G01X16891Y38239D01*
G01X16510Y39509D02*
G01X15621Y39509D01*
G01X15621Y38747D01*
G01X15621Y37376D02*
G01X15621Y36614D01*
G01X16510Y36614D01*
G54D34*
G01X8448Y12710D02*
G01X1747Y12710D01*
G01X1747Y15958D01*
G01X8448Y15958D01*
G01X8448Y12710D01*
G54D10*
G01X12090Y13931D02*
G01X12090Y10883D01*
G01X11887Y14008D02*
G01X13919Y14008D01*
G01X13919Y10807D02*
G01X13919Y14008D01*
G01X13919Y10807D02*
G01X11887Y10807D01*
G01X588Y881D02*
G01X588Y9881D01*
G01X11587Y881D02*
G01X11587Y9881D01*
G01X588Y9881D02*
G01X11587Y9881D01*
G54D32*
G01X21251Y37977D02*
G01X21251Y42977D01*
G01X23452Y42977D01*
G01X23452Y37977D01*
G01X21251Y37977D01*
G54D37*
G01X1016Y18849D02*
G01X2255Y18849D01*
G01X1016Y18849D02*
G01X2255Y19321D01*
G01X1016Y19794D02*
G01X2255Y19321D01*
G01X1016Y19794D02*
G01X2255Y19794D01*
G01X1430Y20243D02*
G01X2255Y20599D01*
G01X1430Y20952D02*
G01X2255Y20599D01*
G01X2491Y20480D01*
G01X2611Y20363D01*
G01X2669Y20243D01*
G01X2669Y20185D01*
G01X1193Y22169D02*
G01X1074Y22052D01*
G01X1016Y21874D01*
G01X1016Y21638D01*
G01X1074Y21460D01*
G01X1193Y21343D01*
G01X1310Y21343D01*
G01X1430Y21402D01*
G01X1488Y21460D01*
G01X1546Y21579D01*
G01X1666Y21932D01*
G01X1724Y22052D01*
G01X1783Y22110D01*
G01X1902Y22169D01*
G01X2080Y22169D01*
G01X2197Y22052D01*
G01X2255Y21874D01*
G01X2255Y21638D01*
G01X2197Y21460D01*
G01X2080Y21343D01*
G01X1783Y22560D02*
G01X1783Y23268D01*
G01X1666Y23268D01*
G01X1546Y23210D01*
G01X1488Y23152D01*
G01X1430Y23032D01*
G01X1430Y22854D01*
G01X1488Y22738D01*
G01X1605Y22618D01*
G01X1783Y22560D01*
G01X1902Y22560D01*
G01X2080Y22618D01*
G01X2197Y22738D01*
G01X2255Y22854D01*
G01X2255Y23032D01*
G01X2197Y23152D01*
G01X2080Y23268D01*
G01X1430Y23660D02*
G01X2255Y23660D01*
G01X1666Y23660D02*
G01X1488Y23835D01*
G01X1430Y23954D01*
G01X1430Y24132D01*
G01X1488Y24249D01*
G01X1666Y24310D01*
G01X2255Y24310D01*
G01X1605Y25349D02*
G01X1488Y25290D01*
G01X1430Y25113D01*
G01X1430Y24935D01*
G01X1488Y24757D01*
G01X1605Y24698D01*
G01X1724Y24757D01*
G01X1783Y24876D01*
G01X1844Y25171D01*
G01X1902Y25290D01*
G01X2019Y25349D01*
G01X2080Y25349D01*
G01X2197Y25290D01*
G01X2255Y25113D01*
G01X2255Y24935D01*
G01X2197Y24757D01*
G01X2080Y24698D01*
G01X1430Y26035D02*
G01X1488Y25915D01*
G01X1605Y25798D01*
G01X1783Y25740D01*
G01X1902Y25740D01*
G01X2080Y25798D01*
G01X2197Y25915D01*
G01X2255Y26035D01*
G01X2255Y26212D01*
G01X2197Y26329D01*
G01X2080Y26449D01*
G01X1902Y26507D01*
G01X1783Y26507D01*
G01X1605Y26449D01*
G01X1488Y26329D01*
G01X1430Y26212D01*
G01X1430Y26035D01*
G01X1430Y26898D02*
G01X2255Y26898D01*
G01X1783Y26898D02*
G01X1605Y26957D01*
G01X1488Y27073D01*
G01X1430Y27193D01*
G01X1430Y27371D01*
G01X1605Y28409D02*
G01X1488Y28351D01*
G01X1430Y28173D01*
G01X1430Y27995D01*
G01X1488Y27818D01*
G01X1605Y27759D01*
G01X1724Y27818D01*
G01X1783Y27937D01*
G01X1844Y28232D01*
G01X1902Y28351D01*
G01X2019Y28409D01*
G01X2080Y28409D01*
G01X2197Y28351D01*
G01X2255Y28173D01*
G01X2255Y27995D01*
G01X2197Y27818D01*
G01X2080Y27759D01*
G01X3942Y20218D02*
G01X3815Y20154D01*
G01X3751Y19961D01*
G01X3751Y19771D01*
G01X3815Y19580D01*
G01X3942Y19517D01*
G01X4069Y19580D01*
G01X4132Y19707D01*
G01X4196Y20025D01*
G01X4259Y20154D01*
G01X4386Y20218D01*
G01X4450Y20218D01*
G01X4577Y20154D01*
G01X4640Y19961D01*
G01X4640Y19771D01*
G01X4577Y19580D01*
G01X4450Y19517D01*
G01X3304Y20637D02*
G01X3368Y20701D01*
G01X3304Y20764D01*
G01X3241Y20701D01*
G01X3304Y20637D01*
G01X3751Y20701D02*
G01X4640Y20701D01*
G01X3751Y21183D02*
G01X4640Y21183D01*
G01X4005Y21183D02*
G01X3815Y21376D01*
G01X3751Y21503D01*
G01X3751Y21694D01*
G01X3815Y21821D01*
G01X4005Y21884D01*
G01X4640Y21884D01*
G01X3751Y23068D02*
G01X4770Y23068D01*
G01X4960Y23004D01*
G01X5024Y22941D01*
G01X5087Y22814D01*
G01X5087Y22623D01*
G01X5024Y22496D01*
G01X3942Y23068D02*
G01X3815Y22941D01*
G01X3751Y22814D01*
G01X3751Y22623D01*
G01X3815Y22496D01*
G01X3942Y22367D01*
G01X4132Y22303D01*
G01X4259Y22303D01*
G01X4450Y22367D01*
G01X4577Y22496D01*
G01X4640Y22623D01*
G01X4640Y22814D01*
G01X4577Y22941D01*
G01X4450Y23068D01*
G01X3304Y23487D02*
G01X4640Y23487D01*
G01X4132Y23909D02*
G01X4132Y24671D01*
G01X4005Y24671D01*
G01X3878Y24607D01*
G01X3815Y24544D01*
G01X3751Y24417D01*
G01X3751Y24226D01*
G01X3815Y24099D01*
G01X3942Y23972D01*
G01X4132Y23909D01*
G01X4259Y23909D01*
G01X4450Y23972D01*
G01X4577Y24099D01*
G01X4640Y24226D01*
G01X4640Y24417D01*
G01X4577Y24544D01*
G01X4450Y24671D01*
G01X3304Y25092D02*
G01X4640Y25092D01*
G01X4640Y25092D02*
G01X4640Y25854D01*
G01X3304Y26276D02*
G01X4640Y26276D01*
G01X3304Y26276D02*
G01X3304Y27101D01*
G01X3942Y26276D02*
G01X3942Y26784D01*
G01X4640Y26276D02*
G01X4640Y27101D01*
G01X3304Y27523D02*
G01X4640Y27523D01*
G01X3304Y27523D02*
G01X3304Y27967D01*
G01X3368Y28158D01*
G01X3497Y28285D01*
G01X3624Y28348D01*
G01X3815Y28412D01*
G01X4132Y28412D01*
G01X4323Y28348D01*
G01X4450Y28285D01*
G01X4577Y28158D01*
G01X4640Y27967D01*
G01X4640Y27523D01*
G54D38*
G01X21617Y34531D02*
G01X22189Y34531D01*
G01X21877Y34117D01*
G01X22034Y34117D01*
G01X22136Y34063D01*
G01X22189Y34013D01*
G01X22240Y33858D01*
G01X22240Y33754D01*
G01X22189Y33596D01*
G01X22085Y33492D01*
G01X21930Y33441D01*
G01X21772Y33441D01*
G01X21617Y33492D01*
G01X21564Y33545D01*
G01X21513Y33649D01*
G01X22583Y34531D02*
G01X22999Y33441D01*
G01X23416Y34531D02*
G01X22999Y33441D01*
G01X17228Y12164D02*
G01X17228Y12890D01*
G01X17592Y12527D02*
G01X16865Y12527D01*
G01X17157Y10368D02*
G01X17157Y11094D01*
G01X17520Y10731D02*
G01X16794Y10731D01*
G01X12252Y2730D02*
G01X13398Y2730D01*
G01X1587Y9334D02*
G01X1587Y8191D01*
G01X1016Y8763D02*
G01X2161Y8763D01*
G01X22293Y31766D02*
G01X22240Y31870D01*
G01X22136Y31974D01*
G01X22034Y32025D01*
G01X21826Y32025D01*
G01X21722Y31974D01*
G01X21617Y31870D01*
G01X21564Y31766D01*
G01X21513Y31611D01*
G01X21513Y31352D01*
G01X21564Y31194D01*
G01X21617Y31090D01*
G01X21722Y30986D01*
G01X21826Y30935D01*
G01X22034Y30935D01*
G01X22136Y30986D01*
G01X22240Y31090D01*
G01X22293Y31194D01*
G01X22293Y31352D01*
G01X22034Y31352D02*
G01X22293Y31352D01*
G01X22636Y32025D02*
G01X22636Y30935D01*
G01X22636Y32025D02*
G01X23362Y30935D01*
G01X23362Y32025D02*
G01X23362Y30935D01*
G01X23705Y32025D02*
G01X23705Y30935D01*
G01X23705Y32025D02*
G01X24069Y32025D01*
G01X24226Y31974D01*
G01X24330Y31870D01*
G01X24381Y31766D01*
G01X24434Y31611D01*
G01X24434Y31352D01*
G01X24381Y31194D01*
G01X24330Y31090D01*
G01X24226Y30986D01*
G01X24069Y30935D01*
G01X23705Y30935D01*
G01X21513Y29519D02*
G01X21513Y28429D01*
G01X21513Y29519D02*
G01X21876Y29519D01*
G01X22034Y29468D01*
G01X22136Y29364D01*
G01X22189Y29259D01*
G01X22240Y29105D01*
G01X22240Y28845D01*
G01X22189Y28688D01*
G01X22136Y28584D01*
G01X22034Y28480D01*
G01X21876Y28429D01*
G01X21513Y28429D01*
G01X23103Y29519D02*
G01X22583Y28792D01*
G01X23362Y28792D01*
G01X23103Y29519D02*
G01X23103Y28429D01*
G01X21930Y27012D02*
G01X21513Y25923D01*
G01X21930Y27012D02*
G01X22344Y25923D01*
G01X21668Y26286D02*
G01X22189Y26286D01*
G01X23207Y27012D02*
G01X22687Y26286D01*
G01X23467Y26286D01*
G01X23207Y27012D02*
G01X23207Y25923D01*
G01X19621Y48729D02*
G01X19621Y47586D01*
G01X19050Y48158D02*
G01X20195Y48158D01*
G01X6604Y48221D02*
G01X7749Y48221D01*
G54D39*
G01X15240Y27901D02*
G01X15240Y27122D01*
G01X15290Y26964D01*
G01X15394Y26863D01*
G01X15552Y26809D01*
G01X15656Y26809D01*
G01X15811Y26863D01*
G01X15915Y26964D01*
G01X15966Y27122D01*
G01X15966Y27901D01*
G01X16309Y27693D02*
G01X16413Y27744D01*
G01X16570Y27901D01*
G01X16570Y26809D01*
G01X15240Y4645D02*
G01X16329Y4229D01*
G01X15240Y4645D02*
G01X16329Y5059D01*
G01X15966Y4384D02*
G01X15966Y4904D01*
G01X15240Y5402D02*
G01X16329Y5402D01*
G01X15240Y5402D02*
G01X16329Y6131D01*
G01X15240Y6131D02*
G01X16329Y6131D01*
G01X15240Y6837D02*
G01X16329Y6837D01*
G01X15240Y6474D02*
G01X15240Y7200D01*
G01X11193Y33228D02*
G01X11142Y33332D01*
G01X11038Y33436D01*
G01X10934Y33489D01*
G01X10726Y33489D01*
G01X10622Y33436D01*
G01X10518Y33332D01*
G01X10467Y33228D01*
G01X10414Y33073D01*
G01X10414Y32814D01*
G01X10467Y32656D01*
G01X10518Y32552D01*
G01X10622Y32448D01*
G01X10726Y32397D01*
G01X10934Y32397D01*
G01X11038Y32448D01*
G01X11142Y32552D01*
G01X11193Y32656D01*
G01X11640Y33489D02*
G01X12212Y33489D01*
G01X11899Y33073D01*
G01X12057Y33073D01*
G01X12158Y33020D01*
G01X12212Y32969D01*
G01X12263Y32814D01*
G01X12263Y32710D01*
G01X12212Y32552D01*
G01X12108Y32448D01*
G01X11953Y32397D01*
G01X11795Y32397D01*
G01X11640Y32448D01*
G01X11587Y32501D01*
G01X11536Y32606D01*
G01X4572Y31457D02*
G01X4572Y30368D01*
G01X4572Y31457D02*
G01X5039Y31457D01*
G01X5194Y31407D01*
G01X5247Y31356D01*
G01X5298Y31252D01*
G01X5298Y31148D01*
G01X5247Y31043D01*
G01X5194Y30990D01*
G01X5039Y30939D01*
G01X4572Y30939D01*
G01X4935Y30939D02*
G01X5298Y30368D01*
G01X5641Y31252D02*
G01X5745Y31302D01*
G01X5902Y31457D01*
G01X5902Y30368D01*
G01X1023Y35427D02*
G01X919Y35377D01*
G01X815Y35272D01*
G01X762Y35168D01*
G01X762Y34960D01*
G01X815Y34856D01*
G01X919Y34752D01*
G01X1023Y34701D01*
G01X1178Y34648D01*
G01X1437Y34648D01*
G01X1595Y34701D01*
G01X1699Y34752D01*
G01X1803Y34856D01*
G01X1854Y34960D01*
G01X1854Y35168D01*
G01X1803Y35272D01*
G01X1699Y35377D01*
G01X1595Y35427D01*
G01X970Y35770D02*
G01X919Y35874D01*
G01X762Y36029D01*
G01X1854Y36029D01*
G01X20066Y7835D02*
G01X20066Y6746D01*
G01X20066Y7835D02*
G01X20533Y7835D01*
G01X20688Y7785D01*
G01X20741Y7734D01*
G01X20792Y7630D01*
G01X20792Y7472D01*
G01X20741Y7368D01*
G01X20688Y7317D01*
G01X20533Y7264D01*
G01X20066Y7264D01*
G01X21135Y7835D02*
G01X21135Y6746D01*
G01X21135Y7835D02*
G01X21602Y7835D01*
G01X21760Y7785D01*
G01X21810Y7734D01*
G01X21864Y7630D01*
G01X21864Y7526D01*
G01X21810Y7421D01*
G01X21760Y7368D01*
G01X21602Y7317D01*
G01X21135Y7317D01*
G01X21501Y7317D02*
G01X21864Y6746D01*
G01X22517Y7835D02*
G01X22415Y7785D01*
G01X22311Y7680D01*
G01X22258Y7576D01*
G01X22207Y7421D01*
G01X22207Y7162D01*
G01X22258Y7005D01*
G01X22311Y6901D01*
G01X22415Y6797D01*
G01X22517Y6746D01*
G01X22725Y6746D01*
G01X22829Y6797D01*
G01X22933Y6901D01*
G01X22987Y7005D01*
G01X23037Y7162D01*
G01X23037Y7421D01*
G01X22987Y7576D01*
G01X22933Y7680D01*
G01X22829Y7785D01*
G01X22725Y7835D01*
G01X22517Y7835D01*
G01X24160Y7576D02*
G01X24107Y7680D01*
G01X24003Y7785D01*
G01X23901Y7835D01*
G01X23693Y7835D01*
G01X23588Y7785D01*
G01X23484Y7680D01*
G01X23431Y7576D01*
G01X23380Y7421D01*
G01X23380Y7162D01*
G01X23431Y7005D01*
G01X23484Y6901D01*
G01X23588Y6797D01*
G01X23693Y6746D01*
G01X23901Y6746D01*
G01X24003Y6797D01*
G01X24107Y6901D01*
G01X24160Y7005D01*
G01X24160Y7162D01*
G01X23901Y7162D02*
G01X24160Y7162D01*
G01X5552Y42732D02*
G01X5448Y42837D01*
G01X5293Y42887D01*
G01X5085Y42887D01*
G01X4930Y42837D01*
G01X4825Y42732D01*
G01X4825Y42628D01*
G01X4876Y42524D01*
G01X4930Y42473D01*
G01X5034Y42420D01*
G01X5346Y42316D01*
G01X5448Y42265D01*
G01X5501Y42214D01*
G01X5552Y42110D01*
G01X5552Y41953D01*
G01X5448Y41849D01*
G01X5293Y41798D01*
G01X5085Y41798D01*
G01X4930Y41849D01*
G01X4825Y41953D01*
G01X5895Y42682D02*
G01X5999Y42732D01*
G01X6156Y42887D01*
G01X6156Y41798D01*
G01X762Y42887D02*
G01X762Y41798D01*
G01X762Y42887D02*
G01X1125Y42887D01*
G01X1282Y42837D01*
G01X1384Y42732D01*
G01X1437Y42628D01*
G01X1488Y42473D01*
G01X1488Y42214D01*
G01X1437Y42057D01*
G01X1384Y41953D01*
G01X1282Y41849D01*
G01X1125Y41798D01*
G01X762Y41798D01*
G01X1831Y42682D02*
G01X1935Y42732D01*
G01X2092Y42887D01*
G01X2092Y41798D01*
G01X15920Y41313D02*
G01X15816Y41262D01*
G01X15712Y41158D01*
G01X15659Y41053D01*
G01X15608Y40899D01*
G01X15608Y40639D01*
G01X15659Y40482D01*
G01X15712Y40378D01*
G01X15816Y40274D01*
G01X15920Y40223D01*
G01X16129Y40223D01*
G01X16230Y40274D01*
G01X16334Y40378D01*
G01X16388Y40482D01*
G01X16438Y40639D01*
G01X16438Y40899D01*
G01X16388Y41053D01*
G01X16334Y41158D01*
G01X16230Y41262D01*
G01X16129Y41313D01*
G01X15920Y41313D01*
G01X16075Y40431D02*
G01X16388Y40119D01*
G01X16781Y41107D02*
G01X16885Y41158D01*
G01X17043Y41313D01*
G01X17043Y40223D01*
G01X9143Y15455D02*
G01X9143Y14678D01*
G01X9194Y14521D01*
G01X9298Y14417D01*
G01X9456Y14366D01*
G01X9560Y14366D01*
G01X9715Y14417D01*
G01X9819Y14521D01*
G01X9870Y14678D01*
G01X9870Y15455D01*
G01X10317Y15455D02*
G01X10888Y15455D01*
G01X10579Y15041D01*
G01X10734Y15041D01*
G01X10838Y14988D01*
G01X10888Y14937D01*
G01X10942Y14782D01*
G01X10942Y14678D01*
G01X10888Y14521D01*
G01X10784Y14417D01*
G01X10629Y14366D01*
G01X10474Y14366D01*
G01X10317Y14417D01*
G01X10266Y14470D01*
G01X10213Y14574D01*
G01X16781Y15196D02*
G01X16728Y15300D01*
G01X16624Y15405D01*
G01X16522Y15455D01*
G01X16314Y15455D01*
G01X16210Y15405D01*
G01X16106Y15300D01*
G01X16052Y15196D01*
G01X16002Y15041D01*
G01X16002Y14782D01*
G01X16052Y14625D01*
G01X16106Y14521D01*
G01X16210Y14417D01*
G01X16314Y14366D01*
G01X16522Y14366D01*
G01X16624Y14417D01*
G01X16728Y14521D01*
G01X16781Y14625D01*
G01X17642Y15455D02*
G01X17124Y14729D01*
G01X17904Y14729D01*
G01X17642Y15455D02*
G01X17642Y14366D01*
G01X22108Y44320D02*
G01X22057Y44424D01*
G01X21953Y44528D01*
G01X21849Y44582D01*
G01X21640Y44582D01*
G01X21536Y44528D01*
G01X21432Y44424D01*
G01X21381Y44320D01*
G01X21328Y44165D01*
G01X21328Y43906D01*
G01X21381Y43748D01*
G01X21432Y43644D01*
G01X21536Y43540D01*
G01X21640Y43489D01*
G01X21849Y43489D01*
G01X21953Y43540D01*
G01X22057Y43644D01*
G01X22108Y43748D01*
G01X22501Y44320D02*
G01X22501Y44373D01*
G01X22555Y44477D01*
G01X22605Y44528D01*
G01X22710Y44582D01*
G01X22918Y44582D01*
G01X23022Y44528D01*
G01X23073Y44477D01*
G01X23126Y44373D01*
G01X23126Y44269D01*
G01X23073Y44165D01*
G01X22971Y44010D01*
G01X22451Y43489D01*
G01X23177Y43489D01*
G54D31*
G75*
G01X15002Y49682D02*
G3X17002Y49682I1000J0D01*
G01*
G75*
G01X10005Y49679D02*
G3X12005Y49679I1000J0D01*
G01*
G54D35*
G75*
G01X7031Y26665D02*
G3X7031Y26662I-150J-1D01*
G01*
G54D36*
G75*
G01X9182Y25164D02*
G3X9182Y25161I-200J-1D01*
G01*
G54D10*
G75*
G01X4041Y36640D02*
G3X1958Y36640I-1041J1282D01*
G01*
G75*
G01X10777Y38062D02*
G03X10777Y38062I-1778J0D01*
G01*
M00*
M02*
