G04 ---------------------------- Layer name :BOTTOM SILK LAYER*
G04 EasyEDA v5.3.2, Sat, 10 Mar 2018 16:58:59 GMT*
G04 Gerber Generator version 0.2*
G04 Scale: 100 percent, Rotated: No, Reflected: No *
G04 Dimensions in millimeters *
G04 leading zeros omitted , absolute positions ,3 integer and 3 decimal *
%FSLAX33Y33*%
%MOMM*%
G90*
G71D02*

%ADD10C,0.254000*%
%ADD38C,0.203200*%
%ADD39C,0.177800*%
%ADD40C,0.387096*%

%LPD*%

%LPD*%
G36*
G01X21667Y43744D02*
G01X21667Y43744D01*
G01X21667Y43744D01*
G01X21642Y43738D01*
G01X21619Y43728D01*
G01X21600Y43716D01*
G01X21588Y43703D01*
G01X21588Y43703D01*
G01X21580Y43674D01*
G01X21567Y43620D01*
G01X21553Y43547D01*
G01X21537Y43464D01*
G01X21502Y43261D01*
G01X21423Y43238D01*
G01X21423Y43238D01*
G01X21385Y43225D01*
G01X21341Y43207D01*
G01X21295Y43187D01*
G01X21253Y43167D01*
G01X21253Y43167D01*
G01X21215Y43150D01*
G01X21181Y43138D01*
G01X21154Y43132D01*
G01X21138Y43134D01*
G01X21138Y43134D01*
G01X21116Y43149D01*
G01X21072Y43179D01*
G01X21013Y43221D01*
G01X20945Y43269D01*
G01X20945Y43269D01*
G01X20858Y43329D01*
G01X20801Y43363D01*
G01X20764Y43376D01*
G01X20740Y43370D01*
G01X20740Y43370D01*
G01X20709Y43349D01*
G01X20668Y43314D01*
G01X20621Y43269D01*
G01X20572Y43219D01*
G01X20527Y43169D01*
G01X20489Y43125D01*
G01X20462Y43089D01*
G01X20453Y43068D01*
G01X20453Y43068D01*
G01X20462Y43041D01*
G01X20489Y42993D01*
G01X20528Y42929D01*
G01X20575Y42857D01*
G01X20699Y42677D01*
G01X20643Y42570D01*
G01X20643Y42570D01*
G01X20619Y42523D01*
G01X20596Y42471D01*
G01X20577Y42423D01*
G01X20564Y42382D01*
G01X20544Y42303D01*
G01X20328Y42268D01*
G01X20328Y42268D01*
G01X20242Y42254D01*
G01X20169Y42240D01*
G01X20115Y42228D01*
G01X20089Y42220D01*
G01X20089Y42220D01*
G01X20079Y42197D01*
G01X20071Y42147D01*
G01X20065Y42079D01*
G01X20062Y42001D01*
G01X20062Y41923D01*
G01X20065Y41854D01*
G01X20070Y41802D01*
G01X20079Y41775D01*
G01X20079Y41775D01*
G01X20103Y41765D01*
G01X20153Y41751D01*
G01X20223Y41735D01*
G01X20305Y41719D01*
G01X20305Y41719D01*
G01X20388Y41704D01*
G01X20458Y41689D01*
G01X20507Y41676D01*
G01X20529Y41666D01*
G01X20529Y41666D01*
G01X20538Y41651D01*
G01X20551Y41619D01*
G01X20567Y41576D01*
G01X20585Y41526D01*
G01X20585Y41526D01*
G01X20605Y41473D01*
G01X20627Y41420D01*
G01X20648Y41374D01*
G01X20666Y41341D01*
G01X20702Y41280D01*
G01X20567Y41094D01*
G01X20567Y41094D01*
G01X20515Y41020D01*
G01X20472Y40957D01*
G01X20443Y40912D01*
G01X20432Y40891D01*
G01X20432Y40891D01*
G01X20445Y40870D01*
G01X20478Y40831D01*
G01X20524Y40782D01*
G01X20579Y40727D01*
G01X20635Y40674D01*
G01X20685Y40629D01*
G01X20724Y40598D01*
G01X20745Y40586D01*
G01X20745Y40586D01*
G01X20768Y40596D01*
G01X20814Y40623D01*
G01X20877Y40662D01*
G01X20950Y40711D01*
G01X21128Y40833D01*
G01X21199Y40802D01*
G01X21199Y40802D01*
G01X21272Y40772D01*
G01X21328Y40752D01*
G01X21365Y40741D01*
G01X21382Y40741D01*
G01X21382Y40741D01*
G01X21386Y40751D01*
G01X21395Y40775D01*
G01X21409Y40813D01*
G01X21427Y40862D01*
G01X21448Y40920D01*
G01X21473Y40987D01*
G01X21499Y41061D01*
G01X21527Y41140D01*
G01X21527Y41140D01*
G01X21563Y41243D01*
G01X21591Y41329D01*
G01X21614Y41398D01*
G01X21630Y41452D01*
G01X21640Y41493D01*
G01X21645Y41522D01*
G01X21644Y41540D01*
G01X21639Y41549D01*
G01X21639Y41549D01*
G01X21574Y41590D01*
G01X21517Y41636D01*
G01X21469Y41686D01*
G01X21428Y41740D01*
G01X21397Y41797D01*
G01X21374Y41857D01*
G01X21361Y41920D01*
G01X21357Y41986D01*
G01X21357Y41986D01*
G01X21361Y42053D01*
G01X21374Y42118D01*
G01X21396Y42180D01*
G01X21425Y42238D01*
G01X21463Y42291D01*
G01X21507Y42340D01*
G01X21558Y42382D01*
G01X21616Y42418D01*
G01X21616Y42418D01*
G01X21660Y42436D01*
G01X21712Y42449D01*
G01X21768Y42457D01*
G01X21827Y42459D01*
G01X21886Y42456D01*
G01X21943Y42448D01*
G01X21995Y42434D01*
G01X22040Y42415D01*
G01X22040Y42415D01*
G01X22109Y42369D01*
G01X22176Y42307D01*
G01X22232Y42238D01*
G01X22271Y42169D01*
G01X22271Y42169D01*
G01X22284Y42128D01*
G01X22293Y42082D01*
G01X22297Y42032D01*
G01X22296Y41981D01*
G01X22292Y41929D01*
G01X22282Y41878D01*
G01X22269Y41830D01*
G01X22251Y41785D01*
G01X22251Y41785D01*
G01X22221Y41728D01*
G01X22186Y41681D01*
G01X22133Y41631D01*
G01X22050Y41567D01*
G01X22005Y41534D01*
G01X22134Y41199D01*
G01X22134Y41199D01*
G01X22161Y41130D01*
G01X22186Y41064D01*
G01X22210Y41002D01*
G01X22233Y40944D01*
G01X22252Y40894D01*
G01X22268Y40852D01*
G01X22281Y40821D01*
G01X22289Y40802D01*
G01X22314Y40739D01*
G01X22388Y40772D01*
G01X22388Y40772D01*
G01X22421Y40787D01*
G01X22455Y40805D01*
G01X22487Y40824D01*
G01X22513Y40840D01*
G01X22566Y40876D01*
G01X22741Y40746D01*
G01X22741Y40746D01*
G01X22812Y40696D01*
G01X22868Y40660D01*
G01X22914Y40640D01*
G01X22954Y40636D01*
G01X22991Y40649D01*
G01X23032Y40679D01*
G01X23079Y40726D01*
G01X23137Y40792D01*
G01X23137Y40792D01*
G01X23183Y40844D01*
G01X23216Y40884D01*
G01X23234Y40916D01*
G01X23239Y40948D01*
G01X23228Y40984D01*
G01X23202Y41030D01*
G01X23160Y41092D01*
G01X23102Y41176D01*
G01X22985Y41341D01*
G01X23033Y41447D01*
G01X23033Y41447D01*
G01X23054Y41495D01*
G01X23074Y41547D01*
G01X23091Y41596D01*
G01X23102Y41635D01*
G01X23102Y41635D01*
G01X23119Y41687D01*
G01X23152Y41716D01*
G01X23229Y41736D01*
G01X23376Y41757D01*
G01X23376Y41757D01*
G01X23444Y41769D01*
G01X23503Y41781D01*
G01X23547Y41791D01*
G01X23569Y41798D01*
G01X23569Y41798D01*
G01X23579Y41819D01*
G01X23586Y41866D01*
G01X23590Y41929D01*
G01X23592Y42001D01*
G01X23590Y42076D01*
G01X23585Y42144D01*
G01X23577Y42200D01*
G01X23567Y42235D01*
G01X23567Y42235D01*
G01X23548Y42254D01*
G01X23512Y42270D01*
G01X23452Y42286D01*
G01X23361Y42303D01*
G01X23361Y42303D01*
G01X23208Y42331D01*
G01X23125Y42349D01*
G01X23091Y42363D01*
G01X23084Y42380D01*
G01X23084Y42380D01*
G01X23079Y42399D01*
G01X23064Y42437D01*
G01X23042Y42488D01*
G01X23015Y42547D01*
G01X22947Y42695D01*
G01X23074Y42867D01*
G01X23074Y42867D01*
G01X23123Y42938D01*
G01X23163Y42999D01*
G01X23191Y43046D01*
G01X23201Y43071D01*
G01X23201Y43071D01*
G01X23189Y43095D01*
G01X23156Y43137D01*
G01X23109Y43189D01*
G01X23054Y43245D01*
G01X22997Y43299D01*
G01X22945Y43346D01*
G01X22903Y43378D01*
G01X22878Y43391D01*
G01X22878Y43391D01*
G01X22853Y43381D01*
G01X22804Y43354D01*
G01X22739Y43313D01*
G01X22665Y43264D01*
G01X22665Y43264D01*
G01X22560Y43194D01*
G01X22497Y43159D01*
G01X22458Y43150D01*
G01X22421Y43159D01*
G01X22421Y43159D01*
G01X22391Y43173D01*
G01X22350Y43189D01*
G01X22304Y43207D01*
G01X22259Y43223D01*
G01X22259Y43223D01*
G01X22217Y43239D01*
G01X22182Y43253D01*
G01X22157Y43263D01*
G01X22147Y43266D01*
G01X22147Y43266D01*
G01X22142Y43285D01*
G01X22133Y43332D01*
G01X22122Y43401D01*
G01X22109Y43485D01*
G01X22109Y43485D01*
G01X22093Y43570D01*
G01X22078Y43642D01*
G01X22065Y43693D01*
G01X22055Y43716D01*
G01X22055Y43716D01*
G01X22037Y43723D01*
G01X21999Y43730D01*
G01X21948Y43736D01*
G01X21888Y43741D01*
G01X21825Y43745D01*
G01X21763Y43746D01*
G01X21709Y43746D01*
G01X21667Y43744D01*
G37*

%LPD*%
G36*
G01X18415Y8868D02*
G01X18415Y8868D01*
G01X18415Y8868D01*
G01X18434Y8822D01*
G01X18454Y8771D01*
G01X18476Y8716D01*
G01X18500Y8657D01*
G01X18524Y8595D01*
G01X18550Y8530D01*
G01X18576Y8462D01*
G01X18604Y8393D01*
G01X18631Y8323D01*
G01X18659Y8252D01*
G01X18687Y8181D01*
G01X18714Y8110D01*
G01X18742Y8040D01*
G01X18768Y7972D01*
G01X18794Y7906D01*
G01X18819Y7842D01*
G01X18819Y7842D01*
G01X18851Y7759D01*
G01X18883Y7679D01*
G01X18913Y7601D01*
G01X18942Y7526D01*
G01X18970Y7456D01*
G01X18996Y7391D01*
G01X19019Y7332D01*
G01X19040Y7280D01*
G01X19058Y7235D01*
G01X19072Y7198D01*
G01X19084Y7171D01*
G01X19091Y7154D01*
G01X19126Y7070D01*
G01X19169Y7164D01*
G01X19169Y7164D01*
G01X19194Y7218D01*
G01X19229Y7294D01*
G01X19270Y7381D01*
G01X19312Y7471D01*
G01X19312Y7471D01*
G01X19326Y7502D01*
G01X19343Y7538D01*
G01X19362Y7579D01*
G01X19384Y7624D01*
G01X19407Y7675D01*
G01X19432Y7729D01*
G01X19459Y7786D01*
G01X19488Y7847D01*
G01X19517Y7910D01*
G01X19547Y7976D01*
G01X19579Y8043D01*
G01X19611Y8112D01*
G01X19643Y8182D01*
G01X19676Y8252D01*
G01X19709Y8322D01*
G01X19741Y8393D01*
G01X19773Y8463D01*
G01X19805Y8531D01*
G01X19836Y8598D01*
G01X19867Y8664D01*
G01X19896Y8727D01*
G01X19923Y8787D01*
G01X19950Y8844D01*
G01X19975Y8898D01*
G01X19998Y8948D01*
G01X20018Y8993D01*
G01X20037Y9033D01*
G01X20053Y9069D01*
G01X20053Y9069D01*
G01X20108Y9192D01*
G01X20135Y9266D01*
G01X20139Y9315D01*
G01X20127Y9361D01*
G01X20127Y9361D01*
G01X20122Y9373D01*
G01X20114Y9394D01*
G01X20101Y9423D01*
G01X20085Y9460D01*
G01X20065Y9504D01*
G01X20043Y9554D01*
G01X20017Y9611D01*
G01X19988Y9674D01*
G01X19957Y9742D01*
G01X19924Y9815D01*
G01X19888Y9892D01*
G01X19851Y9973D01*
G01X19812Y10058D01*
G01X19772Y10145D01*
G01X19730Y10235D01*
G01X19688Y10326D01*
G01X19688Y10326D01*
G01X19654Y10399D01*
G01X19620Y10472D01*
G01X19587Y10544D01*
G01X19554Y10615D01*
G01X19522Y10685D01*
G01X19491Y10753D01*
G01X19460Y10819D01*
G01X19431Y10882D01*
G01X19403Y10944D01*
G01X19375Y11002D01*
G01X19350Y11058D01*
G01X19326Y11110D01*
G01X19303Y11158D01*
G01X19282Y11203D01*
G01X19264Y11244D01*
G01X19247Y11280D01*
G01X19232Y11311D01*
G01X19220Y11338D01*
G01X19210Y11359D01*
G01X19202Y11375D01*
G01X19202Y11375D01*
G01X19174Y11435D01*
G01X19150Y11483D01*
G01X19132Y11514D01*
G01X19124Y11522D01*
G01X19124Y11522D01*
G01X19121Y11517D01*
G01X19114Y11502D01*
G01X19104Y11478D01*
G01X19091Y11446D01*
G01X19074Y11406D01*
G01X19055Y11360D01*
G01X19034Y11307D01*
G01X19010Y11248D01*
G01X18984Y11183D01*
G01X18957Y11113D01*
G01X18927Y11039D01*
G01X18896Y10961D01*
G01X18864Y10880D01*
G01X18831Y10796D01*
G01X18796Y10710D01*
G01X18762Y10622D01*
G01X18726Y10532D01*
G01X18691Y10442D01*
G01X18655Y10352D01*
G01X18620Y10262D01*
G01X18585Y10174D01*
G01X18551Y10086D01*
G01X18518Y10001D01*
G01X18485Y9918D01*
G01X18454Y9838D01*
G01X18424Y9762D01*
G01X18396Y9689D01*
G01X18370Y9622D01*
G01X18346Y9559D01*
G01X18324Y9503D01*
G01X18305Y9452D01*
G01X18288Y9409D01*
G01X18274Y9372D01*
G01X18263Y9344D01*
G01X18256Y9324D01*
G01X18252Y9313D01*
G01X18252Y9313D01*
G01X18255Y9300D01*
G01X18264Y9272D01*
G01X18279Y9229D01*
G01X18298Y9174D01*
G01X18323Y9109D01*
G01X18351Y9035D01*
G01X18382Y8954D01*
G01X18415Y8868D01*
G37*
G36*
G01X21031Y6768D02*
G01X21031Y6768D01*
G01X22550Y6773D01*
G01X22715Y7080D01*
G01X22715Y7080D01*
G01X22734Y7114D01*
G01X22754Y7152D01*
G01X22777Y7195D01*
G01X22802Y7241D01*
G01X22828Y7290D01*
G01X22856Y7342D01*
G01X22885Y7396D01*
G01X22915Y7452D01*
G01X22946Y7510D01*
G01X22977Y7568D01*
G01X23008Y7627D01*
G01X23040Y7687D01*
G01X23071Y7745D01*
G01X23102Y7803D01*
G01X23133Y7860D01*
G01X23162Y7916D01*
G01X23162Y7916D01*
G01X23232Y8047D01*
G01X23295Y8164D01*
G01X23350Y8267D01*
G01X23398Y8357D01*
G01X23440Y8437D01*
G01X23477Y8506D01*
G01X23509Y8566D01*
G01X23537Y8619D01*
G01X23562Y8665D01*
G01X23583Y8705D01*
G01X23602Y8741D01*
G01X23620Y8773D01*
G01X23636Y8804D01*
G01X23652Y8833D01*
G01X23668Y8863D01*
G01X23686Y8894D01*
G01X23686Y8894D01*
G01X23717Y8953D01*
G01X23743Y9006D01*
G01X23761Y9045D01*
G01X23767Y9066D01*
G01X23767Y9066D01*
G01X23765Y9068D01*
G01X23758Y9071D01*
G01X23746Y9072D01*
G01X23730Y9074D01*
G01X23708Y9076D01*
G01X23682Y9078D01*
G01X23650Y9079D01*
G01X23613Y9081D01*
G01X23570Y9082D01*
G01X23522Y9083D01*
G01X23467Y9085D01*
G01X23407Y9086D01*
G01X23341Y9087D01*
G01X23268Y9088D01*
G01X23189Y9088D01*
G01X23104Y9089D01*
G01X23012Y9090D01*
G01X22913Y9090D01*
G01X22807Y9091D01*
G01X22694Y9091D01*
G01X22574Y9091D01*
G01X22447Y9092D01*
G01X22312Y9092D01*
G01X22169Y9092D01*
G01X20569Y9092D01*
G01X20442Y8820D01*
G01X20442Y8820D01*
G01X20414Y8762D01*
G01X20385Y8701D01*
G01X20356Y8639D01*
G01X20327Y8577D01*
G01X20299Y8517D01*
G01X20273Y8462D01*
G01X20250Y8412D01*
G01X20231Y8370D01*
G01X20231Y8370D01*
G01X20221Y8348D01*
G01X20209Y8320D01*
G01X20193Y8286D01*
G01X20175Y8246D01*
G01X20155Y8202D01*
G01X20132Y8153D01*
G01X20108Y8099D01*
G01X20081Y8042D01*
G01X20053Y7982D01*
G01X20024Y7918D01*
G01X19994Y7853D01*
G01X19963Y7785D01*
G01X19931Y7716D01*
G01X19898Y7646D01*
G01X19865Y7575D01*
G01X19832Y7504D01*
G01X19832Y7504D01*
G01X19789Y7411D01*
G01X19748Y7321D01*
G01X19708Y7235D01*
G01X19671Y7154D01*
G01X19637Y7079D01*
G01X19607Y7010D01*
G01X19579Y6949D01*
G01X19556Y6897D01*
G01X19538Y6854D01*
G01X19524Y6821D01*
G01X19515Y6800D01*
G01X19512Y6790D01*
G01X19512Y6790D01*
G01X19514Y6788D01*
G01X19519Y6785D01*
G01X19527Y6783D01*
G01X19540Y6780D01*
G01X19556Y6778D01*
G01X19577Y6777D01*
G01X19603Y6775D01*
G01X19634Y6773D01*
G01X19670Y6772D01*
G01X19712Y6771D01*
G01X19759Y6769D01*
G01X19813Y6769D01*
G01X19873Y6768D01*
G01X19939Y6767D01*
G01X20013Y6767D01*
G01X20093Y6766D01*
G01X20181Y6766D01*
G01X20277Y6766D01*
G01X20381Y6766D01*
G01X20494Y6766D01*
G01X20614Y6766D01*
G01X20744Y6767D01*
G01X20883Y6767D01*
G01X21031Y6768D01*
G37*
G36*
G01X19896Y10964D02*
G01X19896Y10964D01*
G01X19896Y10964D01*
G01X19928Y10895D01*
G01X19960Y10826D01*
G01X19992Y10757D01*
G01X20024Y10688D01*
G01X20056Y10619D01*
G01X20087Y10551D01*
G01X20119Y10483D01*
G01X20149Y10418D01*
G01X20179Y10353D01*
G01X20208Y10291D01*
G01X20236Y10230D01*
G01X20263Y10172D01*
G01X20289Y10117D01*
G01X20313Y10065D01*
G01X20336Y10016D01*
G01X20357Y9970D01*
G01X20376Y9929D01*
G01X20393Y9892D01*
G01X20409Y9859D01*
G01X20422Y9831D01*
G01X20564Y9526D01*
G01X22149Y9518D01*
G01X22149Y9518D01*
G01X22267Y9518D01*
G01X22382Y9518D01*
G01X22493Y9518D01*
G01X22600Y9518D01*
G01X22704Y9518D01*
G01X22803Y9518D01*
G01X22898Y9518D01*
G01X22989Y9518D01*
G01X23075Y9519D01*
G01X23157Y9519D01*
G01X23234Y9520D01*
G01X23307Y9520D01*
G01X23374Y9521D01*
G01X23437Y9522D01*
G01X23494Y9523D01*
G01X23546Y9523D01*
G01X23592Y9524D01*
G01X23633Y9526D01*
G01X23668Y9527D01*
G01X23697Y9528D01*
G01X23721Y9529D01*
G01X23738Y9531D01*
G01X23749Y9532D01*
G01X23754Y9534D01*
G01X23754Y9534D01*
G01X23756Y9551D01*
G01X23747Y9584D01*
G01X23728Y9630D01*
G01X23698Y9686D01*
G01X23698Y9686D01*
G01X23662Y9752D01*
G01X23618Y9834D01*
G01X23572Y9920D01*
G01X23531Y10001D01*
G01X23531Y10001D01*
G01X23505Y10050D01*
G01X23479Y10099D01*
G01X23453Y10148D01*
G01X23427Y10197D01*
G01X23401Y10247D01*
G01X23374Y10297D01*
G01X23347Y10347D01*
G01X23320Y10398D01*
G01X23292Y10450D01*
G01X23264Y10503D01*
G01X23235Y10557D01*
G01X23205Y10612D01*
G01X23175Y10669D01*
G01X23144Y10727D01*
G01X23112Y10786D01*
G01X23079Y10848D01*
G01X23045Y10911D01*
G01X23010Y10976D01*
G01X22974Y11044D01*
G01X22936Y11114D01*
G01X22936Y11114D01*
G01X22902Y11177D01*
G01X22868Y11241D01*
G01X22834Y11304D01*
G01X22801Y11365D01*
G01X22770Y11424D01*
G01X22740Y11480D01*
G01X22713Y11532D01*
G01X22687Y11579D01*
G01X22665Y11622D01*
G01X22646Y11658D01*
G01X22630Y11688D01*
G01X22619Y11710D01*
G01X22553Y11843D01*
G01X21034Y11843D01*
G01X21034Y11843D01*
G01X20888Y11842D01*
G01X20751Y11842D01*
G01X20623Y11842D01*
G01X20503Y11842D01*
G01X20392Y11842D01*
G01X20288Y11841D01*
G01X20192Y11841D01*
G01X20104Y11840D01*
G01X20023Y11840D01*
G01X19950Y11839D01*
G01X19882Y11838D01*
G01X19822Y11837D01*
G01X19768Y11836D01*
G01X19719Y11835D01*
G01X19677Y11834D01*
G01X19640Y11833D01*
G01X19608Y11831D01*
G01X19582Y11830D01*
G01X19560Y11828D01*
G01X19543Y11826D01*
G01X19530Y11824D01*
G01X19521Y11822D01*
G01X19516Y11820D01*
G01X19515Y11817D01*
G01X19515Y11817D01*
G01X19517Y11810D01*
G01X19523Y11795D01*
G01X19532Y11772D01*
G01X19545Y11741D01*
G01X19561Y11704D01*
G01X19580Y11660D01*
G01X19602Y11611D01*
G01X19626Y11555D01*
G01X19653Y11495D01*
G01X19683Y11429D01*
G01X19714Y11360D01*
G01X19747Y11287D01*
G01X19782Y11210D01*
G01X19819Y11130D01*
G01X19857Y11048D01*
G01X19896Y10964D01*
G37*

%LPD*%
G54D10*
G01X23266Y32016D02*
G01X23266Y30238D01*
G01X21183Y30238D01*
G01X21183Y32016D01*
G01X21183Y33439D02*
G01X21183Y35217D01*
G01X23266Y35217D01*
G01X23266Y33439D01*
G01X23268Y26177D02*
G01X23268Y24399D01*
G01X21186Y24399D01*
G01X21186Y26177D01*
G01X21186Y27599D02*
G01X21186Y29377D01*
G01X23268Y29377D01*
G01X23268Y27599D01*
G01X8178Y37020D02*
G01X6400Y37020D01*
G01X6400Y39103D01*
G01X8178Y39103D01*
G01X9601Y39103D02*
G01X11379Y39103D01*
G01X11379Y37020D01*
G01X9601Y37020D01*
G01X17729Y37579D02*
G01X19507Y37579D01*
G01X19507Y35496D01*
G01X17729Y35496D01*
G01X16306Y35496D02*
G01X14528Y35496D01*
G01X14528Y37579D01*
G01X16306Y37579D01*
G01X10617Y43929D02*
G01X12395Y43929D01*
G01X12395Y41846D01*
G01X10617Y41846D01*
G01X9194Y41846D02*
G01X7416Y41846D01*
G01X7416Y43929D01*
G01X9194Y43929D01*
G01X16306Y38036D02*
G01X14528Y38036D01*
G01X14528Y40119D01*
G01X16306Y40119D01*
G01X17729Y40119D02*
G01X19507Y40119D01*
G01X19507Y38036D01*
G01X17729Y38036D01*
G54D40*
G01X2540Y29552D02*
G01X2540Y14566D01*
G01X18796Y14566D02*
G01X18796Y22501D01*
G01X18796Y29552D01*
G54D10*
G01X16383Y27774D02*
G01X12573Y27774D01*
G01X12573Y23964D01*
G01X16383Y23964D01*
G01X16383Y27774D01*
G01X16383Y27774D01*
G54D38*
G01X21336Y20866D02*
G01X22340Y20866D01*
G01X22517Y20807D01*
G01X22576Y20689D01*
G01X22576Y20571D01*
G01X21749Y21043D02*
G01X21749Y20630D01*
G01X21336Y20181D02*
G01X22576Y20181D01*
G01X21986Y20181D02*
G01X21808Y20003D01*
G01X21749Y19885D01*
G01X21749Y19708D01*
G01X21808Y19590D01*
G01X21986Y19531D01*
G01X22576Y19531D01*
G01X21336Y18432D02*
G01X22576Y18432D01*
G01X21926Y18432D02*
G01X21808Y18550D01*
G01X21749Y18668D01*
G01X21749Y18845D01*
G01X21808Y18963D01*
G01X21926Y19082D01*
G01X22104Y19141D01*
G01X22222Y19141D01*
G01X22399Y19082D01*
G01X22517Y18963D01*
G01X22576Y18845D01*
G01X22576Y18668D01*
G01X22517Y18550D01*
G01X22399Y18432D01*
G01X22104Y18042D02*
G01X22104Y17333D01*
G01X21986Y17333D01*
G01X21867Y17392D01*
G01X21808Y17451D01*
G01X21749Y17569D01*
G01X21749Y17746D01*
G01X21808Y17864D01*
G01X21926Y17982D01*
G01X22104Y18042D01*
G01X22222Y18042D01*
G01X22399Y17982D01*
G01X22517Y17864D01*
G01X22576Y17746D01*
G01X22576Y17569D01*
G01X22517Y17451D01*
G01X22399Y17333D01*
G01X21749Y16942D02*
G01X22576Y16588D01*
G01X21749Y16233D02*
G01X22576Y16588D01*
G01X22281Y15784D02*
G01X22340Y15843D01*
G01X22399Y15784D01*
G01X22340Y15725D01*
G01X22281Y15784D01*
G01X21749Y15040D02*
G01X21808Y15158D01*
G01X21926Y15276D01*
G01X22104Y15335D01*
G01X22222Y15335D01*
G01X22399Y15276D01*
G01X22517Y15158D01*
G01X22576Y15040D01*
G01X22576Y14863D01*
G01X22517Y14744D01*
G01X22399Y14626D01*
G01X22222Y14567D01*
G01X22104Y14567D01*
G01X21926Y14626D01*
G01X21808Y14744D01*
G01X21749Y14863D01*
G01X21749Y15040D01*
G01X21749Y14177D02*
G01X22576Y14177D01*
G01X22104Y14177D02*
G01X21926Y14118D01*
G01X21808Y14000D01*
G01X21749Y13882D01*
G01X21749Y13704D01*
G01X21749Y12605D02*
G01X22695Y12605D01*
G01X22872Y12664D01*
G01X22931Y12723D01*
G01X22990Y12842D01*
G01X22990Y13019D01*
G01X22931Y13137D01*
G01X21926Y12605D02*
G01X21808Y12723D01*
G01X21749Y12842D01*
G01X21749Y13019D01*
G01X21808Y13137D01*
G01X21926Y13255D01*
G01X22104Y13314D01*
G01X22222Y13314D01*
G01X22399Y13255D01*
G01X22517Y13137D01*
G01X22576Y13019D01*
G01X22576Y12842D01*
G01X22517Y12723D01*
G01X22399Y12605D01*
G54D39*
G01X15240Y6657D02*
G01X16329Y7073D01*
G01X15240Y6657D02*
G01X16329Y6243D01*
G01X15966Y6918D02*
G01X15966Y6398D01*
G01X15240Y5900D02*
G01X16329Y5900D01*
G01X15240Y5900D02*
G01X16329Y5171D01*
G01X15240Y5171D02*
G01X16329Y5171D01*
G01X15240Y4465D02*
G01X16329Y4465D01*
G01X15240Y4828D02*
G01X15240Y4102D01*
G01X22351Y37299D02*
G01X23441Y37299D01*
G01X22351Y37299D02*
G01X22351Y36832D01*
G01X22402Y36677D01*
G01X22453Y36624D01*
G01X22557Y36573D01*
G01X22661Y36573D01*
G01X22765Y36624D01*
G01X22819Y36677D01*
G01X22870Y36832D01*
G01X22870Y37299D01*
G01X22870Y36936D02*
G01X23441Y36573D01*
G01X22506Y35605D02*
G01X22402Y35659D01*
G01X22351Y35814D01*
G01X22351Y35918D01*
G01X22402Y36073D01*
G01X22557Y36177D01*
G01X22819Y36230D01*
G01X23078Y36230D01*
G01X23286Y36177D01*
G01X23390Y36073D01*
G01X23441Y35918D01*
G01X23441Y35864D01*
G01X23390Y35709D01*
G01X23286Y35605D01*
G01X23129Y35554D01*
G01X23078Y35554D01*
G01X22923Y35605D01*
G01X22819Y35709D01*
G01X22765Y35864D01*
G01X22765Y35918D01*
G01X22819Y36073D01*
G01X22923Y36177D01*
G01X23078Y36230D01*
G01X21750Y23977D02*
G01X22839Y23977D01*
G01X21750Y23977D02*
G01X21750Y23510D01*
G01X21800Y23355D01*
G01X21851Y23301D01*
G01X21955Y23251D01*
G01X22059Y23251D01*
G01X22164Y23301D01*
G01X22217Y23355D01*
G01X22268Y23510D01*
G01X22268Y23977D01*
G01X22268Y23614D02*
G01X22839Y23251D01*
G01X21750Y22179D02*
G01X22839Y22699D01*
G01X21750Y22908D02*
G01X21750Y22179D01*
G01X13736Y38569D02*
G01X13736Y37480D01*
G01X13736Y38569D02*
G01X13268Y38569D01*
G01X13114Y38519D01*
G01X13060Y38468D01*
G01X13009Y38364D01*
G01X13009Y38260D01*
G01X13060Y38155D01*
G01X13114Y38102D01*
G01X13268Y38051D01*
G01X13736Y38051D01*
G01X13373Y38051D02*
G01X13009Y37480D01*
G01X12562Y38569D02*
G01X11991Y38569D01*
G01X12301Y38155D01*
G01X12146Y38155D01*
G01X12042Y38102D01*
G01X11991Y38051D01*
G01X11938Y37896D01*
G01X11938Y37792D01*
G01X11991Y37635D01*
G01X12095Y37531D01*
G01X12250Y37480D01*
G01X12405Y37480D01*
G01X12562Y37531D01*
G01X12613Y37584D01*
G01X12667Y37688D01*
G01X21737Y37172D02*
G01X21737Y36083D01*
G01X21737Y37172D02*
G01X21269Y37172D01*
G01X21115Y37122D01*
G01X21061Y37071D01*
G01X21010Y36967D01*
G01X21010Y36862D01*
G01X21061Y36758D01*
G01X21115Y36705D01*
G01X21269Y36654D01*
G01X21737Y36654D01*
G01X21374Y36654D02*
G01X21010Y36083D01*
G01X20614Y36913D02*
G01X20614Y36967D01*
G01X20563Y37071D01*
G01X20510Y37122D01*
G01X20406Y37172D01*
G01X20200Y37172D01*
G01X20096Y37122D01*
G01X20043Y37071D01*
G01X19992Y36967D01*
G01X19992Y36862D01*
G01X20043Y36758D01*
G01X20147Y36601D01*
G01X20667Y36083D01*
G01X19939Y36083D01*
G01X14676Y43522D02*
G01X14676Y42433D01*
G01X14676Y43522D02*
G01X14208Y43522D01*
G01X14053Y43472D01*
G01X14000Y43421D01*
G01X13949Y43317D01*
G01X13949Y43213D01*
G01X14000Y43108D01*
G01X14053Y43055D01*
G01X14208Y43004D01*
G01X14676Y43004D01*
G01X14312Y43004D02*
G01X13949Y42433D01*
G01X13086Y43522D02*
G01X13606Y42796D01*
G01X12827Y42796D01*
G01X13086Y43522D02*
G01X13086Y42433D01*
G01X21864Y39585D02*
G01X21864Y38496D01*
G01X21864Y39585D02*
G01X21396Y39585D01*
G01X21242Y39535D01*
G01X21188Y39484D01*
G01X21137Y39380D01*
G01X21137Y39276D01*
G01X21188Y39171D01*
G01X21242Y39118D01*
G01X21396Y39067D01*
G01X21864Y39067D01*
G01X21501Y39067D02*
G01X21137Y38496D01*
G01X20170Y39585D02*
G01X20690Y39585D01*
G01X20741Y39118D01*
G01X20690Y39171D01*
G01X20533Y39222D01*
G01X20378Y39222D01*
G01X20223Y39171D01*
G01X20119Y39067D01*
G01X20066Y38912D01*
G01X20066Y38808D01*
G01X20119Y38651D01*
G01X20223Y38547D01*
G01X20378Y38496D01*
G01X20533Y38496D01*
G01X20690Y38547D01*
G01X20741Y38600D01*
G01X20795Y38704D01*
G01X762Y23075D02*
G01X1539Y23075D01*
G01X1696Y23025D01*
G01X1800Y22920D01*
G01X1851Y22763D01*
G01X1851Y22659D01*
G01X1800Y22504D01*
G01X1696Y22400D01*
G01X1539Y22349D01*
G01X762Y22349D01*
G01X1021Y21953D02*
G01X967Y21953D01*
G01X863Y21902D01*
G01X812Y21849D01*
G01X762Y21744D01*
G01X762Y21539D01*
G01X812Y21435D01*
G01X863Y21381D01*
G01X967Y21330D01*
G01X1071Y21330D01*
G01X1176Y21381D01*
G01X1333Y21485D01*
G01X1851Y22006D01*
G01X1851Y21277D01*
G54D38*
G01X1905Y30777D02*
G01X2077Y30949D01*
G01X2250Y30777D01*
G01X2077Y30604D01*
G01X1905Y30777D01*
M00*
M02*
