G04 ---------------------------- Layer name :TOP LAYER*
G04 EasyEDA v5.3.2, Sat, 10 Mar 2018 16:58:59 GMT*
G04 Gerber Generator version 0.2*
G04 Scale: 100 percent, Rotated: No, Reflected: No *
G04 Dimensions in millimeters *
G04 leading zeros omitted , absolute positions ,3 integer and 3 decimal *
%FSLAX33Y33*%
%MOMM*%
G90*
G71D02*

%ADD10C,0.254000*%
%ADD11C,2.540000*%
%ADD12C,0.449999*%
%ADD13C,0.619760*%
%ADD14C,1.016000*%
%ADD15R,1.600200X1.600200*%
%ADD16R,1.299997X1.599997*%
%ADD17R,1.799996X0.599999*%
%ADD18R,2.799994X2.032000*%
%ADD19R,1.143000X1.016000*%
%ADD20R,1.092200X2.159000*%
%ADD21R,3.505200X2.159000*%
%ADD22R,2.387600X2.387600*%
%ADD23C,1.879600*%
%ADD24C,1.625600*%
%ADD25R,1.524000X1.524000*%
%ADD26C,1.524000*%
%ADD27C,1.499997*%

%LPD*%
G36*
G01X497Y500D02*
G01X497Y49502D01*
G01X24500Y49502D01*
G01X24500Y500D01*
G01X497Y500D01*
G37*

%LPC*%
G36*
G01X3820Y44503D02*
G01X4185Y44503D01*
G01X4536Y44589D01*
G01X4856Y44757D01*
G01X5130Y45001D01*
G01X5334Y45295D01*
G01X5461Y45636D01*
G01X5506Y45996D01*
G01X5461Y46357D01*
G01X5334Y46697D01*
G01X5130Y46992D01*
G01X4856Y47236D01*
G01X4536Y47404D01*
G01X4185Y47490D01*
G01X3820Y47490D01*
G01X3469Y47404D01*
G01X3149Y47236D01*
G01X2875Y46992D01*
G01X2672Y46697D01*
G01X2545Y46357D01*
G01X2499Y45996D01*
G01X2545Y45636D01*
G01X2672Y45295D01*
G01X2875Y45001D01*
G01X3149Y44757D01*
G01X3469Y44589D01*
G01X3820Y44503D01*
G37*
G36*
G01X3225Y3335D02*
G01X3550Y3355D01*
G01X3855Y3462D01*
G01X4119Y3649D01*
G01X4328Y3903D01*
G01X4455Y4203D01*
G01X4500Y4523D01*
G01X4455Y4843D01*
G01X4328Y5143D01*
G01X4119Y5397D01*
G01X3855Y5585D01*
G01X3688Y5646D01*
G01X3688Y6037D01*
G01X5125Y7480D01*
G01X7371Y7480D01*
G01X7381Y7485D01*
G01X7391Y7485D01*
G01X7675Y7541D01*
G01X7691Y7546D01*
G01X7711Y7551D01*
G01X7731Y7561D01*
G01X7747Y7566D01*
G01X7767Y7576D01*
G01X8011Y7739D01*
G01X8026Y7754D01*
G01X8041Y7764D01*
G01X8056Y7780D01*
G01X8067Y7795D01*
G01X8082Y7810D01*
G01X8244Y8054D01*
G01X8255Y8074D01*
G01X8260Y8089D01*
G01X8270Y8110D01*
G01X8275Y8130D01*
G01X8280Y8145D01*
G01X8336Y8430D01*
G01X8341Y8450D01*
G01X8341Y8511D01*
G01X8336Y8531D01*
G01X8280Y8816D01*
G01X8275Y8831D01*
G01X8270Y8851D01*
G01X8260Y8872D01*
G01X8255Y8887D01*
G01X8244Y8907D01*
G01X8082Y9151D01*
G01X8067Y9166D01*
G01X8056Y9182D01*
G01X8041Y9197D01*
G01X8026Y9207D01*
G01X8011Y9222D01*
G01X7767Y9385D01*
G01X7747Y9395D01*
G01X7731Y9400D01*
G01X7711Y9410D01*
G01X7691Y9415D01*
G01X7675Y9420D01*
G01X7391Y9476D01*
G01X7381Y9476D01*
G01X7371Y9481D01*
G01X7127Y9481D01*
G01X7548Y9903D01*
G01X7940Y9903D01*
G01X8016Y9913D01*
G01X8087Y9954D01*
G01X8143Y10010D01*
G01X8183Y10081D01*
G01X8194Y10157D01*
G01X8194Y12316D01*
G01X8183Y12392D01*
G01X8143Y12463D01*
G01X8087Y12519D01*
G01X8016Y12560D01*
G01X7940Y12570D01*
G01X6847Y12570D01*
G01X6771Y12560D01*
G01X6700Y12519D01*
G01X6644Y12463D01*
G01X6604Y12392D01*
G01X6593Y12316D01*
G01X6593Y10157D01*
G01X6604Y10081D01*
G01X6619Y10050D01*
G01X6050Y9481D01*
G01X3810Y9481D01*
G01X3799Y9476D01*
G01X3789Y9476D01*
G01X3505Y9420D01*
G01X3489Y9415D01*
G01X3469Y9410D01*
G01X3449Y9400D01*
G01X3434Y9395D01*
G01X3413Y9385D01*
G01X3169Y9222D01*
G01X3154Y9207D01*
G01X3139Y9197D01*
G01X3124Y9182D01*
G01X3114Y9166D01*
G01X3098Y9151D01*
G01X2936Y8907D01*
G01X2926Y8887D01*
G01X2921Y8872D01*
G01X2910Y8851D01*
G01X2905Y8831D01*
G01X2900Y8816D01*
G01X2844Y8531D01*
G01X2839Y8511D01*
G01X2839Y8450D01*
G01X2844Y8430D01*
G01X2900Y8145D01*
G01X2905Y8130D01*
G01X2910Y8110D01*
G01X2921Y8089D01*
G01X2926Y8074D01*
G01X2936Y8054D01*
G01X3098Y7810D01*
G01X3114Y7795D01*
G01X3124Y7780D01*
G01X3139Y7764D01*
G01X3154Y7754D01*
G01X3169Y7739D01*
G01X3413Y7576D01*
G01X3434Y7566D01*
G01X3449Y7561D01*
G01X3469Y7551D01*
G01X3489Y7546D01*
G01X3505Y7541D01*
G01X3789Y7485D01*
G01X3799Y7485D01*
G01X3810Y7480D01*
G01X4053Y7480D01*
G01X3037Y6464D01*
G01X2997Y6418D01*
G01X2966Y6367D01*
G01X2946Y6311D01*
G01X2931Y6256D01*
G01X2926Y6195D01*
G01X2926Y5651D01*
G01X2905Y5646D01*
G01X2616Y5499D01*
G01X2382Y5275D01*
G01X2209Y5001D01*
G01X2123Y4686D01*
G01X2123Y4361D01*
G01X2209Y4046D01*
G01X2382Y3771D01*
G01X2616Y3548D01*
G01X2905Y3401D01*
G01X3225Y3335D01*
G37*
G36*
G01X15717Y7454D02*
G01X15778Y7454D01*
G01X15798Y7459D01*
G01X16108Y7520D01*
G01X16129Y7526D01*
G01X16144Y7531D01*
G01X16164Y7541D01*
G01X16184Y7546D01*
G01X16200Y7561D01*
G01X16464Y7739D01*
G01X16494Y7759D01*
G01X16510Y7774D01*
G01X16530Y7805D01*
G01X16708Y8069D01*
G01X16723Y8084D01*
G01X16728Y8105D01*
G01X16738Y8125D01*
G01X16743Y8140D01*
G01X16748Y8161D01*
G01X16809Y8470D01*
G01X16809Y8481D01*
G01X16814Y8491D01*
G01X16814Y9466D01*
G01X16809Y9476D01*
G01X16809Y9486D01*
G01X16748Y9796D01*
G01X16743Y9817D01*
G01X16738Y9832D01*
G01X16728Y9852D01*
G01X16723Y9872D01*
G01X16708Y9888D01*
G01X16530Y10152D01*
G01X16510Y10182D01*
G01X16494Y10198D01*
G01X16464Y10218D01*
G01X16200Y10396D01*
G01X16184Y10411D01*
G01X16164Y10416D01*
G01X16144Y10426D01*
G01X16129Y10431D01*
G01X16108Y10436D01*
G01X15798Y10497D01*
G01X15778Y10502D01*
G01X15717Y10502D01*
G01X15697Y10497D01*
G01X15387Y10436D01*
G01X15367Y10431D01*
G01X15351Y10426D01*
G01X15331Y10416D01*
G01X15311Y10411D01*
G01X15295Y10396D01*
G01X15031Y10218D01*
G01X15001Y10198D01*
G01X14986Y10182D01*
G01X14965Y10152D01*
G01X14787Y9888D01*
G01X14772Y9872D01*
G01X14767Y9852D01*
G01X14757Y9832D01*
G01X14752Y9817D01*
G01X14747Y9796D01*
G01X14686Y9486D01*
G01X14686Y9476D01*
G01X14681Y9466D01*
G01X14681Y8491D01*
G01X14686Y8481D01*
G01X14686Y8470D01*
G01X14747Y8161D01*
G01X14752Y8140D01*
G01X14757Y8125D01*
G01X14767Y8105D01*
G01X14772Y8084D01*
G01X14787Y8069D01*
G01X14965Y7805D01*
G01X14986Y7774D01*
G01X15001Y7759D01*
G01X15031Y7739D01*
G01X15295Y7561D01*
G01X15311Y7546D01*
G01X15331Y7541D01*
G01X15351Y7531D01*
G01X15367Y7526D01*
G01X15387Y7520D01*
G01X15697Y7459D01*
G01X15717Y7454D01*
G37*
G36*
G01X20574Y44157D02*
G01X20965Y44208D01*
G01X21336Y44361D01*
G01X21650Y44604D01*
G01X21894Y44919D01*
G01X22047Y45285D01*
G01X22098Y45681D01*
G01X22047Y46073D01*
G01X21894Y46443D01*
G01X21650Y46758D01*
G01X21336Y47002D01*
G01X20970Y47155D01*
G01X20574Y47205D01*
G01X16002Y47210D01*
G01X15610Y47160D01*
G01X15240Y47007D01*
G01X14925Y46763D01*
G01X14681Y46448D01*
G01X14528Y46083D01*
G01X14478Y45686D01*
G01X14528Y45295D01*
G01X14681Y44924D01*
G01X14925Y44610D01*
G01X15240Y44366D01*
G01X15605Y44213D01*
G01X16002Y44162D01*
G01X20574Y44157D01*
G37*
G36*
G01X21356Y8140D02*
G01X24160Y8140D01*
G01X24236Y8150D01*
G01X24307Y8191D01*
G01X24363Y8247D01*
G01X24404Y8318D01*
G01X24414Y8394D01*
G01X24414Y10426D01*
G01X24404Y10502D01*
G01X24363Y10574D01*
G01X24307Y10629D01*
G01X24236Y10670D01*
G01X24160Y10680D01*
G01X21356Y10680D01*
G01X21280Y10670D01*
G01X21209Y10629D01*
G01X21153Y10574D01*
G01X21112Y10502D01*
G01X21102Y10426D01*
G01X21102Y8394D01*
G01X21112Y8318D01*
G01X21153Y8247D01*
G01X21209Y8191D01*
G01X21280Y8150D01*
G01X21356Y8140D01*
G37*
G36*
G01X12776Y8348D02*
G01X13070Y8415D01*
G01X13335Y8567D01*
G01X13538Y8785D01*
G01X13670Y9060D01*
G01X13716Y9359D01*
G01X13670Y9659D01*
G01X13538Y9933D01*
G01X13335Y10152D01*
G01X13070Y10304D01*
G01X12776Y10370D01*
G01X12471Y10350D01*
G01X12192Y10238D01*
G01X11953Y10050D01*
G01X11785Y9801D01*
G01X11694Y9512D01*
G01X11694Y9207D01*
G01X11785Y8917D01*
G01X11953Y8669D01*
G01X12192Y8481D01*
G01X12471Y8369D01*
G01X12776Y8348D01*
G37*
G36*
G01X19888Y27983D02*
G01X20182Y28049D01*
G01X20447Y28201D01*
G01X20650Y28420D01*
G01X20782Y28694D01*
G01X20828Y28994D01*
G01X20782Y29293D01*
G01X20650Y29568D01*
G01X20447Y29786D01*
G01X20182Y29938D01*
G01X19888Y30005D01*
G01X19583Y29984D01*
G01X19304Y29872D01*
G01X19065Y29684D01*
G01X18897Y29436D01*
G01X18806Y29146D01*
G01X18806Y28841D01*
G01X18897Y28552D01*
G01X19065Y28303D01*
G01X19304Y28115D01*
G01X19583Y28003D01*
G01X19888Y27983D01*
G37*
G36*
G01X4561Y9903D02*
G01X5654Y9903D01*
G01X5730Y9913D01*
G01X5801Y9954D01*
G01X5857Y10010D01*
G01X5897Y10081D01*
G01X5908Y10157D01*
G01X5908Y12275D01*
G01X7401Y13804D01*
G01X13355Y13804D01*
G01X13843Y13317D01*
G01X13843Y11214D01*
G01X13853Y11137D01*
G01X13893Y11066D01*
G01X13949Y11010D01*
G01X14020Y10970D01*
G01X14097Y10960D01*
G01X16484Y10960D01*
G01X16560Y10970D01*
G01X16631Y11010D01*
G01X16687Y11066D01*
G01X16728Y11137D01*
G01X16738Y11214D01*
G01X16738Y12514D01*
G01X18420Y12514D01*
G01X18455Y12448D01*
G01X18511Y12392D01*
G01X18582Y12352D01*
G01X18658Y12341D01*
G01X20457Y12341D01*
G01X20533Y12352D01*
G01X20604Y12392D01*
G01X20660Y12448D01*
G01X20701Y12519D01*
G01X20711Y12595D01*
G01X20711Y12768D01*
G01X21351Y13408D01*
G01X21391Y13454D01*
G01X21422Y13505D01*
G01X21442Y13561D01*
G01X21457Y13616D01*
G01X21463Y13677D01*
G01X21463Y21297D01*
G01X21457Y21358D01*
G01X21457Y21363D01*
G01X24160Y21363D01*
G01X24236Y21374D01*
G01X24307Y21414D01*
G01X24363Y21470D01*
G01X24404Y21541D01*
G01X24414Y21617D01*
G01X24414Y23649D01*
G01X24404Y23726D01*
G01X24363Y23797D01*
G01X24307Y23853D01*
G01X24236Y23893D01*
G01X24160Y23903D01*
G01X21356Y23903D01*
G01X21280Y23893D01*
G01X21209Y23853D01*
G01X21153Y23797D01*
G01X21112Y23726D01*
G01X21102Y23649D01*
G01X21102Y21816D01*
G01X20335Y22583D01*
G01X20289Y22623D01*
G01X20238Y22654D01*
G01X20182Y22674D01*
G01X20126Y22689D01*
G01X20066Y22694D01*
G01X18288Y22694D01*
G01X18288Y31935D01*
G01X19334Y32981D01*
G01X20574Y32981D01*
G01X20650Y32992D01*
G01X20721Y33032D01*
G01X20777Y33088D01*
G01X20817Y33159D01*
G01X20828Y33235D01*
G01X20828Y34759D01*
G01X20817Y34836D01*
G01X20777Y34907D01*
G01X20721Y34963D01*
G01X20650Y35003D01*
G01X20574Y35013D01*
G01X20193Y35013D01*
G01X20193Y36380D01*
G01X21833Y38021D01*
G01X23154Y38021D01*
G01X23230Y38031D01*
G01X23301Y38072D01*
G01X23357Y38127D01*
G01X23398Y38199D01*
G01X23408Y38275D01*
G01X23408Y39875D01*
G01X23398Y39951D01*
G01X23357Y40022D01*
G01X23301Y40078D01*
G01X23230Y40119D01*
G01X23154Y40129D01*
G01X21554Y40129D01*
G01X21478Y40119D01*
G01X21407Y40078D01*
G01X21351Y40022D01*
G01X21310Y39951D01*
G01X21300Y39875D01*
G01X21300Y38564D01*
G01X19542Y36807D01*
G01X19502Y36761D01*
G01X19471Y36710D01*
G01X19451Y36654D01*
G01X19436Y36598D01*
G01X19431Y36537D01*
G01X19431Y35013D01*
G01X19050Y35013D01*
G01X18973Y35003D01*
G01X18902Y34963D01*
G01X18846Y34907D01*
G01X18806Y34836D01*
G01X18796Y34759D01*
G01X18796Y33520D01*
G01X17820Y32545D01*
G01X17820Y33779D01*
G01X17810Y33855D01*
G01X17769Y33926D01*
G01X17713Y33982D01*
G01X17642Y34023D01*
G01X17566Y34033D01*
G01X15966Y34033D01*
G01X15890Y34023D01*
G01X15819Y33982D01*
G01X15763Y33926D01*
G01X15722Y33855D01*
G01X15712Y33779D01*
G01X15712Y32179D01*
G01X15722Y32103D01*
G01X15763Y32031D01*
G01X15819Y31976D01*
G01X15890Y31935D01*
G01X15966Y31925D01*
G01X16891Y31925D01*
G01X16891Y23487D01*
G01X16352Y22943D01*
G01X16250Y22943D01*
G01X16220Y22959D01*
G01X16195Y22979D01*
G01X16164Y22989D01*
G01X16032Y23030D01*
G01X16017Y23035D01*
G01X16002Y23035D01*
G01X15986Y23040D01*
G01X14726Y23040D01*
G01X14711Y23035D01*
G01X14696Y23035D01*
G01X14681Y23030D01*
G01X14549Y22989D01*
G01X14518Y22979D01*
G01X14493Y22959D01*
G01X14462Y22943D01*
G01X14422Y22893D01*
G01X14340Y22781D01*
G01X14320Y22755D01*
G01X14290Y22664D01*
G01X14290Y22461D01*
G01X14320Y22369D01*
G01X14340Y22344D01*
G01X14422Y22232D01*
G01X14462Y22181D01*
G01X14493Y22166D01*
G01X14498Y22161D01*
G01X14493Y22161D01*
G01X14462Y22146D01*
G01X14422Y22095D01*
G01X14340Y21983D01*
G01X14320Y21958D01*
G01X14290Y21866D01*
G01X14290Y21663D01*
G01X14320Y21572D01*
G01X14340Y21546D01*
G01X14422Y21435D01*
G01X14462Y21384D01*
G01X14493Y21369D01*
G01X14498Y21363D01*
G01X14493Y21358D01*
G01X14462Y21343D01*
G01X10906Y21343D01*
G01X8651Y23599D01*
G01X8605Y23639D01*
G01X8554Y23670D01*
G01X8498Y23690D01*
G01X8442Y23705D01*
G01X8382Y23710D01*
G01X7924Y23710D01*
G01X7899Y23741D01*
G01X7868Y23756D01*
G01X7843Y23776D01*
G01X7813Y23787D01*
G01X7680Y23827D01*
G01X7665Y23832D01*
G01X7650Y23832D01*
G01X7635Y23837D01*
G01X6375Y23837D01*
G01X6360Y23832D01*
G01X6344Y23832D01*
G01X6329Y23827D01*
G01X6197Y23787D01*
G01X6167Y23776D01*
G01X6141Y23756D01*
G01X6111Y23741D01*
G01X6070Y23690D01*
G01X5989Y23578D01*
G01X5969Y23553D01*
G01X5938Y23461D01*
G01X5938Y23258D01*
G01X5969Y23167D01*
G01X5989Y23141D01*
G01X6070Y23030D01*
G01X6111Y22979D01*
G01X6141Y22964D01*
G01X6167Y22943D01*
G01X6197Y22933D01*
G01X6329Y22893D01*
G01X6344Y22887D01*
G01X6360Y22887D01*
G01X6375Y22882D01*
G01X7635Y22882D01*
G01X7650Y22887D01*
G01X7665Y22887D01*
G01X7680Y22893D01*
G01X7813Y22933D01*
G01X7843Y22943D01*
G01X7848Y22948D01*
G01X8224Y22948D01*
G01X8986Y22186D01*
G01X7828Y22186D01*
G01X7813Y22191D01*
G01X7680Y22232D01*
G01X7665Y22237D01*
G01X7650Y22237D01*
G01X7635Y22242D01*
G01X6375Y22242D01*
G01X6360Y22237D01*
G01X6344Y22237D01*
G01X6329Y22232D01*
G01X6197Y22191D01*
G01X6167Y22181D01*
G01X6141Y22161D01*
G01X6111Y22146D01*
G01X6070Y22095D01*
G01X5989Y21983D01*
G01X5969Y21958D01*
G01X5938Y21866D01*
G01X5938Y21663D01*
G01X5969Y21572D01*
G01X5989Y21546D01*
G01X6070Y21435D01*
G01X6111Y21384D01*
G01X6141Y21369D01*
G01X6146Y21363D01*
G01X6141Y21358D01*
G01X6111Y21343D01*
G01X6070Y21292D01*
G01X5989Y21181D01*
G01X5969Y21155D01*
G01X5938Y21064D01*
G01X5938Y20861D01*
G01X5969Y20769D01*
G01X5989Y20744D01*
G01X6070Y20632D01*
G01X6111Y20581D01*
G01X6141Y20566D01*
G01X6146Y20561D01*
G01X6141Y20561D01*
G01X6111Y20546D01*
G01X6070Y20495D01*
G01X5989Y20383D01*
G01X5969Y20358D01*
G01X5938Y20266D01*
G01X5938Y20063D01*
G01X5969Y19972D01*
G01X5989Y19946D01*
G01X6070Y19834D01*
G01X6111Y19784D01*
G01X6141Y19768D01*
G01X6167Y19748D01*
G01X6197Y19738D01*
G01X6329Y19697D01*
G01X6344Y19692D01*
G01X6360Y19692D01*
G01X6375Y19687D01*
G01X7635Y19687D01*
G01X7650Y19692D01*
G01X7665Y19692D01*
G01X7680Y19697D01*
G01X7813Y19738D01*
G01X7843Y19748D01*
G01X7868Y19768D01*
G01X7899Y19784D01*
G01X7940Y19834D01*
G01X8021Y19946D01*
G01X8041Y19972D01*
G01X8072Y20063D01*
G01X8072Y20266D01*
G01X8041Y20358D01*
G01X8021Y20383D01*
G01X7940Y20495D01*
G01X7899Y20546D01*
G01X7868Y20561D01*
G01X7863Y20561D01*
G01X7868Y20566D01*
G01X7899Y20581D01*
G01X7940Y20632D01*
G01X8021Y20744D01*
G01X8041Y20769D01*
G01X8072Y20861D01*
G01X8072Y21064D01*
G01X8041Y21155D01*
G01X8021Y21181D01*
G01X7940Y21292D01*
G01X7899Y21343D01*
G01X7868Y21358D01*
G01X7863Y21363D01*
G01X7868Y21369D01*
G01X7899Y21384D01*
G01X7929Y21424D01*
G01X9748Y21424D01*
G01X10480Y20693D01*
G01X10525Y20652D01*
G01X10576Y20622D01*
G01X10632Y20601D01*
G01X10688Y20586D01*
G01X10749Y20581D01*
G01X14462Y20581D01*
G01X14493Y20566D01*
G01X14498Y20561D01*
G01X14493Y20561D01*
G01X14462Y20546D01*
G01X14422Y20495D01*
G01X14340Y20383D01*
G01X14320Y20358D01*
G01X14290Y20266D01*
G01X14290Y20063D01*
G01X14320Y19972D01*
G01X14340Y19946D01*
G01X14422Y19834D01*
G01X14462Y19784D01*
G01X14493Y19768D01*
G01X14518Y19748D01*
G01X14549Y19738D01*
G01X14681Y19697D01*
G01X14696Y19692D01*
G01X14711Y19692D01*
G01X14726Y19687D01*
G01X15986Y19687D01*
G01X16002Y19692D01*
G01X16017Y19692D01*
G01X16032Y19697D01*
G01X16164Y19738D01*
G01X16195Y19748D01*
G01X16220Y19768D01*
G01X16250Y19784D01*
G01X17678Y19784D01*
G01X17739Y19789D01*
G01X17795Y19804D01*
G01X17851Y19824D01*
G01X17881Y19845D01*
G01X18079Y19860D01*
G01X18282Y19977D01*
G01X18308Y20012D01*
G01X18420Y20012D01*
G01X18455Y19946D01*
G01X18511Y19890D01*
G01X18582Y19850D01*
G01X18658Y19839D01*
G01X20457Y19839D01*
G01X20533Y19850D01*
G01X20604Y19890D01*
G01X20660Y19946D01*
G01X20701Y20017D01*
G01X20701Y19524D01*
G01X20660Y19596D01*
G01X20604Y19651D01*
G01X20533Y19692D01*
G01X20457Y19702D01*
G01X18658Y19702D01*
G01X18582Y19692D01*
G01X18511Y19651D01*
G01X18455Y19596D01*
G01X18415Y19524D01*
G01X17673Y19524D01*
G01X17647Y19560D01*
G01X17444Y19677D01*
G01X17216Y19697D01*
G01X16992Y19626D01*
G01X16819Y19474D01*
G01X16723Y19260D01*
G01X16723Y19169D01*
G01X14457Y19169D01*
G01X14457Y19418D01*
G01X14452Y19433D01*
G01X14452Y19448D01*
G01X14447Y19464D01*
G01X14406Y19596D01*
G01X14396Y19626D01*
G01X14376Y19651D01*
G01X14361Y19682D01*
G01X14310Y19723D01*
G01X14198Y19804D01*
G01X14173Y19824D01*
G01X14081Y19855D01*
G01X13878Y19855D01*
G01X13787Y19824D01*
G01X13761Y19804D01*
G01X13649Y19723D01*
G01X13599Y19682D01*
G01X13583Y19651D01*
G01X13583Y19646D01*
G01X13578Y19651D01*
G01X13563Y19682D01*
G01X13512Y19723D01*
G01X13401Y19804D01*
G01X13375Y19824D01*
G01X13284Y19855D01*
G01X13081Y19855D01*
G01X12989Y19824D01*
G01X12964Y19804D01*
G01X12852Y19723D01*
G01X12801Y19682D01*
G01X12786Y19651D01*
G01X12781Y19646D01*
G01X12776Y19651D01*
G01X12760Y19682D01*
G01X12710Y19723D01*
G01X12598Y19804D01*
G01X12573Y19824D01*
G01X12481Y19855D01*
G01X12278Y19855D01*
G01X12186Y19824D01*
G01X12161Y19804D01*
G01X12049Y19723D01*
G01X11998Y19682D01*
G01X11983Y19651D01*
G01X11983Y19646D01*
G01X11978Y19651D01*
G01X11963Y19682D01*
G01X11912Y19723D01*
G01X11800Y19804D01*
G01X11775Y19824D01*
G01X11684Y19855D01*
G01X11480Y19855D01*
G01X11389Y19824D01*
G01X11363Y19804D01*
G01X11252Y19723D01*
G01X11201Y19682D01*
G01X11186Y19651D01*
G01X11186Y19646D01*
G01X11181Y19651D01*
G01X11165Y19682D01*
G01X11115Y19723D01*
G01X11003Y19804D01*
G01X10977Y19824D01*
G01X10886Y19855D01*
G01X10683Y19855D01*
G01X10591Y19824D01*
G01X10566Y19804D01*
G01X10454Y19723D01*
G01X10403Y19682D01*
G01X10388Y19651D01*
G01X10383Y19646D01*
G01X10378Y19651D01*
G01X10363Y19682D01*
G01X10312Y19723D01*
G01X10200Y19804D01*
G01X10175Y19824D01*
G01X10083Y19855D01*
G01X9880Y19855D01*
G01X9789Y19824D01*
G01X9763Y19804D01*
G01X9652Y19723D01*
G01X9601Y19682D01*
G01X9585Y19651D01*
G01X9585Y19646D01*
G01X9580Y19651D01*
G01X9565Y19682D01*
G01X9514Y19723D01*
G01X9403Y19804D01*
G01X9377Y19824D01*
G01X9286Y19855D01*
G01X9083Y19855D01*
G01X8991Y19824D01*
G01X8966Y19804D01*
G01X8854Y19723D01*
G01X8803Y19682D01*
G01X8788Y19651D01*
G01X8783Y19646D01*
G01X8778Y19651D01*
G01X8763Y19682D01*
G01X8712Y19723D01*
G01X8600Y19804D01*
G01X8575Y19824D01*
G01X8483Y19855D01*
G01X8280Y19855D01*
G01X8188Y19824D01*
G01X8163Y19804D01*
G01X8051Y19723D01*
G01X8001Y19682D01*
G01X7985Y19651D01*
G01X7965Y19626D01*
G01X7955Y19596D01*
G01X7914Y19464D01*
G01X7909Y19448D01*
G01X7909Y19433D01*
G01X7904Y19418D01*
G01X7904Y19265D01*
G01X7635Y19535D01*
G01X7589Y19575D01*
G01X7538Y19606D01*
G01X7482Y19626D01*
G01X7426Y19641D01*
G01X7366Y19646D01*
G01X4983Y19646D01*
G01X3175Y21455D01*
G01X3175Y26220D01*
G01X5095Y28140D01*
G01X5039Y28018D01*
G01X5039Y27785D01*
G01X5135Y27571D01*
G01X5207Y27510D01*
G01X5207Y25488D01*
G01X5212Y25427D01*
G01X5227Y25372D01*
G01X5247Y25316D01*
G01X5278Y25265D01*
G01X5318Y25219D01*
G01X5826Y24711D01*
G01X5872Y24671D01*
G01X5923Y24640D01*
G01X5979Y24620D01*
G01X6035Y24604D01*
G01X6096Y24599D01*
G01X6111Y24579D01*
G01X6141Y24564D01*
G01X6167Y24544D01*
G01X6197Y24533D01*
G01X6329Y24493D01*
G01X6344Y24488D01*
G01X6360Y24488D01*
G01X6375Y24483D01*
G01X7635Y24483D01*
G01X7650Y24488D01*
G01X7665Y24488D01*
G01X7680Y24493D01*
G01X7813Y24533D01*
G01X7843Y24544D01*
G01X7868Y24564D01*
G01X7899Y24579D01*
G01X7940Y24630D01*
G01X8021Y24742D01*
G01X8041Y24767D01*
G01X8072Y24858D01*
G01X8072Y25062D01*
G01X8041Y25153D01*
G01X8021Y25179D01*
G01X7940Y25290D01*
G01X7899Y25341D01*
G01X7868Y25356D01*
G01X7863Y25361D01*
G01X7868Y25366D01*
G01X7899Y25382D01*
G01X7940Y25433D01*
G01X8021Y25544D01*
G01X8041Y25570D01*
G01X8072Y25661D01*
G01X8072Y25864D01*
G01X8041Y25956D01*
G01X8021Y25981D01*
G01X7940Y26093D01*
G01X7899Y26144D01*
G01X7868Y26159D01*
G01X7843Y26179D01*
G01X7813Y26189D01*
G01X7680Y26230D01*
G01X7665Y26235D01*
G01X7650Y26235D01*
G01X7635Y26240D01*
G01X7066Y26240D01*
G01X6731Y26576D01*
G01X6731Y28252D01*
G01X6858Y28435D01*
G01X6908Y28663D01*
G01X6858Y28892D01*
G01X6807Y28968D01*
G01X6832Y28943D01*
G01X7056Y28872D01*
G01X7122Y28877D01*
G01X7990Y28008D01*
G01X7985Y28003D01*
G01X7965Y27978D01*
G01X7955Y27947D01*
G01X7914Y27815D01*
G01X7909Y27800D01*
G01X7909Y27785D01*
G01X7904Y27769D01*
G01X7904Y26509D01*
G01X7909Y26494D01*
G01X7909Y26479D01*
G01X7914Y26464D01*
G01X7955Y26332D01*
G01X7965Y26301D01*
G01X7985Y26276D01*
G01X8001Y26245D01*
G01X8051Y26205D01*
G01X8163Y26123D01*
G01X8188Y26103D01*
G01X8280Y26073D01*
G01X8483Y26073D01*
G01X8575Y26103D01*
G01X8600Y26123D01*
G01X8712Y26205D01*
G01X8763Y26245D01*
G01X8778Y26276D01*
G01X8783Y26281D01*
G01X8788Y26276D01*
G01X8803Y26245D01*
G01X8854Y26205D01*
G01X8966Y26123D01*
G01X8991Y26103D01*
G01X9083Y26073D01*
G01X9286Y26073D01*
G01X9377Y26103D01*
G01X9403Y26123D01*
G01X9514Y26205D01*
G01X9565Y26245D01*
G01X9580Y26276D01*
G01X9585Y26281D01*
G01X9585Y26276D01*
G01X9601Y26245D01*
G01X9652Y26205D01*
G01X9763Y26123D01*
G01X9789Y26103D01*
G01X9880Y26073D01*
G01X10083Y26073D01*
G01X10175Y26103D01*
G01X10200Y26123D01*
G01X10312Y26205D01*
G01X10363Y26245D01*
G01X10378Y26276D01*
G01X10383Y26281D01*
G01X10388Y26276D01*
G01X10403Y26245D01*
G01X10454Y26205D01*
G01X10566Y26123D01*
G01X10591Y26103D01*
G01X10683Y26073D01*
G01X10886Y26073D01*
G01X10977Y26103D01*
G01X11003Y26123D01*
G01X11115Y26205D01*
G01X11165Y26245D01*
G01X11181Y26276D01*
G01X11186Y26281D01*
G01X11186Y26276D01*
G01X11201Y26245D01*
G01X11252Y26205D01*
G01X11363Y26123D01*
G01X11389Y26103D01*
G01X11480Y26073D01*
G01X11684Y26073D01*
G01X11775Y26103D01*
G01X11800Y26123D01*
G01X11912Y26205D01*
G01X11963Y26245D01*
G01X11978Y26276D01*
G01X11983Y26281D01*
G01X11983Y26276D01*
G01X11998Y26245D01*
G01X12049Y26205D01*
G01X12161Y26123D01*
G01X12186Y26103D01*
G01X12278Y26073D01*
G01X12481Y26073D01*
G01X12573Y26103D01*
G01X12598Y26123D01*
G01X12710Y26205D01*
G01X12760Y26245D01*
G01X12776Y26276D01*
G01X12781Y26281D01*
G01X12786Y26276D01*
G01X12801Y26245D01*
G01X12852Y26205D01*
G01X12964Y26123D01*
G01X12989Y26103D01*
G01X13081Y26073D01*
G01X13284Y26073D01*
G01X13375Y26103D01*
G01X13401Y26123D01*
G01X13512Y26205D01*
G01X13563Y26245D01*
G01X13578Y26276D01*
G01X13583Y26281D01*
G01X13583Y26276D01*
G01X13599Y26245D01*
G01X13649Y26205D01*
G01X13761Y26123D01*
G01X13787Y26103D01*
G01X13878Y26073D01*
G01X14081Y26073D01*
G01X14173Y26103D01*
G01X14198Y26123D01*
G01X14310Y26205D01*
G01X14361Y26245D01*
G01X14376Y26276D01*
G01X14396Y26301D01*
G01X14406Y26332D01*
G01X14447Y26464D01*
G01X14452Y26479D01*
G01X14452Y26494D01*
G01X14457Y26509D01*
G01X14457Y27769D01*
G01X14452Y27785D01*
G01X14452Y27800D01*
G01X14447Y27815D01*
G01X14406Y27947D01*
G01X14396Y27978D01*
G01X14376Y28003D01*
G01X14361Y28033D01*
G01X14310Y28074D01*
G01X14198Y28155D01*
G01X14173Y28176D01*
G01X14081Y28206D01*
G01X13878Y28206D01*
G01X13787Y28176D01*
G01X13761Y28155D01*
G01X13649Y28074D01*
G01X13599Y28033D01*
G01X13583Y28003D01*
G01X13583Y27998D01*
G01X13578Y28003D01*
G01X13563Y28033D01*
G01X13512Y28074D01*
G01X13401Y28155D01*
G01X13375Y28176D01*
G01X13284Y28206D01*
G01X13081Y28206D01*
G01X12989Y28176D01*
G01X12964Y28155D01*
G01X12852Y28074D01*
G01X12801Y28033D01*
G01X12786Y28003D01*
G01X12781Y27998D01*
G01X12776Y28003D01*
G01X12760Y28033D01*
G01X12710Y28074D01*
G01X12598Y28155D01*
G01X12573Y28176D01*
G01X12481Y28206D01*
G01X12278Y28206D01*
G01X12186Y28176D01*
G01X12161Y28155D01*
G01X12049Y28074D01*
G01X11998Y28033D01*
G01X11983Y28003D01*
G01X11983Y27998D01*
G01X11978Y28003D01*
G01X11963Y28028D01*
G01X12090Y28206D01*
G01X12141Y28435D01*
G01X12090Y28663D01*
G01X11958Y28851D01*
G01X11755Y28968D01*
G01X11526Y28989D01*
G01X11303Y28917D01*
G01X11186Y28816D01*
G01X11165Y28816D01*
G01X11165Y30909D01*
G01X11160Y30970D01*
G01X11145Y31026D01*
G01X11125Y31081D01*
G01X11094Y31132D01*
G01X11054Y31178D01*
G01X9616Y32616D01*
G01X9616Y33779D01*
G01X9606Y33855D01*
G01X9565Y33926D01*
G01X9509Y33982D01*
G01X9438Y34023D01*
G01X9362Y34033D01*
G01X8061Y34033D01*
G01X8001Y34023D01*
G01X8001Y34348D01*
G01X10571Y36918D01*
G01X11841Y36918D01*
G01X11562Y36776D01*
G01X11328Y36553D01*
G01X11155Y36278D01*
G01X11069Y35963D01*
G01X11069Y35638D01*
G01X11155Y35323D01*
G01X11328Y35049D01*
G01X11562Y34825D01*
G01X11851Y34678D01*
G01X12171Y34612D01*
G01X12496Y34632D01*
G01X12801Y34739D01*
G01X13065Y34927D01*
G01X13274Y35181D01*
G01X13401Y35481D01*
G01X13446Y35801D01*
G01X13401Y36121D01*
G01X13274Y36421D01*
G01X13065Y36675D01*
G01X12801Y36863D01*
G01X12496Y36969D01*
G01X12390Y36974D01*
G01X12415Y36990D01*
G01X12461Y37030D01*
G01X13157Y37726D01*
G01X13157Y37238D01*
G01X13162Y37177D01*
G01X13177Y37122D01*
G01X13197Y37066D01*
G01X13228Y37015D01*
G01X13268Y36969D01*
G01X14208Y36014D01*
G01X14254Y35979D01*
G01X14305Y35943D01*
G01X14361Y35923D01*
G01X14417Y35907D01*
G01X14478Y35902D01*
G01X17129Y35902D01*
G01X17246Y35801D01*
G01X17470Y35730D01*
G01X17698Y35750D01*
G01X17901Y35867D01*
G01X18034Y36055D01*
G01X18084Y36283D01*
G01X18034Y36502D01*
G01X18049Y36517D01*
G01X18089Y36588D01*
G01X18100Y36664D01*
G01X18100Y37680D01*
G01X18089Y37757D01*
G01X18049Y37828D01*
G01X17993Y37884D01*
G01X17922Y37924D01*
G01X17846Y37934D01*
G01X16748Y37934D01*
G01X16764Y38061D01*
G01X16764Y41363D01*
G01X16743Y41597D01*
G01X16692Y41831D01*
G01X16601Y42049D01*
G01X16479Y42247D01*
G01X16327Y42430D01*
G01X12090Y46748D01*
G01X11775Y46992D01*
G01X11409Y47150D01*
G01X11018Y47205D01*
G01X10622Y47160D01*
G01X10251Y47007D01*
G01X9936Y46769D01*
G01X9692Y46454D01*
G01X9535Y46088D01*
G01X9479Y45697D01*
G01X9525Y45300D01*
G01X9677Y44930D01*
G01X9916Y44615D01*
G01X10241Y44284D01*
G01X7366Y44284D01*
G01X7305Y44279D01*
G01X7249Y44264D01*
G01X7193Y44244D01*
G01X7142Y44213D01*
G01X7096Y44173D01*
G01X4048Y41125D01*
G01X4008Y41079D01*
G01X3977Y41028D01*
G01X3972Y41018D01*
G01X3886Y41201D01*
G01X3667Y41435D01*
G01X3393Y41592D01*
G01X3083Y41663D01*
G01X2763Y41643D01*
G01X2468Y41526D01*
G01X2219Y41328D01*
G01X2042Y41064D01*
G01X1945Y40759D01*
G01X1945Y40444D01*
G01X2042Y40139D01*
G01X2219Y39875D01*
G01X2468Y39677D01*
G01X2763Y39560D01*
G01X3083Y39540D01*
G01X3393Y39611D01*
G01X3667Y39768D01*
G01X3886Y40002D01*
G01X3937Y40109D01*
G01X3937Y36014D01*
G01X3886Y36121D01*
G01X3667Y36355D01*
G01X3393Y36512D01*
G01X3083Y36583D01*
G01X2763Y36563D01*
G01X2468Y36446D01*
G01X2219Y36248D01*
G01X2042Y35984D01*
G01X1945Y35679D01*
G01X1945Y35364D01*
G01X2042Y35059D01*
G01X2219Y34795D01*
G01X2468Y34597D01*
G01X2763Y34480D01*
G01X3083Y34460D01*
G01X3393Y34531D01*
G01X3667Y34688D01*
G01X3886Y34922D01*
G01X3937Y35029D01*
G01X3937Y35013D01*
G01X3942Y34952D01*
G01X3957Y34897D01*
G01X3977Y34841D01*
G01X4008Y34790D01*
G01X4048Y34744D01*
G01X4775Y34018D01*
G01X4714Y33982D01*
G01X4658Y33926D01*
G01X4617Y33855D01*
G01X4607Y33779D01*
G01X4607Y32616D01*
G01X3200Y31208D01*
G01X3164Y31229D01*
G01X3088Y31239D01*
G01X1488Y31239D01*
G01X1412Y31229D01*
G01X1341Y31188D01*
G01X1285Y31132D01*
G01X1244Y31061D01*
G01X1234Y30985D01*
G01X1234Y29385D01*
G01X1244Y29309D01*
G01X1285Y29237D01*
G01X1341Y29182D01*
G01X1412Y29141D01*
G01X1488Y29131D01*
G01X1905Y29131D01*
G01X1905Y28313D01*
G01X1000Y27409D01*
G01X960Y27363D01*
G01X929Y27312D01*
G01X909Y27256D01*
G01X894Y27200D01*
G01X889Y27139D01*
G01X889Y16471D01*
G01X894Y16410D01*
G01X909Y16355D01*
G01X929Y16299D01*
G01X960Y16248D01*
G01X1000Y16202D01*
G01X4632Y12570D01*
G01X4561Y12570D01*
G01X4485Y12560D01*
G01X4414Y12519D01*
G01X4358Y12463D01*
G01X4318Y12392D01*
G01X4307Y12316D01*
G01X4307Y10157D01*
G01X4318Y10081D01*
G01X4358Y10010D01*
G01X4414Y9954D01*
G01X4485Y9913D01*
G01X4561Y9903D01*
G37*
G36*
G01X19888Y25483D02*
G01X20182Y25549D01*
G01X20447Y25702D01*
G01X20650Y25920D01*
G01X20782Y26195D01*
G01X20828Y26494D01*
G01X20782Y26794D01*
G01X20650Y27068D01*
G01X20447Y27287D01*
G01X20182Y27439D01*
G01X19888Y27505D01*
G01X19583Y27485D01*
G01X19304Y27373D01*
G01X19065Y27185D01*
G01X18897Y26936D01*
G01X18806Y26647D01*
G01X18806Y26342D01*
G01X18897Y26052D01*
G01X19065Y25803D01*
G01X19304Y25615D01*
G01X19583Y25504D01*
G01X19888Y25483D01*
G37*
G36*
G01X14726Y23685D02*
G01X15986Y23685D01*
G01X16002Y23690D01*
G01X16017Y23690D01*
G01X16032Y23695D01*
G01X16164Y23736D01*
G01X16195Y23746D01*
G01X16220Y23766D01*
G01X16250Y23782D01*
G01X16291Y23832D01*
G01X16372Y23944D01*
G01X16393Y23969D01*
G01X16423Y24061D01*
G01X16423Y24264D01*
G01X16393Y24356D01*
G01X16372Y24381D01*
G01X16291Y24493D01*
G01X16250Y24544D01*
G01X16220Y24559D01*
G01X16215Y24559D01*
G01X16220Y24564D01*
G01X16250Y24579D01*
G01X16291Y24630D01*
G01X16372Y24742D01*
G01X16393Y24767D01*
G01X16423Y24858D01*
G01X16423Y25062D01*
G01X16393Y25153D01*
G01X16372Y25179D01*
G01X16291Y25290D01*
G01X16250Y25341D01*
G01X16220Y25356D01*
G01X16215Y25361D01*
G01X16220Y25366D01*
G01X16250Y25382D01*
G01X16291Y25433D01*
G01X16372Y25544D01*
G01X16393Y25570D01*
G01X16423Y25661D01*
G01X16423Y25864D01*
G01X16393Y25956D01*
G01X16372Y25981D01*
G01X16291Y26093D01*
G01X16250Y26144D01*
G01X16220Y26159D01*
G01X16195Y26179D01*
G01X16164Y26189D01*
G01X16032Y26230D01*
G01X16017Y26235D01*
G01X16002Y26235D01*
G01X15986Y26240D01*
G01X15748Y26240D01*
G01X15748Y28511D01*
G01X15875Y28689D01*
G01X15925Y28917D01*
G01X15875Y29146D01*
G01X15742Y29334D01*
G01X15539Y29451D01*
G01X15311Y29471D01*
G01X15087Y29400D01*
G01X14914Y29248D01*
G01X14818Y29034D01*
G01X14818Y28801D01*
G01X14914Y28587D01*
G01X14986Y28526D01*
G01X14986Y26240D01*
G01X14726Y26240D01*
G01X14711Y26235D01*
G01X14696Y26235D01*
G01X14681Y26230D01*
G01X14549Y26189D01*
G01X14518Y26179D01*
G01X14493Y26159D01*
G01X14462Y26144D01*
G01X14422Y26093D01*
G01X14340Y25981D01*
G01X14320Y25956D01*
G01X14290Y25864D01*
G01X14290Y25661D01*
G01X14320Y25570D01*
G01X14340Y25544D01*
G01X14422Y25433D01*
G01X14462Y25382D01*
G01X14493Y25366D01*
G01X14498Y25361D01*
G01X14493Y25356D01*
G01X14462Y25341D01*
G01X14422Y25290D01*
G01X14340Y25179D01*
G01X14320Y25153D01*
G01X14290Y25062D01*
G01X14290Y24858D01*
G01X14320Y24767D01*
G01X14340Y24742D01*
G01X14422Y24630D01*
G01X14462Y24579D01*
G01X14493Y24564D01*
G01X14498Y24559D01*
G01X14493Y24559D01*
G01X14462Y24544D01*
G01X14422Y24493D01*
G01X14340Y24381D01*
G01X14320Y24356D01*
G01X14290Y24264D01*
G01X14290Y24061D01*
G01X14320Y23969D01*
G01X14340Y23944D01*
G01X14422Y23832D01*
G01X14462Y23782D01*
G01X14493Y23766D01*
G01X14518Y23746D01*
G01X14549Y23736D01*
G01X14681Y23695D01*
G01X14696Y23690D01*
G01X14711Y23690D01*
G01X14726Y23685D01*
G37*
G36*
G01X20817Y2506D02*
G01X21183Y2506D01*
G01X21534Y2593D01*
G01X21854Y2760D01*
G01X22128Y3004D01*
G01X22331Y3299D01*
G01X22458Y3639D01*
G01X22504Y4000D01*
G01X22458Y4361D01*
G01X22331Y4701D01*
G01X22128Y4996D01*
G01X21854Y5240D01*
G01X21534Y5407D01*
G01X21183Y5494D01*
G01X20817Y5494D01*
G01X20467Y5407D01*
G01X20147Y5240D01*
G01X19872Y4996D01*
G01X19669Y4701D01*
G01X19542Y4361D01*
G01X19497Y4000D01*
G01X19542Y3639D01*
G01X19669Y3299D01*
G01X19872Y3004D01*
G01X20147Y2760D01*
G01X20467Y2593D01*
G01X20817Y2506D01*
G37*

%LPD*%
G54D10*
G01X10782Y27139D02*
G01X10782Y30911D01*
G01X8712Y32981D01*
G01X11582Y28435D02*
G01X10807Y28435D01*
G01X10782Y28409D01*
G01X15367Y28917D02*
G01X15367Y25773D01*
G01X15356Y25763D01*
G01X2286Y30187D02*
G01X2717Y30187D01*
G01X5511Y32981D01*
G01X2286Y30187D02*
G01X2286Y28155D01*
G01X1270Y27139D01*
G01X1270Y16471D01*
G01X5074Y12667D01*
G01X5105Y11239D01*
G01X19812Y33997D02*
G01X19812Y36537D01*
G01X22352Y39077D01*
G01X7391Y11239D02*
G01X7391Y10284D01*
G01X5588Y8481D01*
G01X19812Y33997D02*
G01X17907Y32092D01*
G01X17907Y22313D01*
G01X16510Y20916D01*
G01X15405Y20916D01*
G01X15356Y20965D01*
G01X19558Y12895D02*
G01X20299Y12895D01*
G01X21082Y13677D01*
G01X21082Y21297D01*
G01X20066Y22313D01*
G01X17907Y22313D01*
G54D11*
G01X15999Y45689D02*
G01X20574Y45681D01*
G01X20574Y45681D01*
G01X15240Y38061D02*
G01X15240Y41363D01*
G01X11000Y45681D01*
G54D10*
G01X19558Y12895D02*
G01X15778Y12895D01*
G01X15290Y12407D01*
G01X3304Y4526D02*
G01X3304Y6197D01*
G01X5588Y8481D01*
G01X5105Y12001D02*
G01X7239Y14185D01*
G01X13512Y14185D01*
G01X15290Y12407D01*
G01X19558Y20396D02*
G01X17907Y20396D01*
G01X19558Y19146D02*
G01X17272Y19146D01*
G01X17526Y36283D02*
G01X17526Y36918D01*
G01X17272Y37172D01*
G01X5588Y27901D02*
G01X5588Y25488D01*
G01X6096Y24980D01*
G01X6987Y24980D01*
G01X7005Y24963D01*
G01X6350Y28663D02*
G01X6350Y26418D01*
G01X7005Y25763D01*
G01X8382Y27139D02*
G01X8382Y28155D01*
G01X7112Y29425D01*
G01X15356Y20165D02*
G01X17675Y20165D01*
G01X17907Y20396D01*
G01X13980Y18788D02*
G01X16913Y18788D01*
G01X17272Y19146D01*
G01X13180Y18788D02*
G01X13180Y17769D01*
G01X13462Y17487D01*
G01X16228Y17487D01*
G01X16637Y17868D01*
G01X16637Y17868D02*
G01X19530Y17868D01*
G01X19558Y17896D01*
G01X12379Y18788D02*
G01X12379Y16405D01*
G01X12319Y16344D01*
G01X11938Y38061D02*
G01X10160Y38061D01*
G01X7112Y35013D01*
G01X7112Y31457D01*
G01X2286Y26631D01*
G01X2286Y16979D01*
G01X4064Y15201D01*
G01X8509Y15201D01*
G01X10795Y17487D01*
G01X10782Y18788D01*
G01X9982Y18788D02*
G01X9982Y17487D01*
G01X8128Y17487D01*
G01X7620Y17995D01*
G01X7620Y19011D01*
G01X7366Y19265D01*
G01X4826Y19265D01*
G01X2794Y21297D01*
G01X2794Y26377D01*
G01X7620Y31203D01*
G01X7620Y34505D01*
G01X10414Y37299D01*
G01X12192Y37299D01*
G01X12954Y38061D01*
G01X12192Y38823D01*
G01X10922Y38823D01*
G01X9906Y39839D01*
G01X9906Y42887D01*
G01X11579Y18788D02*
G01X11579Y17383D01*
G01X8890Y14693D01*
G01X3810Y14693D01*
G01X1778Y16725D01*
G01X1778Y26885D01*
G01X6604Y31711D01*
G01X6604Y33743D01*
G01X6096Y34251D01*
G01X5080Y34251D01*
G01X4318Y35013D01*
G01X4318Y40855D01*
G01X7366Y43903D01*
G01X10414Y43903D01*
G01X13538Y40779D01*
G01X13538Y37238D01*
G01X14478Y36283D01*
G01X17526Y36283D01*
G01X15356Y22565D02*
G01X16507Y22565D01*
G01X17272Y23329D01*
G01X17272Y32473D01*
G01X16764Y32981D01*
G01X15356Y20965D02*
G01X10746Y20965D01*
G01X9906Y21805D01*
G01X7045Y21805D01*
G01X7005Y21765D01*
G01X9906Y21805D02*
G01X8382Y23329D01*
G01X7038Y23329D01*
G01X7005Y23362D01*
G01X19558Y16647D02*
G01X15826Y16647D01*
G01X15748Y16725D01*
G01X19558Y15394D02*
G01X16062Y15394D01*
G01X14732Y16725D01*
G01X19558Y14145D02*
G01X16296Y14145D01*
G01X13716Y16725D01*
G01X9982Y28435D02*
G01X9982Y27139D01*
G01X9182Y27139D02*
G01X9182Y29032D01*
G01X9169Y29044D01*
G54D12*
G01X8382Y27739D02*
G01X8382Y26539D01*
G01X9182Y27739D02*
G01X9182Y26539D01*
G01X9982Y27739D02*
G01X9982Y26539D01*
G01X10782Y27739D02*
G01X10782Y26539D01*
G01X11579Y27739D02*
G01X11579Y26539D01*
G01X12379Y27739D02*
G01X12379Y26539D01*
G01X13180Y27739D02*
G01X13180Y26539D01*
G01X13980Y27739D02*
G01X13980Y26539D01*
G01X14756Y25763D02*
G01X15956Y25763D01*
G01X14756Y24963D02*
G01X15956Y24963D01*
G01X14756Y24163D02*
G01X15956Y24163D01*
G01X14756Y23362D02*
G01X15956Y23362D01*
G01X14756Y22565D02*
G01X15956Y22565D01*
G01X14756Y21765D02*
G01X15956Y21765D01*
G01X14756Y20965D02*
G01X15956Y20965D01*
G01X14756Y20165D02*
G01X15956Y20165D01*
G01X13980Y19388D02*
G01X13980Y18188D01*
G01X13180Y19388D02*
G01X13180Y18188D01*
G01X12379Y19388D02*
G01X12379Y18188D01*
G01X11579Y19388D02*
G01X11579Y18188D01*
G01X10782Y19388D02*
G01X10782Y18188D01*
G01X9982Y19388D02*
G01X9982Y18188D01*
G01X9182Y19388D02*
G01X9182Y18188D01*
G01X8382Y19388D02*
G01X8382Y18188D01*
G01X6405Y20165D02*
G01X7605Y20165D01*
G01X6405Y20965D02*
G01X7605Y20965D01*
G01X6405Y21765D02*
G01X7605Y21765D01*
G01X6405Y22565D02*
G01X7605Y22565D01*
G01X6405Y23362D02*
G01X7605Y23362D01*
G01X6405Y24163D02*
G01X7605Y24163D01*
G01X6405Y24963D02*
G01X7605Y24963D01*
G01X6405Y25763D02*
G01X7605Y25763D01*
G54D15*
G01X16764Y32981D03*
G01X13964Y32981D03*
G54D16*
G01X8711Y32981D03*
G01X5512Y32981D03*
G54D15*
G01X2286Y30187D03*
G01X2286Y32986D03*
G54D17*
G01X19558Y11645D03*
G01X19558Y12895D03*
G01X19558Y14145D03*
G01X19558Y15394D03*
G01X19558Y16647D03*
G01X19558Y17896D03*
G01X19558Y19146D03*
G01X19558Y20396D03*
G54D18*
G01X22758Y22636D03*
G01X22758Y9410D03*
G54D19*
G01X15240Y38061D03*
G01X17272Y38950D03*
G01X17272Y37172D03*
G54D20*
G01X2794Y11239D03*
G01X5105Y11239D03*
G01X7391Y11239D03*
G54D21*
G01X5105Y17437D03*
G54D22*
G01X15290Y12407D03*
G01X10642Y12407D03*
G54D15*
G01X22352Y39077D03*
G01X22352Y41876D03*
G36*
G01X16789Y37985D02*
G01X16789Y40220D01*
G01X18415Y40220D01*
G01X18288Y37985D01*
G01X16789Y37985D01*
G37*
G54D23*
G01X3304Y4526D03*
G01X8303Y4533D03*
G01X15999Y45689D03*
G01X11000Y45681D03*
G01X5748Y40322D03*
G01X12250Y40322D03*
G01X5748Y35801D03*
G01X12250Y35801D03*
G54D24*
G01X2999Y38061D03*
G01X2999Y40601D03*
G01X2999Y35521D03*
G54D25*
G01X19812Y33997D03*
G54D26*
G01X19812Y31498D03*
G01X19812Y28996D03*
G01X19812Y26497D03*
G01X20574Y45681D03*
G01X12700Y9359D03*
G54D13*
G01X17907Y20396D03*
G01X17272Y19146D03*
G01X16637Y17868D03*
G01X17526Y36283D03*
G01X11938Y38061D03*
G01X6350Y28663D03*
G01X5588Y27901D03*
G01X7112Y29425D03*
G01X9982Y28435D03*
G01X9169Y29044D03*
G01X12319Y16344D03*
G01X9906Y42887D03*
G01X15367Y28917D03*
G01X15748Y16725D03*
G01X14732Y16725D03*
G01X13716Y16725D03*
G01X11582Y28435D03*
G54D14*
G01X18999Y41396D03*
G54D24*
G01X15748Y9436D02*
G01X15748Y8521D01*
G54D27*
G01X3837Y8481D02*
G01X7338Y8481D01*
G01X4588Y2585D02*
G01X6587Y2585D01*
G01X10287Y4926D02*
G01X10287Y6426D01*
M00*
M02*
