G04 ---------------------------- Layer name :BOTTOM SOLDER LAYER*
G04 EasyEDA v5.3.2, Sat, 10 Mar 2018 16:58:59 GMT*
G04 Gerber Generator version 0.2*
G04 Scale: 100 percent, Rotated: No, Reflected: No *
G04 Dimensions in millimeters *
G04 leading zeros omitted , absolute positions ,3 integer and 3 decimal *
%FSLAX33Y33*%
%MOMM*%
G90*
G71D02*

%ADD29R,1.803197X1.503197*%
%ADD30R,1.727200X3.454400*%
%ADD41C,1.828800*%
%ADD42C,1.703197*%
%ADD43R,1.503197X1.803197*%
%ADD44C,2.082800*%
%ADD45R,1.727200X1.727200*%
%ADD46C,1.727200*%

%LPD*%
G54D41*
G01X15748Y9436D02*
G01X15748Y8521D01*
G54D42*
G01X3837Y8481D02*
G01X7338Y8481D01*
G01X4588Y2585D02*
G01X6587Y2585D01*
G01X10287Y4926D02*
G01X10287Y6426D01*
G54D29*
G01X22225Y31127D03*
G01X22225Y34327D03*
G01X22227Y25288D03*
G01X22227Y28488D03*
G54D43*
G01X7290Y38061D03*
G01X10489Y38061D03*
G01X18617Y36537D03*
G01X15418Y36537D03*
G01X11505Y42887D03*
G01X8306Y42887D03*
G01X15418Y39077D03*
G01X18617Y39077D03*
G54D30*
G01X3556Y31711D03*
G01X5588Y31711D03*
G01X7620Y31711D03*
G01X9652Y31711D03*
G01X11684Y31711D03*
G01X13716Y31711D03*
G01X15748Y31711D03*
G01X17780Y31711D03*
G01X17780Y12407D03*
G01X15748Y12407D03*
G01X13716Y12407D03*
G01X11684Y12407D03*
G01X9652Y12407D03*
G01X7620Y12407D03*
G01X5588Y12407D03*
G01X3556Y12407D03*
G54D44*
G01X3304Y4526D03*
G01X8303Y4533D03*
G01X15999Y45689D03*
G01X11000Y45681D03*
G01X5748Y40322D03*
G01X12250Y40322D03*
G01X5748Y35801D03*
G01X12250Y35801D03*
G54D41*
G01X2999Y38061D03*
G01X2999Y40601D03*
G01X2999Y35521D03*
G54D45*
G01X19812Y33997D03*
G54D46*
G01X19812Y31498D03*
G01X19812Y28996D03*
G01X19812Y26497D03*
G01X20574Y45681D03*
G01X12700Y9359D03*
M00*
M02*
